<?xml version="1.0" encoding="UTF-8"?><svg xmlns="http://www.w3.org/2000/svg" viewBox="0 0 236.42 129.38"><defs><style>.cls-1{opacity:.8;}.cls-1,.cls-2{fill:#fff;}.cls-3{fill:#1d1d1b;}.cls-4{fill:#f8d200;}.cls-5{fill:#e30613;}</style></defs><g id="BoundingBox"><rect class="cls-1" width="236.42" height="127.73"/><polygon class="cls-2" points="229.73 129.38 22.73 129.38 22.73 25.38 229.73 25.38 229.73 129.38 229.73 129.38"/><path class="cls-3" d="M90.48,49.26c0,.29-.04.54-.11.75-.07.21-.17.4-.29.55-.12.15-.27.28-.43.37-.16.1-.33.17-.51.21v.02c.21.04.41.11.6.23.19.11.35.25.49.42.14.17.25.36.33.59.08.23.12.47.12.74,0,.33-.06.62-.17.89-.11.27-.28.5-.52.7-.23.2-.53.35-.89.46-.36.11-.78.17-1.27.17h-1.68v-8.21h1.58c.48,0,.9.05,1.24.15.35.1.63.24.85.42.22.18.38.4.48.66.1.26.15.55.15.86h0ZM89.43,49.3c0-.38-.13-.69-.4-.94-.27-.25-.69-.37-1.27-.37h-.55v2.83h.54c.56,0,.98-.13,1.26-.4s.43-.64.43-1.12h0ZM89.58,53.08c0-.44-.14-.8-.43-1.05-.29-.26-.7-.39-1.24-.39h-.7v2.88h.64c.61,0,1.05-.12,1.33-.36.27-.24.41-.6.41-1.08h0ZM95.96,55.38h-.88v-.64h-.02s-.08.12-.15.21c-.08.09-.18.18-.3.26-.12.08-.27.16-.45.22-.17.06-.37.1-.58.1-.25,0-.48-.04-.68-.11-.2-.08-.37-.2-.52-.36-.14-.17-.25-.38-.33-.65-.08-.27-.11-.59-.11-.98v-3.75h.96v3.68c0,.48.08.82.23,1.02.15.2.39.3.72.3.28,0,.51-.07.7-.21.19-.14.34-.28.45-.41v-4.38h.96v5.71h0ZM100.55,55.38v-3.68c0-.48-.08-.83-.24-1.04-.16-.21-.41-.32-.74-.32-.29,0-.52.07-.71.21s-.34.28-.45.42v4.4h-.96v-5.71h.88v.64h.02s.08-.12.15-.21c.08-.09.18-.18.31-.26.13-.08.28-.16.45-.22.17-.06.37-.1.6-.1.25,0,.48.04.69.11.21.08.38.2.52.36.14.17.25.38.33.65.08.27.12.59.12.98v3.75h-.96ZM102.7,52.6c0-.58.08-1.06.23-1.45.15-.39.35-.7.58-.94.24-.24.51-.41.81-.51.3-.1.6-.15.9-.15.18,0,.34.01.48.04.13.03.25.06.33.1v-2.74l.96-.11v8.52h-.88v-.61h-.02s-.07.11-.13.2c-.06.08-.15.17-.26.25-.11.08-.25.15-.42.21-.17.06-.36.09-.58.09-.27,0-.53-.05-.77-.16-.24-.11-.45-.28-.64-.51-.18-.23-.33-.54-.43-.9-.11-.37-.16-.82-.16-1.34h0ZM104.96,54.66c.15,0,.29-.02.4-.06s.22-.09.31-.15c.09-.06.16-.12.22-.18.06-.06.11-.12.14-.17v-3.52c-.09-.06-.19-.1-.3-.14-.12-.04-.26-.06-.43-.06-.22,0-.43.04-.62.11-.19.08-.36.2-.51.37-.14.17-.26.4-.34.68-.08.28-.12.62-.12,1.02s.03.73.1.99c.07.27.16.48.28.64.12.16.25.28.4.35.15.07.31.11.48.11h0ZM112.13,51.59c0,.25,0,.46-.02.64-.02.18-.03.34-.05.47h-2.92c.03.67.18,1.17.43,1.49.26.32.63.48,1.11.48.17,0,.32-.02.45-.06.13-.04.25-.09.35-.14.1-.06.18-.11.25-.17.07-.06.12-.1.15-.13l.36.68s-.1.1-.18.17c-.08.08-.19.15-.32.23-.13.08-.3.14-.5.2-.2.06-.43.08-.7.08-.36,0-.68-.06-.97-.18-.29-.12-.54-.3-.74-.55-.2-.25-.36-.57-.47-.95-.11-.38-.17-.85-.17-1.39,0-.51.06-.95.17-1.32.12-.37.27-.67.47-.91.2-.24.43-.41.69-.53.26-.12.54-.17.84-.17.55,0,.98.17,1.29.52s.46.86.46,1.55h0ZM110.32,50.31c-.34,0-.61.14-.82.43-.21.29-.33.7-.36,1.24h2.08s.01-.1.02-.17c0-.08,0-.16,0-.24,0-.4-.08-.7-.24-.92-.16-.22-.39-.33-.69-.33h0ZM115.88,50.82c-.06-.07-.18-.17-.35-.29-.17-.12-.38-.18-.65-.18-.25,0-.45.06-.58.18-.13.12-.2.26-.2.43,0,.21.06.39.18.53.12.14.31.29.57.45l.36.21c.39.23.69.48.92.74.22.27.33.61.33,1.03,0,.45-.16.83-.47,1.14-.31.31-.76.46-1.35.46-.23,0-.43-.02-.61-.07s-.33-.1-.46-.17c-.13-.06-.24-.13-.33-.21-.09-.08-.16-.14-.21-.21l.46-.76s.11.1.17.17c.07.06.15.12.24.18.1.06.2.11.32.15s.26.06.42.06c.29,0,.5-.06.65-.19.15-.13.23-.28.23-.46,0-.13-.02-.25-.05-.35-.04-.1-.09-.19-.16-.27-.07-.08-.16-.15-.26-.23-.1-.07-.22-.15-.36-.24l-.36-.23c-.36-.23-.64-.47-.84-.73-.2-.25-.3-.58-.3-.98,0-.21.04-.41.12-.59.08-.18.2-.33.35-.46.15-.13.33-.23.53-.31.2-.08.42-.11.65-.11s.41.02.57.07c.16.04.3.1.41.17.11.07.21.13.29.2.08.07.14.12.18.17l-.42.69h0ZM120.58,55.38v-3.68c0-.47-.07-.81-.2-1.01-.13-.21-.35-.31-.65-.31-.16,0-.3.02-.42.06-.12.04-.23.09-.33.15-.1.06-.18.12-.25.2-.07.07-.13.13-.18.19v4.4h-.96v-5.71h.88v.64h.02c.04-.06.1-.14.18-.23.08-.09.18-.18.3-.26.12-.08.26-.15.42-.21.16-.06.34-.08.54-.08.65,0,1.11.25,1.38.76.06-.08.13-.16.23-.26.1-.09.21-.17.33-.25.13-.08.27-.14.43-.18s.33-.07.52-.07c1.16,0,1.74.67,1.74,2.02v3.83h-.96v-3.68c0-.47-.08-.81-.25-1.01-.17-.21-.41-.31-.74-.31-.27,0-.49.07-.67.2-.18.13-.32.26-.42.37.02.09.03.18.04.28,0,.1.01.2.01.32v3.83h-.96ZM126.95,55.38h-.96v-5.71h.96v5.71h0ZM126.47,48.29c-.2,0-.36-.06-.48-.19-.12-.13-.18-.29-.18-.5s.06-.36.18-.49c.12-.13.28-.19.48-.19s.35.06.46.19c.12.13.18.29.18.49s-.06.37-.18.5c-.12.13-.27.19-.46.19h0ZM131.54,55.38v-3.68c0-.48-.08-.83-.24-1.04-.16-.21-.41-.32-.74-.32-.29,0-.52.07-.71.21s-.34.28-.45.42v4.4h-.96v-5.71h.88v.64h.02s.08-.12.15-.21c.08-.09.18-.18.31-.26.13-.08.28-.16.45-.22s.37-.1.6-.1c.25,0,.48.04.69.11.21.08.38.2.52.36.14.17.25.38.33.65.08.27.12.59.12.98v3.75h-.96ZM134.91,55.38h-.96v-5.71h.96v5.71h0ZM134.43,48.29c-.2,0-.36-.06-.48-.19-.12-.13-.18-.29-.18-.5s.06-.36.18-.49c.12-.13.28-.19.48-.19s.35.06.46.19c.12.13.18.29.18.49s-.06.37-.18.5c-.12.13-.27.19-.46.19h0ZM138.85,50.82c-.06-.07-.18-.17-.35-.29-.17-.12-.38-.18-.65-.18-.25,0-.45.06-.58.18-.13.12-.2.26-.2.43,0,.21.06.39.18.53.12.14.31.29.57.45l.36.21c.39.23.69.48.92.74.22.27.33.61.33,1.03,0,.45-.16.83-.47,1.14-.31.31-.76.46-1.35.46-.23,0-.43-.02-.61-.07s-.33-.1-.46-.17c-.13-.06-.24-.13-.33-.21-.09-.08-.16-.14-.21-.21l.46-.76s.11.1.17.17c.07.06.15.12.24.18.1.06.2.11.32.15s.26.06.42.06c.29,0,.5-.06.65-.19.15-.13.23-.28.23-.46,0-.13-.02-.25-.05-.35-.04-.1-.09-.19-.16-.27-.07-.08-.16-.15-.26-.23-.1-.07-.22-.15-.36-.24l-.36-.23c-.36-.23-.64-.47-.84-.73-.2-.25-.3-.58-.3-.98,0-.21.04-.41.12-.59.08-.18.2-.33.35-.46.15-.13.33-.23.53-.31.2-.08.42-.11.65-.11s.41.02.57.07c.16.04.3.1.41.17.12.07.21.13.29.2.08.07.14.12.18.17l-.42.69h0ZM142.99,50.45h-1.25v3.17c0,.4.05.68.15.83.1.15.28.22.52.22.14,0,.27-.02.37-.06.1-.04.18-.08.23-.11l.13.77s-.13.08-.29.15c-.15.07-.35.1-.61.1-.49,0-.86-.14-1.11-.41-.25-.27-.37-.73-.37-1.36v-3.3h-.69v-.64l.69-.14.11-1.59h.86v1.59h1.37l-.12.79h0ZM147.67,51.59c0,.25,0,.46-.02.64-.02.18-.03.34-.05.47h-2.92c.03.67.18,1.17.43,1.49.26.32.63.48,1.11.48.17,0,.32-.02.45-.06.13-.04.25-.09.35-.14.1-.06.18-.11.25-.17.07-.06.12-.1.15-.13l.36.68s-.1.1-.18.17c-.08.08-.19.15-.32.23-.13.08-.3.14-.5.2-.2.06-.43.08-.7.08-.36,0-.68-.06-.97-.18-.29-.12-.54-.3-.74-.55-.2-.25-.36-.57-.47-.95-.11-.38-.17-.85-.17-1.39,0-.51.06-.95.17-1.32.12-.37.27-.67.47-.91.2-.24.43-.41.69-.53.26-.12.54-.17.84-.17.55,0,.98.17,1.29.52.31.35.46.86.46,1.55h0ZM145.86,50.31c-.34,0-.61.14-.82.43-.21.29-.33.7-.36,1.24h2.08s.01-.1.02-.17c0-.08,0-.16,0-.24,0-.4-.08-.7-.24-.92-.16-.22-.39-.33-.69-.33h0ZM151.46,50.51s-.08-.04-.15-.06c-.08-.02-.19-.04-.32-.04-.3,0-.54.08-.71.24-.17.16-.29.34-.36.53v4.19h-.96v-5.71h.88v.77h.02c.04-.11.09-.22.15-.33.06-.11.14-.2.24-.29.1-.08.21-.15.34-.2.13-.05.29-.07.47-.07.13,0,.24.01.33.04.08.02.15.04.2.06l-.12.86h0ZM153.38,55.38h-.96v-5.71h.96v5.71h0ZM152.9,48.29c-.2,0-.36-.06-.48-.19-.12-.13-.18-.29-.18-.5s.06-.36.18-.49c.12-.13.28-.19.48-.19s.35.06.46.19c.12.13.18.29.18.49s-.06.37-.18.5-.27.19-.46.19h0ZM158.85,55.38h-.88v-.64h-.02s-.08.12-.15.21c-.08.09-.18.18-.3.26-.12.08-.27.16-.45.22-.17.06-.37.1-.58.1-.25,0-.48-.04-.68-.11-.2-.08-.37-.2-.52-.36-.14-.17-.25-.38-.33-.65-.08-.27-.11-.59-.11-.98v-3.75h.96v3.68c0,.48.08.82.23,1.02.15.2.39.3.72.3.28,0,.51-.07.7-.21.19-.14.34-.28.45-.41v-4.38h.96v5.71h0ZM163.33,55.38v-3.68c0-.47-.07-.81-.2-1.01-.13-.21-.35-.31-.65-.31-.16,0-.3.02-.42.06-.12.04-.23.09-.33.15-.1.06-.18.12-.25.2-.07.07-.13.13-.18.19v4.4h-.96v-5.71h.88v.64h.02c.04-.06.1-.14.18-.23.08-.09.18-.18.3-.26.12-.08.26-.15.42-.21.16-.06.34-.08.54-.08.65,0,1.11.25,1.38.76.06-.08.13-.16.23-.26.1-.09.21-.17.33-.25.13-.08.27-.14.43-.18s.33-.07.52-.07c1.16,0,1.74.67,1.74,2.02v3.83h-.96v-3.68c0-.47-.08-.81-.25-1.01-.17-.21-.41-.31-.74-.31-.27,0-.49.07-.67.2-.18.13-.32.26-.42.37.02.09.03.18.04.28,0,.1.01.2.01.32v3.83h-.96ZM88.37,62.45h-1.17v4.93h-.96v-4.93h-.69v-.64l.69-.13v-1.14c0-.31.04-.58.13-.8.09-.22.2-.4.35-.55s.31-.25.5-.31.39-.1.61-.1.38.03.52.08.24.1.29.13l-.2.8s-.12-.07-.2-.1c-.09-.04-.19-.05-.32-.05-.23,0-.4.07-.52.21s-.18.4-.18.79v1.02h1.29l-.12.79h0ZM93.32,67.38h-.88v-.64h-.02s-.08.12-.15.21c-.08.09-.18.18-.3.26-.12.08-.27.16-.45.22-.17.06-.37.1-.58.1-.25,0-.48-.04-.68-.11-.2-.08-.37-.2-.52-.36-.14-.17-.25-.38-.33-.65-.08-.27-.11-.59-.11-.98v-3.75h.96v3.68c0,.48.08.82.23,1.02.15.2.39.3.72.3.28,0,.51-.07.7-.21.19-.14.34-.28.45-.41v-4.38h.96v5.71h0ZM90.95,60.02c0,.18-.06.33-.17.44-.11.11-.25.17-.4.17s-.29-.06-.4-.17-.17-.26-.17-.44.06-.33.17-.44c.11-.11.25-.17.4-.17s.29.06.4.17c.11.11.17.26.17.44h0ZM92.78,60.02c0,.18-.06.33-.17.44-.11.11-.25.17-.4.17s-.29-.06-.4-.17-.17-.26-.17-.44.06-.33.17-.44c.11-.11.25-.17.4-.17s.29.06.4.17c.11.11.17.26.17.44h0ZM97.31,62.51s-.08-.04-.15-.06c-.08-.02-.19-.04-.32-.04-.3,0-.54.08-.71.24-.17.16-.29.34-.36.53v4.19h-.96v-5.71h.88v.77h.02c.04-.11.09-.22.15-.33.06-.11.14-.2.24-.29.1-.08.21-.15.34-.2.13-.05.29-.07.47-.07.13,0,.24.01.33.04.08.02.15.04.2.06l-.12.86h0ZM100.71,67.38v-8.21h4.03l-.07.82h-2.93v3.03h2.7v.82h-2.7v3.53h-1.04ZM105.22,65.93c0-.33.06-.61.19-.83.13-.22.3-.4.51-.54.21-.14.47-.24.76-.3.29-.06.6-.09.92-.09h.3v-.55c0-.48-.09-.82-.26-1-.17-.18-.41-.27-.72-.27-.29,0-.52.06-.71.18-.19.12-.34.23-.45.33l-.4-.64c.06-.06.14-.13.24-.21.1-.08.22-.15.36-.23.14-.07.31-.13.49-.18.18-.05.39-.07.62-.07.59,0,1.03.16,1.33.49.3.33.45.85.45,1.57v2.61c0,.25,0,.49.02.72.02.23.03.39.05.47h-.92l-.04-.63h-.02c-.03.07-.08.15-.14.24-.06.09-.14.17-.24.25-.1.08-.21.14-.35.2-.13.06-.29.08-.48.08-.21,0-.41-.04-.6-.12-.19-.08-.35-.19-.49-.33-.14-.14-.25-.31-.32-.51-.08-.19-.11-.41-.11-.64h0ZM106.95,66.7c.13,0,.25-.02.36-.06.1-.04.19-.09.27-.14.08-.06.14-.12.19-.18.05-.07.1-.12.14-.17v-1.26h-.31c-.46.03-.81.11-1.05.25-.24.14-.36.37-.36.69,0,.29.07.51.2.66.13.15.32.22.56.22h0ZM113.3,67.38v-3.68c0-.47-.07-.81-.2-1.01-.13-.21-.35-.31-.65-.31-.16,0-.3.02-.42.06-.12.04-.23.09-.33.15-.1.06-.18.12-.25.2-.07.07-.13.13-.18.19v4.4h-.96v-5.71h.88v.64h.02c.04-.06.1-.14.18-.23.08-.09.18-.18.3-.26.12-.08.26-.15.42-.21.16-.06.34-.08.54-.08.65,0,1.11.25,1.38.76.06-.08.13-.16.23-.26.1-.09.21-.17.33-.25.13-.08.27-.14.43-.18.16-.05.33-.07.52-.07,1.16,0,1.74.67,1.74,2.02v3.83h-.96v-3.68c0-.47-.08-.81-.25-1.01-.17-.21-.41-.31-.74-.31-.27,0-.49.07-.67.2-.18.13-.32.26-.42.37.02.09.03.18.04.28,0,.1.01.2.01.32v3.83h-.96ZM119.67,67.38h-.96v-5.71h.96v5.71h0ZM119.19,60.29c-.2,0-.36-.06-.48-.19-.12-.13-.18-.29-.18-.5s.06-.36.18-.49c.12-.13.28-.19.48-.19s.35.06.46.19c.12.13.18.29.18.49s-.06.37-.18.5c-.12.13-.27.19-.46.19h0ZM122.09,66.04c0,.24.03.4.1.5.07.1.18.14.35.14.09,0,.16,0,.22-.02.06-.02.11-.03.14-.05l.08.71s-.13.06-.26.1c-.13.04-.3.06-.51.06-.33,0-.59-.1-.79-.3-.2-.2-.3-.55-.3-1.06v-7.16l.96-.11v7.19h0ZM124.82,67.38h-.96v-5.71h.96v5.71h0ZM124.34,60.29c-.2,0-.36-.06-.48-.19-.12-.13-.18-.29-.18-.5s.06-.36.18-.49c.12-.13.28-.19.48-.19s.35.06.46.19c.12.13.18.29.18.49s-.06.37-.18.5-.27.19-.46.19h0ZM129.96,63.59c0,.25,0,.46-.02.64-.02.18-.03.34-.05.47h-2.92c.03.67.18,1.17.43,1.49.26.32.63.48,1.11.48.17,0,.32-.02.45-.06.13-.04.25-.09.35-.14.1-.06.18-.11.25-.17.07-.06.12-.1.15-.13l.36.68s-.1.1-.18.17c-.08.08-.19.15-.32.23-.13.08-.3.14-.5.2-.2.06-.43.08-.7.08-.36,0-.68-.06-.97-.18-.29-.12-.54-.3-.74-.55-.2-.25-.36-.57-.47-.95-.11-.38-.17-.85-.17-1.39,0-.51.06-.95.17-1.32.11-.37.27-.67.47-.91.2-.24.43-.41.69-.53.26-.12.54-.17.84-.17.55,0,.98.17,1.29.52.31.35.46.86.46,1.55h0ZM128.15,62.31c-.34,0-.61.14-.82.43-.21.29-.33.7-.36,1.24h2.08s.01-.1.02-.17c0-.08,0-.16,0-.24,0-.4-.08-.7-.24-.92-.16-.22-.39-.33-.69-.33h0ZM131.09,66.7c0-.21.06-.37.18-.48.12-.11.27-.16.43-.16.23,0,.42.1.57.29.15.19.22.48.22.88,0,.27-.04.51-.12.71-.08.2-.19.38-.33.52-.13.15-.28.27-.45.36-.16.1-.32.17-.48.23l-.2-.42c.25-.13.45-.28.61-.46.16-.18.25-.44.26-.79h-.04c-.18,0-.34-.06-.46-.17-.13-.12-.19-.28-.19-.51h0ZM139.34,60.43s-.09-.08-.16-.14c-.08-.06-.17-.12-.29-.17-.12-.06-.25-.1-.4-.14-.15-.04-.33-.06-.52-.06-.36,0-.63.1-.81.29-.18.19-.27.41-.27.67,0,.16.02.31.07.44.04.13.11.27.2.4.09.13.2.26.34.39.13.13.3.27.49.42l.67.55c.19.16.37.32.54.49.17.17.32.34.44.53.12.19.22.39.29.61.07.22.11.46.11.73,0,.63-.19,1.13-.58,1.52-.39.38-.96.58-1.7.58-.29,0-.55-.03-.78-.08-.23-.06-.42-.12-.59-.2s-.31-.16-.42-.24c-.11-.08-.19-.15-.25-.21l.42-.9s.12.11.21.19c.1.08.21.16.35.24.13.08.29.15.46.2.17.06.36.08.58.08.4,0,.72-.1.93-.3.22-.2.33-.44.33-.72,0-.17-.02-.33-.07-.48-.04-.14-.11-.28-.19-.41-.08-.13-.19-.26-.32-.39-.13-.13-.28-.26-.45-.4l-.67-.56c-.23-.19-.43-.37-.61-.54-.17-.17-.32-.35-.45-.54-.12-.19-.22-.39-.28-.61-.06-.22-.1-.47-.1-.76,0-.26.05-.51.15-.74.1-.23.24-.43.42-.59.18-.17.4-.3.66-.39.26-.1.55-.14.87-.14.27,0,.51.03.71.08.21.05.38.11.53.18.15.07.26.14.35.21s.15.12.2.15l-.43.79h0ZM144.85,63.59c0,.25,0,.46-.02.64-.02.18-.03.34-.05.47h-2.92c.03.67.18,1.17.43,1.49.26.32.63.48,1.11.48.17,0,.32-.02.45-.06.13-.04.25-.09.35-.14.1-.06.18-.11.25-.17.07-.06.12-.1.15-.13l.36.68s-.1.1-.18.17c-.08.08-.19.15-.32.23-.13.08-.3.14-.5.2-.2.06-.43.08-.7.08-.36,0-.68-.06-.97-.18-.29-.12-.54-.3-.74-.55-.2-.25-.36-.57-.47-.95-.11-.38-.17-.85-.17-1.39,0-.51.06-.95.17-1.32.12-.37.27-.67.47-.91.2-.24.43-.41.69-.53.26-.12.54-.17.84-.17.55,0,.98.17,1.29.52.31.35.46.86.46,1.55h0ZM143.04,62.31c-.34,0-.61.14-.82.43-.21.29-.33.7-.36,1.24h2.08s.01-.1.02-.17c0-.08,0-.16,0-.24,0-.4-.08-.7-.24-.92-.16-.22-.39-.33-.69-.33h0ZM149.25,67.38v-3.68c0-.48-.08-.83-.24-1.04-.16-.21-.41-.32-.74-.32-.29,0-.52.07-.71.21s-.34.28-.45.42v4.4h-.96v-5.71h.88v.64h.02s.08-.12.15-.21c.08-.09.18-.18.31-.26.13-.08.28-.16.45-.22.17-.06.37-.1.6-.1.25,0,.48.04.69.11.21.08.38.2.52.36.14.17.25.38.33.65.08.27.12.59.12.98v3.75h-.96ZM152.62,67.38h-.96v-5.71h.96v5.71h0ZM152.14,60.29c-.2,0-.36-.06-.48-.19-.12-.13-.18-.29-.18-.5s.06-.36.18-.49c.12-.13.28-.19.48-.19s.35.06.46.19c.12.13.18.29.18.49s-.06.37-.18.5c-.12.13-.27.19-.46.19h0ZM153.83,64.52c0-.52.06-.98.18-1.36.12-.38.29-.69.5-.93.21-.24.45-.42.73-.54.27-.12.57-.17.87-.17s.61.06.88.17c.27.12.5.29.7.54.2.24.36.55.47.93.12.38.17.83.17,1.36s-.06.99-.18,1.37-.28.69-.49.93c-.21.24-.45.42-.73.53-.28.11-.57.17-.88.17s-.61-.06-.88-.17c-.27-.11-.5-.29-.7-.53-.2-.24-.35-.55-.47-.93-.12-.38-.17-.83-.17-1.37h0ZM157.34,64.52c0-.76-.11-1.32-.33-1.66-.22-.35-.53-.52-.93-.52s-.7.17-.92.52c-.22.35-.33.9-.33,1.66s.11,1.31.33,1.64c.22.33.53.5.93.5s.7-.17.92-.5c.22-.33.33-.88.33-1.64h0ZM162.07,62.51s-.08-.04-.15-.06c-.08-.02-.19-.04-.32-.04-.3,0-.54.08-.71.24-.17.16-.29.34-.36.53v4.19h-.96v-5.71h.88v.77h.02c.04-.11.09-.22.15-.33.06-.11.14-.2.24-.29.1-.08.21-.15.34-.2.13-.05.29-.07.47-.07.13,0,.24.01.33.04.08.02.15.04.2.06l-.12.86h0ZM166.54,63.59c0,.25,0,.46-.02.64-.02.18-.03.34-.05.47h-2.92c.03.67.18,1.17.43,1.49.26.32.63.48,1.11.48.17,0,.32-.02.45-.06s.25-.09.35-.14c.1-.06.18-.11.25-.17.07-.06.12-.1.15-.13l.36.68s-.1.1-.18.17c-.08.08-.19.15-.32.23-.13.08-.3.14-.5.2-.2.06-.43.08-.7.08-.36,0-.68-.06-.97-.18-.29-.12-.54-.3-.74-.55-.2-.25-.36-.57-.47-.95-.11-.38-.17-.85-.17-1.39,0-.51.06-.95.17-1.32.11-.37.27-.67.47-.91.2-.24.43-.41.69-.53.26-.12.54-.17.84-.17.55,0,.98.17,1.29.52s.46.86.46,1.55h0ZM164.73,62.31c-.34,0-.61.14-.82.43-.21.29-.33.7-.36,1.24h2.08s.01-.1.02-.17c0-.08,0-.16,0-.24,0-.4-.08-.7-.24-.92-.16-.22-.39-.33-.69-.33h0ZM170.94,67.38v-3.68c0-.48-.08-.83-.24-1.04-.16-.21-.41-.32-.74-.32-.29,0-.52.07-.71.21-.19.14-.34.28-.45.42v4.4h-.96v-5.71h.88v.64h.02s.08-.12.15-.21c.08-.09.18-.18.31-.26.13-.08.28-.16.45-.22s.37-.1.6-.1c.25,0,.48.04.69.11.21.08.38.2.52.36.14.17.25.38.33.65.08.27.12.59.12.98v3.75h-.96ZM173.19,66.7c0-.21.06-.37.18-.48.12-.11.27-.16.43-.16.23,0,.42.1.57.29.15.19.22.48.22.88,0,.27-.04.51-.12.71-.08.2-.19.38-.33.52-.13.15-.28.27-.45.36-.16.1-.32.17-.48.23l-.2-.42c.25-.13.45-.28.61-.46.16-.18.25-.44.26-.79h-.04c-.18,0-.34-.06-.46-.17-.13-.12-.19-.28-.19-.51h0ZM178.33,67.38v-8.21h4.03l-.07.82h-2.93v3.03h2.7v.82h-2.7v3.53h-1.04ZM185.83,62.51s-.08-.04-.15-.06c-.08-.02-.19-.04-.32-.04-.3,0-.54.08-.71.24-.17.16-.29.34-.36.53v4.19h-.96v-5.71h.88v.77h.02c.04-.11.09-.22.15-.33.06-.11.14-.2.24-.29.1-.08.21-.15.34-.2.13-.05.29-.07.47-.07.13,0,.24.01.33.04s.15.04.2.06l-.12.86h0ZM186.39,65.93c0-.33.06-.61.19-.83.13-.22.3-.4.51-.54.21-.14.47-.24.76-.3.29-.06.6-.09.92-.09h.3v-.55c0-.48-.09-.82-.26-1-.17-.18-.41-.27-.72-.27-.29,0-.52.06-.71.18-.19.12-.34.23-.45.33l-.4-.64c.06-.06.14-.13.24-.21.1-.08.22-.15.36-.23.14-.07.31-.13.49-.18.18-.05.39-.07.62-.07.59,0,1.03.16,1.33.49.3.33.45.85.45,1.57v2.61c0,.25,0,.49.02.72.02.23.03.39.05.47h-.92l-.04-.63h-.02c-.03.07-.08.15-.14.24-.06.09-.14.17-.24.25-.1.08-.21.14-.35.2-.13.06-.29.08-.48.08-.21,0-.41-.04-.6-.12-.19-.08-.35-.19-.49-.33-.14-.14-.25-.31-.32-.51-.08-.19-.11-.41-.11-.64h0ZM188.11,66.7c.13,0,.25-.02.36-.06.1-.04.19-.09.27-.14.08-.06.14-.12.19-.18.05-.07.1-.12.14-.17v-1.26h-.31c-.46.03-.81.11-1.05.25-.24.14-.36.37-.36.69,0,.29.07.51.2.66.13.15.32.22.56.22h0ZM195.47,67.38h-.88v-.64h-.02s-.08.12-.15.21c-.08.09-.18.18-.3.26-.12.08-.27.16-.45.22-.17.06-.37.1-.58.1-.25,0-.48-.04-.68-.11-.2-.08-.37-.2-.52-.36-.14-.17-.25-.38-.33-.65-.08-.27-.11-.59-.11-.98v-3.75h.96v3.68c0,.48.08.82.23,1.02.15.2.39.3.72.3.28,0,.51-.07.7-.21.19-.14.34-.28.45-.41v-4.38h.96v5.71h0ZM200.61,63.59c0,.25,0,.46-.02.64-.02.18-.03.34-.05.47h-2.92c.03.67.18,1.17.43,1.49.26.32.63.48,1.11.48.17,0,.32-.02.45-.06.13-.04.25-.09.35-.14.1-.06.18-.11.25-.17.07-.06.12-.1.15-.13l.36.68s-.1.1-.18.17c-.08.08-.19.15-.32.23-.13.08-.3.14-.5.2-.2.06-.43.08-.7.08-.36,0-.68-.06-.97-.18-.29-.12-.54-.3-.74-.55-.2-.25-.36-.57-.47-.95-.11-.38-.17-.85-.17-1.39,0-.51.06-.95.17-1.32.11-.37.27-.67.47-.91.2-.24.43-.41.69-.53.26-.12.54-.17.84-.17.55,0,.98.17,1.29.52.31.35.46.86.46,1.55h0ZM198.8,62.31c-.34,0-.61.14-.82.43-.21.29-.33.7-.36,1.24h2.08s.01-.1.02-.17c0-.08,0-.16,0-.24,0-.4-.08-.7-.24-.92-.16-.22-.39-.33-.69-.33h0ZM205.01,67.38v-3.68c0-.48-.08-.83-.24-1.04-.16-.21-.41-.32-.74-.32-.29,0-.52.07-.71.21s-.34.28-.45.42v4.4h-.96v-5.71h.88v.64h.02s.08-.12.15-.21c.08-.09.18-.18.31-.26s.28-.16.45-.22.37-.1.6-.1c.25,0,.48.04.69.11.21.08.38.2.52.36.14.17.25.38.33.65.08.27.12.59.12.98v3.75h-.96ZM89.96,79.38h-.88v-.64h-.02s-.08.12-.15.21c-.08.09-.18.18-.3.26-.12.08-.27.16-.45.22-.17.06-.37.1-.58.1-.25,0-.48-.04-.68-.11-.2-.08-.37-.2-.52-.36-.14-.17-.25-.38-.33-.65-.08-.27-.11-.59-.11-.98v-3.75h.96v3.68c0,.48.08.82.23,1.02.15.2.39.3.72.3.28,0,.51-.07.7-.21.19-.14.34-.28.45-.41v-4.38h.96v5.71h0ZM94.56,79.38v-3.68c0-.48-.08-.83-.24-1.04-.16-.21-.41-.32-.74-.32-.29,0-.52.07-.71.21-.19.14-.34.28-.45.42v4.4h-.96v-5.71h.88v.64h.02s.08-.12.15-.21c.08-.09.18-.18.31-.26.13-.08.28-.16.45-.22.17-.06.37-.1.6-.1.25,0,.48.04.69.11.21.08.38.2.52.36.14.17.25.38.33.65.08.27.12.59.12.98v3.75h-.96ZM96.7,76.6c0-.58.08-1.06.23-1.45.15-.39.35-.7.58-.94.24-.24.51-.41.81-.51.3-.1.6-.15.9-.15.18,0,.34.01.48.04.13.03.25.06.33.1v-2.74l.96-.11v8.52h-.88v-.61h-.02s-.07.11-.13.2c-.06.08-.15.17-.26.25s-.25.15-.42.21c-.17.06-.36.09-.58.09-.27,0-.53-.05-.77-.16-.24-.11-.45-.28-.64-.51-.18-.23-.33-.54-.43-.9-.11-.37-.16-.82-.16-1.34h0ZM98.96,78.66c.15,0,.29-.02.4-.06s.22-.09.31-.15c.09-.06.16-.12.22-.18.06-.06.11-.12.14-.17v-3.52c-.09-.06-.19-.1-.3-.14-.12-.04-.26-.06-.43-.06-.22,0-.43.04-.62.11-.19.08-.36.2-.51.37-.14.17-.26.4-.34.68-.08.28-.12.62-.12,1.02s.03.73.1.99c.07.27.16.48.28.64.12.16.25.28.4.35.15.07.31.11.48.11h0ZM106.67,77.53c0,.36-.04.66-.13.91-.09.25-.21.45-.36.61-.15.15-.34.27-.57.33-.22.07-.47.1-.74.1-.2,0-.36-.02-.48-.07-.12-.04-.21-.08-.26-.11l.17-.86s.11.06.2.1c.08.03.19.05.33.05.27,0,.47-.08.61-.25.13-.17.2-.47.2-.92v-6.26h1.04v6.37h0ZM112.3,79.38h-.88v-.64h-.02s-.08.12-.15.21c-.08.09-.18.18-.3.26-.12.08-.27.16-.45.22-.17.06-.37.1-.58.1-.25,0-.48-.04-.68-.11-.2-.08-.37-.2-.52-.36-.14-.17-.25-.38-.33-.65-.08-.27-.11-.59-.11-.98v-3.75h.96v3.68c0,.48.08.82.23,1.02.15.2.39.3.72.3.28,0,.51-.07.7-.21.19-.14.34-.28.45-.41v-4.38h.96v5.71h0ZM117.87,74.42h-.71c.18.3.27.64.27,1.02,0,.3-.05.57-.15.82-.1.24-.24.45-.42.61-.18.17-.39.29-.63.38-.24.09-.5.13-.78.13h-.15s-.1,0-.15-.01c-.1.04-.19.1-.3.19-.1.09-.15.2-.15.35,0,.12.05.22.14.29.09.08.24.11.45.11h.73c.27,0,.52.03.75.08.23.06.43.14.6.27.17.12.3.28.4.47.1.19.14.42.14.69,0,.31-.07.59-.2.84-.13.25-.32.47-.55.65-.24.18-.53.33-.87.43-.34.1-.72.15-1.14.15-.61,0-1.07-.13-1.39-.4-.32-.27-.48-.65-.48-1.15,0-.21.04-.4.11-.55.08-.15.16-.29.27-.4.1-.12.21-.21.32-.27.11-.07.19-.12.26-.16v-.02c-.25-.18-.37-.45-.37-.8,0-.15.03-.28.09-.39.06-.11.13-.2.2-.27.08-.07.15-.13.23-.17.08-.04.13-.07.17-.09v-.02c-.29-.13-.53-.35-.71-.64-.18-.29-.27-.66-.27-1.11,0-.32.05-.6.15-.84.1-.24.24-.44.42-.6.17-.16.38-.28.61-.36.23-.08.49-.12.76-.12s.52.05.76.14h1.74l-.13.75h0ZM115.22,79.2c-.17,0-.31-.01-.44-.04-.07.04-.14.09-.21.14-.07.06-.13.12-.18.2-.06.08-.1.17-.14.28-.04.11-.05.23-.05.37,0,.61.34.92,1.01.92.58,0,1.01-.11,1.29-.34s.42-.49.42-.78c0-.28-.09-.47-.26-.59-.17-.12-.41-.17-.7-.17h-.73ZM116.49,75.44c0-.41-.1-.71-.29-.88-.19-.17-.42-.26-.68-.26-.28,0-.52.09-.71.26-.2.17-.3.47-.3.88s.1.71.3.88.43.26.69.26c.28,0,.51-.09.71-.26.19-.17.29-.47.29-.88h0ZM122.56,75.59c0,.25,0,.46-.02.64-.02.18-.03.34-.05.47h-2.92c.03.67.18,1.17.43,1.49.26.32.63.48,1.11.48.17,0,.32-.02.45-.06.13-.04.25-.09.35-.14.1-.06.18-.11.25-.17.07-.06.12-.1.15-.13l.36.68s-.1.1-.18.17c-.08.08-.19.15-.32.23-.13.08-.3.14-.5.2-.2.06-.43.08-.7.08-.36,0-.68-.06-.97-.18-.29-.12-.54-.3-.74-.55-.2-.25-.36-.57-.47-.95-.11-.38-.17-.85-.17-1.39,0-.51.06-.95.17-1.32.12-.37.27-.67.47-.91.2-.24.43-.41.69-.53.26-.12.54-.17.84-.17.55,0,.98.17,1.29.52.31.35.46.86.46,1.55h0ZM120.75,74.31c-.34,0-.61.14-.82.43-.21.29-.33.7-.36,1.24h2.08s.01-.1.02-.17c0-.08,0-.16,0-.24,0-.4-.08-.7-.24-.92-.16-.22-.39-.33-.69-.33h0ZM126.96,79.38v-3.68c0-.48-.08-.83-.24-1.04-.16-.21-.41-.32-.74-.32-.29,0-.52.07-.71.21s-.34.28-.45.42v4.4h-.96v-5.71h.88v.64h.02s.08-.12.15-.21c.08-.09.18-.18.31-.26.13-.08.28-.16.45-.22.17-.06.37-.1.6-.1.25,0,.48.04.69.11.21.08.38.2.52.36.14.17.25.38.33.65.08.27.12.59.12.98v3.75h-.96ZM129.1,76.6c0-.58.08-1.06.23-1.45.15-.39.35-.7.58-.94.24-.24.51-.41.81-.51.3-.1.6-.15.9-.15.18,0,.34.01.48.04.13.03.25.06.33.1v-2.74l.96-.11v8.52h-.88v-.61h-.02s-.07.11-.13.2c-.06.08-.15.17-.26.25-.11.08-.25.15-.42.21-.17.06-.36.09-.58.09-.27,0-.53-.05-.77-.16-.24-.11-.45-.28-.64-.51-.18-.23-.33-.54-.43-.9-.11-.37-.16-.82-.16-1.34h0ZM131.36,78.66c.15,0,.29-.02.4-.06s.22-.09.31-.15c.09-.06.16-.12.22-.18.06-.06.11-.12.14-.17v-3.52c-.09-.06-.19-.1-.3-.14-.12-.04-.26-.06-.43-.06-.22,0-.43.04-.62.11-.19.08-.36.2-.51.37-.14.17-.26.4-.34.68s-.13.62-.13,1.02.03.73.1.99c.07.27.16.48.28.64.12.16.25.28.4.35.15.07.31.11.48.11h0Z"/><polygon class="cls-4" points="77.23 87.38 78.73 87.38 78.73 107.38 75.23 107.38 75.23 87.38 77.23 87.38 77.23 87.38"/><polygon class="cls-5" points="77.23 67.28 78.73 67.28 78.73 87.38 75.23 87.38 75.23 67.28 77.23 67.28 77.23 67.28"/><path class="cls-3" d="M66.12,54.37c1.02,1.62,1.83,1.59,3.04,1.59-1-.77-1.66-1.75-1.98-2.25l-1.87-2.99c-.18-.92-.66-1.79-1.38-2.43.24-.09.44-.19.56-.28-1.22,0-2.43-.62-3.1-.62-.43,0-.7.26-.7.59.03.38.42.76,1.13.76.16,0,.37-.02.6-.06.39.54.7,1.03.7,1.73,0,1.31-1.57,2.33-3.15,2.33-.09,0-.17,0-.26-.01-.14-.32-.62-.87-.62-1.49,0-1.04.68-1.89.68-2.92,0-.64-.31-1.04-.43-1.2.19-.18.41-.4.46-.55-.11.05-.25.06-.44.06-.76,0-1.38-.2-1.98-.2-.34,0-.44.11-.44.21,0,.04,0,.07.02.09-.13-.05-.25-.08-.39-.11-.18-.03-.37-.05-.57-.05-.73,0-.99.31-.99.57,0,.22.18.63.37.94.29-.14.63-.24.78-.24.39,0,.73.37.92.81-.26.03-.31.04-.58.04-.71,0-1.2-.26-1.3-.26,0,0-.03,0-.03.02,0,.1.2.36.6.51.52.19,1.31.27,1.44.29,0,.02-.13.27-.28.32-.03.01-.06.01-.09,0-.55-.11-.7-.15-1.4-.42-.02,0-.03,0-.03.03,0,.27.71.88,1.35,1.11-.53.68-1.2,1.38-1.51,2.44-.09,0-.17.01-.26.01-1.58,0-3.15-1.02-3.15-2.33,0-.7.31-1.19.7-1.73.23.04.44.06.6.06.72,0,1.1-.38,1.13-.76,0-.34-.28-.59-.7-.59-.67,0-1.88.62-3.1.62.12.09.32.19.56.28-.72.64-1.19,1.51-1.38,2.43l-1.87,2.99c-.31.5-.98,1.48-1.98,2.25,1.21,0,2.01.03,3.04-1.59l.96-1.53c.07.2.16.39.26.58l-1.91,3.05c-.32.51-.97,1.48-1.98,2.25,1.21,0,2.01.03,3.04-1.59l1.64-2.63c.12.13.25.26.39.38l-2.32,3.71c-.32.51-.97,1.48-1.98,2.25,1.21,0,2.01.03,3.04-1.59l2.26-3.62c.15.09.3.19.46.27l-2.76,4.41c-.32.51-.97,1.48-1.98,2.25,1.21,0,2.01.03,3.04-1.59l2.84-4.54c.17.06.34.13.51.18l-3.21,5.13c-.31.5-.98,1.49-1.98,2.25,1.21,0,2.01.03,3.04-1.59l3.42-5.47s.07.01.1.02c.09.3.16.57.16.85,0,1.72-1.13,3.24-2.48,4.41.09.04.24.05.38.05.28,0,.46-.01.59-.04-.31.71-.99,1.63-1.33,2.11-.44-.08-1.09-.14-1.51-.14s-.49.26-.49.49c0,.4.19.72.41.9.08-.21.25-.48,1.06-.48.02,0,.04,0,.08,0-.24.27-.99.87-.99,1.36,0,.32.35.8.82.8-.03-.1-.02-.2-.02-.27,0-.39.35-.86.64-1.18,0,.1,0,.09,0,.2,0,.93.08,1.36.68,1.36.29,0,.49-.16.56-.21-.38-.35-.4-.63-.4-1.15,0-.14,0-.27,0-.45,0-.12,0-.28-.02-.39.21-.03.3-.03.46-.03,0,0,.84-.07,1.04.37.23-.21.56-.5.56-.83,0-.21-.1-.46-.53-.46-.16,0-.68.1-1.11.1.12-.26.63-1.01,1.08-1.56.07.21.17.44.41.63.03-.35.24-1.46.79-2.12.06.44.15.89.15,1.84,0,2.31-.56,4.02-1.74,4.35.15.27.48.51.82.51.43,0,.67-.49.91-.95.13.34.47,1.17.82,1.17s.69-.83.82-1.17c.24.46.48.95.91.95.34,0,.66-.24.82-.51-1.18-.33-1.74-2.04-1.74-4.35,0-.95.09-1.4.15-1.84.55.65.76,1.76.79,2.12.23-.19.34-.42.41-.63.45.55.96,1.3,1.08,1.56-.43,0-.95-.1-1.11-.1-.43,0-.53.24-.53.46,0,.33.33.62.56.83.2-.44,1.04-.37,1.04-.37.16,0,.25,0,.46.03-.02.11-.02.27-.02.39,0,.18,0,.32,0,.45,0,.52-.02.8-.4,1.15.07.05.27.21.56.21.59,0,.68-.43.68-1.36,0-.11,0-.1,0-.2.29.32.64.78.64,1.18,0,.07,0,.17-.02.27.47,0,.82-.48.82-.8,0-.49-.75-1.09-.99-1.36.04,0,.07,0,.08,0,.82,0,.98.27,1.06.48.22-.18.41-.5.41-.9,0-.23-.05-.49-.49-.49s-1.07.06-1.51.14c-.34-.48-1.01-1.4-1.33-2.11.13.02.31.04.59.04.14,0,.29-.01.38-.05-1.35-1.17-2.48-2.69-2.48-4.41,0-.28.07-.55.16-.85.03,0,.07-.01.1-.02l3.42,5.47c1.02,1.62,1.83,1.59,3.04,1.59-1-.76-1.67-1.75-1.98-2.25l-3.21-5.13c.17-.06.34-.12.51-.18l2.84,4.54c1.02,1.62,1.83,1.59,3.04,1.59-1.01-.77-1.66-1.74-1.98-2.25l-2.76-4.41c.16-.09.31-.18.46-.27l2.26,3.62c1.02,1.62,1.83,1.59,3.03,1.59-1.01-.77-1.66-1.74-1.98-2.25l-2.32-3.71c.14-.12.27-.25.39-.38l1.64,2.63c1.02,1.62,1.83,1.59,3.04,1.59-1.01-.77-1.66-1.75-1.98-2.25l-1.91-3.05c.1-.19.19-.38.26-.58l.96,1.53h0ZM50.81,50.86c0-1.14.83-2.04,1.12-2.3.07.02.14.03.21.05-.31.38-.86,1.01-.86,1.85,0,1.67,1.78,3.12,3.8,3.12-.01.14-.02.29-.02.45,0,.25.01.48.04.69-2.28-.01-4.29-1.87-4.29-3.86h0ZM53.91,64.53v.04s.03,0,.03,0c.64,0,.95-.05,1.16-.08.11-.01.19-.03.27-.03.17,0,.29.02.29.22,0,.14-.16.35-.32.48-.24-.22-.56-.27-1.04-.27-.22,0-.52.04-.68.06h-.02s-.03,0-.03,0v.08c.03.13.05.3.05.52v.2s0,.25,0,.25c0,.54.07.85.27,1.09-.05.02-.13.03-.18.03-.34,0-.44-.15-.44-1.12,0-.2-.01-.38-.02-.5v-.18s-.05.03-.05.03c-.5.38-1.02,1.07-1.05,1.58-.15-.1-.32-.32-.32-.48,0-.28.42-.7.91-1.18l.28-.28.04-.04-.09-.02c-.1-.03-.3-.08-.46-.08-.55,0-.89.1-1.1.33-.08-.11-.14-.36-.14-.51,0-.1.02-.16.06-.2.05-.05.12-.05.19-.05h.01c.6,0,1.32.11,1.6.15h.02s.01,0,.01,0c.05-.07,1.19-1.59,1.49-2.4.07-.03.13-.04.25-.04.23,0,.29.15.35.38-.72.87-1.16,1.54-1.32,2.01h0ZM60.08,62.13c.12,0,.18.02.25.04.3.81,1.44,2.33,1.49,2.4h.01s.02,0,.02,0c.28-.04,1-.15,1.6-.15h.01c.07,0,.14,0,.19.05.04.04.06.11.06.2,0,.15-.06.4-.14.51-.21-.23-.55-.33-1.1-.33-.16,0-.36.05-.46.08h-.04s-.05.02-.05.02l.32.32c.49.49.91.9.91,1.18,0,.17-.16.39-.31.48-.03-.51-.55-1.2-1.05-1.58l-.04-.03v.18c-.02.12-.03.31-.03.5,0,.97-.1,1.12-.44,1.12-.05,0-.13-.01-.18-.03.19-.23.27-.54.27-1.09v-.25s0-.2,0-.2c0-.22.02-.39.04-.52v-.08s-.04,0-.04,0c-.16-.02-.45-.06-.68-.06-.48,0-.81.04-1.04.27-.16-.13-.32-.34-.32-.48,0-.2.13-.22.29-.22.08,0,.16.01.27.03.21.03.52.08,1.16.08h.04v-.04c-.17-.46-.62-1.14-1.34-2.01.06-.23.13-.38.35-.38h0ZM57.43,48.83c-.07-.3-.22-.6-.42-.83-.18-.21-.47-.45-.86-.45-.18,0-.48.08-.67.16-.07-.13-.21-.44-.21-.58s.25-.29.71-.29c1.03,0,1.65.47,1.65,1.25,0,.27-.11.52-.21.75h0ZM57.89,47.82c-.04-.22-.12-.42-.25-.59,0-.2.09-.4.41-.24-.18.18-.04.5-.04.5,0,0,.36-.17.29-.4.53.13.15.84-.41.73h0ZM59.9,54.72c.03-.22.04-.46.04-.69,0-.13,0-.28-.01-.45,1.99-.03,3.74-1.46,3.74-3.12,0-.84-.55-1.47-.86-1.85.07-.01.14-.03.21-.05.29.25,1.12,1.16,1.12,2.3,0,1.98-1.98,3.82-4.24,3.86h0Z"/><polygon class="cls-3" points="78.73 47.38 78.73 67.38 77.23 67.38 75.23 67.38 75.23 47.38 78.73 47.38 78.73 47.38"/></g><g id="Name"><path class="cls-3" d="M34.68,20.3c-.26-.17-.78-.37-1.49-.37-1.52,0-3.03.98-3.03,3.5s1.18,3.65,2.84,3.65c.68,0,1.2-.13,1.57-.29v-2.4l-.74-.17c-.12-.02-.17-.06-.17-.13,0-.11.08-.25.13-.33h2.49s.01.05.01.11c0,.19-.1.34-.41.41l-.28.06v2.55c-.32.3-1.16.91-2.89.91-2.06,0-3.68-1.33-3.68-4.25,0-3.12,2.28-4.32,4.22-4.32,1.24,0,1.85.35,2.24.5.02.35.06,1.16.06,1.24,0,.32-.1.53-.36.53-.08,0-.17-.01-.26-.05l-.26-1.15Z"/><path class="cls-3" d="M38.21,24.73c.01,1.52.71,2.34,1.86,2.34.78,0,1.2-.34,1.48-.56.1.07.14.24.16.35,0,.3-.77.94-2.04.94-1.34,0-2.48-.83-2.48-2.91s1.25-3.13,2.53-3.13,1.96.83,1.96,2.01c0,.31-.06.66-.13.97h-3.32ZM40.59,24.16c.02-.1.06-.3.06-.5,0-.67-.26-1.28-1.06-1.28s-1.26.59-1.37,1.79h2.36Z"/><path class="cls-3" d="M45.95,22.52h-1.5v4.51l.84.16c.12.02.17.06.17.16,0,.12-.07.25-.12.31h-2.66s-.01-.05-.01-.08c0-.22.14-.32.37-.4l.44-.14v-4.51h-.91s-.01-.05-.01-.08c0-.23.14-.34.37-.4l.55-.14v-.18c0-1.91,1.04-2.84,2.03-2.84.5,0,.72.23.72.56,0,.22-.11.35-.2.44-.08-.05-.42-.22-.78-.22-.6,0-.79.3-.79,1.02v1.21h1.62l-.12.62Z"/><path class="cls-3" d="M52.03,24.71c0,2.06-1.44,3.08-2.83,3.08s-2.64-.96-2.64-2.96,1.42-3.08,2.87-3.08,2.6.9,2.6,2.96ZM47.62,24.77c0,1.61.72,2.36,1.67,2.36s1.69-.76,1.69-2.36-.74-2.38-1.69-2.38-1.67.77-1.67,2.38ZM48.27,20.85c-.32,0-.59-.24-.59-.61s.26-.61.59-.61.59.24.59.61-.26.61-.59.61ZM50.31,20.85c-.32,0-.59-.24-.59-.61s.26-.61.59-.61.59.24.59.61-.26.61-.59.61Z"/><path class="cls-3" d="M54.68,22.83h.04c.25-.38.7-1.08,1.52-1.08.56,0,.8.25.8.59,0,.23-.11.4-.19.5-.14-.06-.44-.18-.79-.18-.66,0-1.01.26-1.31.68v3.68l.84.16c.12.02.17.06.17.16,0,.12-.07.25-.12.31h-2.66s-.01-.05-.01-.08c0-.22.14-.32.37-.4l.44-.14v-4.47l-.88-.12s-.01-.05-.01-.1c0-.2.16-.35.44-.37l1.42-.14-.07,1.01Z"/><path class="cls-3" d="M62.51,26.99l.88.12s.01.05.01.1c0,.2-.16.35-.44.37l-1.34.14v-.76h-.04c-.28.38-.77.83-1.71.83-1.14,0-2.3-.7-2.3-2.85s1.51-3.19,2.95-3.19c.44,0,.8.08,1.03.16v-2.23l-.88-.12s-.01-.05-.01-.1c0-.2.16-.35.44-.37l1.42-.14v8.05ZM61.54,22.85c-.2-.2-.58-.43-1.15-.43-1.03,0-1.82.79-1.82,2.35s.68,2.24,1.58,2.24c.82,0,1.22-.35,1.39-.52v-3.65Z"/><path class="cls-3" d="M65.21,24.73c.01,1.52.71,2.34,1.86,2.34.78,0,1.2-.34,1.48-.56.1.07.14.24.16.35,0,.3-.77.94-2.04.94-1.34,0-2.48-.83-2.48-2.91s1.25-3.13,2.53-3.13,1.95.83,1.95,2.01c0,.31-.06.66-.13.97h-3.32ZM67.59,24.16c.02-.1.06-.3.06-.5,0-.67-.26-1.28-1.06-1.28s-1.26.59-1.37,1.79h2.36Z"/><path class="cls-3" d="M71.37,22.83h.04c.25-.38.7-1.08,1.52-1.08.56,0,.8.25.8.59,0,.23-.11.4-.19.5-.14-.06-.44-.18-.79-.18-.66,0-1.01.26-1.31.68v3.68l.84.16c.12.02.17.06.17.16,0,.12-.07.25-.12.31h-2.66s-.01-.05-.01-.08c0-.22.14-.32.37-.4l.44-.14v-4.47l-.88-.12s-.01-.05-.01-.1c0-.2.16-.35.44-.37l1.42-.14-.07,1.01Z"/><path class="cls-3" d="M77.64,22.52h-1.68v3.69c0,.46.16.89.78.89.47,0,.9-.23,1-.3.05.07.08.25.08.35,0,.11-.4.65-1.43.65s-1.4-.58-1.4-1.38v-3.9h-.91s-.01-.05-.01-.08c0-.23.14-.34.37-.4l.6-.14.23-1.61h.7v1.61h1.8l-.12.62Z"/><path class="cls-3" d="M85.75,22.49l-2.04,5.16h-.78l-2.06-5.19-.54-.18s-.01-.07-.01-.1c0-.19.16-.29.34-.29h1.95c.1,0,.14.05.14.12s-.06.22-.08.26l-.67.19,1.45,4.1h.02l1.57-4.1-.89-.19s-.01-.07-.01-.1c0-.19.16-.29.34-.29h1.79c.1,0,.14.05.14.12s-.06.22-.08.26l-.58.22Z"/><path class="cls-3" d="M92.23,24.71c0,2.06-1.44,3.08-2.83,3.08s-2.64-.96-2.64-2.96,1.42-3.08,2.87-3.08,2.6.9,2.6,2.96ZM87.82,24.77c0,1.61.72,2.36,1.67,2.36s1.69-.76,1.69-2.36-.74-2.38-1.69-2.38-1.67.77-1.67,2.38Z"/><path class="cls-3" d="M102.26,27.02l.72.16c.12.02.17.06.17.16,0,.12-.07.25-.12.31h-2.54s-.01-.05-.01-.08c0-.22.14-.32.37-.4l.44-.14v-3.07c0-1.09-.55-1.4-1.15-1.4-.85,0-1.28.35-1.61.65.04.22.07.44.07.7v3.13l.72.16c.12.02.17.06.17.16,0,.12-.07.25-.12.31h-2.54s-.01-.05-.01-.08c0-.22.14-.32.37-.4l.44-.14v-3.07c0-1.09-.55-1.4-1.15-1.4-.79,0-1.22.31-1.54.59v3.89l.72.16c.12.02.17.06.17.16,0,.12-.07.25-.12.31h-2.54s-.01-.05-.01-.08c0-.22.14-.32.37-.4l.44-.14v-4.47l-.88-.12s-.01-.05-.01-.1c0-.2.16-.35.44-.37l1.42-.14-.07.8h.04c.22-.23.8-.88,1.92-.88.7,0,1.25.34,1.54.96.31-.35.96-.96,2.05-.96s1.85.75,1.85,2.15v3.13Z"/><path class="cls-3" d="M104.7,23.07c-.36,0-.65-.25-.65-.65s.29-.67.65-.67.67.26.67.67-.3.65-.67.65ZM104.7,27.79c-.36,0-.65-.25-.65-.65s.29-.67.65-.67.67.26.67.67-.3.65-.67.65Z"/></g></svg>