<svg width="8801" height="8053" viewBox="0 0 8801 8053" fill="none" xmlns="http://www.w3.org/2000/svg">
<path d="M3444.9 0C3943 0.000212878 4365.1 325.38 4510.25 775.182C4733.75 775.35 4926.02 777.036 5085.51 793.261C5273.25 812.359 5453.34 854.401 5617.05 963.789C5739.26 1045.45 5844.19 1150.38 5925.85 1272.58C6035.24 1436.3 6077.28 1616.39 6096.38 1804.12C6113.73 1974.74 6114.45 2182.86 6114.47 2426.58V3522.8L5426.41 4144.86V2475.8C5426.41 2196.45 5425.99 2012.84 5411.84 1873.76C5398.28 1740.43 5375 1686.67 5353.74 1654.85C5322.77 1608.51 5283.12 1568.62 5236.98 1537.38L5234.78 1535.9C5202.97 1514.64 5149.21 1491.36 5015.88 1477.79C4893.47 1465.34 4736.56 1463.53 4510.26 1463.27C4365.11 1913.08 3943 2238.47 3444.9 2238.47H2669.69C2171.59 2238.47 1749.48 1913.08 1604.33 1463.27C1377.96 1463.53 1221.03 1465.34 1098.6 1477.79C967.348 1491.15 913.201 1513.91 881.197 1534.9L879.69 1535.9C833.347 1566.86 793.454 1606.51 762.213 1652.65L760.731 1654.85C739.476 1686.67 716.194 1740.43 702.631 1873.76C688.483 2012.84 688.066 2196.45 688.066 2475.8V6158C688.066 6533.16 688.797 6779.92 713.38 6962.77C736.269 7133.01 774.195 7197.13 812.527 7236.24L814.353 7238.08C853.302 7277.03 916.722 7315.8 1089.67 7339.06C1272.52 7363.64 1519.28 7364.37 1894.43 7364.37H4220.04C4595.2 7364.37 4841.96 7363.64 5024.8 7339.06C5197.75 7315.8 5261.17 7277.03 5300.12 7238.08H5300.12C5339.07 7199.13 5377.84 7135.71 5401.09 6962.77C5407.57 6914.58 5412.39 6861.96 5415.98 6803.71L5797.86 6728.44H5797.86L5797.86 6728.43C5860.62 6716.06 5985.49 6695.59 6110.99 6642.76C6107.22 6795.32 6099.37 6932.89 6083.02 7054.45C6049.51 7303.7 5974.76 7536.52 5786.66 7724.62C5598.56 7912.72 5365.73 7987.48 5116.48 8020.99C4892.09 8051.16 4613.18 8052.4 4286.09 8052.44H1828.38C1501.3 8052.4 1222.38 8051.16 997.987 8020.99C748.74 7987.48 515.917 7912.72 327.815 7724.62L327.816 7724.62C139.715 7536.52 64.9597 7303.7 31.4492 7054.45C1.28062 6830.06 0.0375778 6551.14 0 6224.06V2426.58C0.0221053 2182.86 0.740868 1974.74 18.0967 1804.12C37.1945 1616.39 79.2363 1436.3 188.625 1272.58C270.283 1150.38 375.212 1045.45 497.421 963.789C661.133 854.4 841.225 812.359 1028.96 793.261C1188.48 777.033 1380.79 775.35 1604.34 775.182C1749.49 325.379 2171.59 0.000210575 2669.69 0H3444.9ZM5893.93 6042.75C5893.82 6042.82 5893.71 6042.88 5893.59 6042.95C5893.71 6042.88 5893.82 6042.82 5893.93 6042.75ZM5896.55 6041.23C5896.34 6041.36 5896.13 6041.48 5895.92 6041.6C5896.13 6041.48 5896.34 6041.36 5896.55 6041.23ZM5898.67 6039.98C5898.49 6040.08 5898.31 6040.19 5898.14 6040.3C5898.31 6040.19 5898.49 6040.08 5898.67 6039.98ZM5900.85 6038.66C5900.74 6038.73 5900.63 6038.79 5900.52 6038.86C5900.73 6038.73 5900.93 6038.61 5901.14 6038.48C5901.04 6038.54 5900.94 6038.6 5900.85 6038.66ZM3444.89 5038.8C3634.9 5038.8 3788.93 5192.83 3788.93 5382.83C3788.93 5572.84 3634.9 5726.86 3444.89 5726.86H1894.49C1704.49 5726.86 1550.46 5572.83 1550.46 5382.83C1550.46 5192.83 1704.49 5038.8 1894.49 5038.8H3444.89ZM6114.47 4379.02L5426.41 5001.07V5001.07L6114.47 4379.02V4379.02ZM4220.1 3488.27C4410.1 3488.27 4564.13 3642.3 4564.13 3832.31C4564.13 4022.31 4410.1 4176.34 4220.1 4176.34H1894.49C1704.49 4176.34 1550.46 4022.31 1550.46 3832.31C1550.46 3642.3 1704.49 3488.27 1894.49 3488.27H4220.1ZM2669.69 688.066C2431.57 688.067 2238.53 881.108 2238.53 1119.23C2238.53 1357.36 2431.57 1550.4 2669.69 1550.4H3444.9C3683.02 1550.4 3876.06 1357.36 3876.06 1119.23C3876.06 881.108 3683.02 688.067 3444.9 688.066H2669.69Z" fill="white"/>
<path d="M6925.5 3399.56L7725.73 2922.43L8460.93 3735.66L7905.78 4483.87L6925.5 3399.56Z" fill="white"/>
<path d="M7281.53 2945.63C7483.49 2857.92 7714.83 2869.57 7906.96 2977.14L7909.59 2978.63C8020.81 3041.76 8110.83 3147.5 8193.21 3238.62L8201.03 3247.26C8282.25 3336.79 8374.86 3435.2 8424.59 3549.71C8512.3 3751.67 8500.64 3983.01 8393.07 4175.13C8332.09 4284.05 8230.06 4372.66 8140.25 4453.57L8131.6 4461.38L6257.8 6155.4C6191.16 6215.65 6115.91 6287.25 6021.37 6334.66L6021.37 6334.65C5926.83 6382.06 5824.45 6399.55 5736.31 6416.93L5736.31 6416.93L5736.31 6416.93L5218.58 6518.99C5158.29 6530.87 5077.49 6547.66 5008.32 6550.93C4935.22 6554.38 4786.91 6548.07 4672.52 6421.53L4672.52 6421.53C4558.12 6295 4566.75 6146.8 4577.53 6074.42C4587.73 6005.93 4612.56 5927.23 4630.45 5868.44L4784.03 5363.59C4810.18 5277.64 4837.87 5177.54 4894.54 5088.24L4895.87 5086.16C4952.44 4997.89 5030.53 4930.81 5096.65 4871.03L6970.45 3177.01C7062.28 3093.99 7163.34 2996.96 7281.53 2945.63L7281.53 2945.63Z" stroke="white" stroke-width="635.139"/>
<path d="M6925.5 3399.56L7725.73 2922.43L8460.93 3735.66L7905.78 4483.87L6925.5 3399.56Z" fill="white"/>
</svg>
