<?xml version="1.0" encoding="UTF-8"?>
<svg id="Ebene_2" data-name="Ebene 2" xmlns="http://www.w3.org/2000/svg" viewBox="0 0 8800.52 8052.44">
  <g id="Ebene_1-2" data-name="Ebene 1">
    <g>
      <path class="cls-1" d="M3444.89,5038.8h-1550.4c-190,0-344.03,154.03-344.03,344.03s154.03,344.03,344.03,344.03h1550.4c190.01,0,344.04-154.02,344.04-344.03s-154.03-344.03-344.04-344.03Z"/>
      <path class="cls-1" d="M4564.13,3832.31c0-190.01-154.03-344.04-344.03-344.04H1894.49c-190,0-344.03,154.03-344.03,344.04s154.03,344.03,344.03,344.03h2325.61c190,0,344.03-154.03,344.03-344.03Z"/>
      <path class="cls-1" d="M8784.34,3649.34c-13.98-77.64-37.01-153.72-68.46-226.13-67.96-156.5-178.04-277.57-266.5-374.86-4.34-4.77-8.65-9.52-12.94-14.24l-7.66-8.47c-6.78-7.5-13.6-15.09-20.49-22.76-86.98-96.76-195.23-217.17-341.93-300.44l-4.25-2.4c-68.88-38.57-142.26-69.13-218.11-90.85-74.87-21.44-152.28-34.29-230.09-38.21-77.81-3.92-156.12,1.09-232.76,14.89-77.64,13.98-153.72,37.02-226.12,68.46h0c-156.49,67.96-277.58,178.06-374.87,266.52-7.62,6.93-15.18,13.8-22.67,20.57l-643.01,581.32v-1096.17c-.02-243.72-.74-451.84-18.09-622.46-19.1-187.73-61.14-367.82-170.53-531.54-81.66-122.2-186.59-227.13-308.8-308.79-163.71-109.39-343.8-151.43-531.54-170.53-159.49-16.22-351.76-17.91-575.26-18.08C4365.1,325.38,3943,0,3444.9,0h-775.21c-498.1,0-920.2,325.38-1065.35,775.18-223.55.17-415.86,1.85-575.38,18.08-187.73,19.1-367.83,61.14-531.54,170.53-122.21,81.66-227.14,186.59-308.8,308.79-109.39,163.72-151.43,343.81-170.53,531.54C.74,1974.74.02,2182.86,0,2426.58v3797.48c.04,327.08,1.28,606,31.45,830.39,33.51,249.25,108.27,482.07,296.37,670.17h0c188.1,188.1,420.92,262.86,670.17,296.37,224.39,30.17,503.31,31.41,830.39,31.45h2457.71c327.09-.04,606-1.28,830.39-31.45,249.25-33.51,482.08-108.27,670.18-296.37,188.1-188.1,262.85-420.92,296.36-670.17,16.27-120.96,24.12-257.78,27.91-409.44l52.8-26.48c126.09-63.23,221.88-150.23,291.82-213.76,5.13-4.66,10.2-9.27,15.22-13.8l1873.8-1694.02h0s8.49-7.66,8.49-7.66h0c4.71-4.24,9.46-8.51,14.23-12.8,97.8-87.92,219.53-197.34,302.88-346.22,38.57-68.88,69.13-142.26,90.85-218.1,21.44-74.87,34.29-152.28,38.22-230.08,3.92-77.81-1.09-156.12-14.89-232.76ZM2669.69,688.07h775.21c238.12,0,431.16,193.04,431.16,431.16s-193.04,431.17-431.16,431.17h-775.21c-238.12,0-431.16-193.04-431.16-431.17s193.04-431.16,431.16-431.16ZM5300.12,7238.08c-38.95,38.95-102.37,77.72-275.32,100.98-182.84,24.58-429.6,25.31-804.76,25.31H1894.43c-375.15,0-621.91-.73-804.76-25.31-172.95-23.26-236.37-62.03-275.32-100.98l-1.83-1.84c-38.33-39.11-76.26-103.23-99.15-273.47-24.58-182.85-25.31-429.61-25.31-804.77v-3682.2c0-279.35.42-462.96,14.57-602.04,13.56-133.33,36.85-187.09,58.1-218.91l1.48-2.2c31.24-46.14,71.13-85.79,117.48-116.75l1.51-1c32-20.99,86.15-43.75,217.4-57.11,122.43-12.45,279.36-14.26,505.73-14.52,145.15,449.81,567.26,775.2,1065.36,775.2h775.21c498.1,0,920.21-325.39,1065.36-775.2,226.3.26,383.21,2.07,505.62,14.52,133.33,13.57,187.09,36.85,218.9,58.11l2.2,1.48c46.14,31.24,85.79,71.13,116.76,117.47,21.26,31.82,44.54,85.58,58.1,218.91,14.15,139.08,14.57,322.69,14.57,602.04v1669l-542.74,490.67c-5.04,4.55-10.15,9.15-15.31,13.8-69.49,62.54-164.65,148.18-239.86,265.54l-2.09,3.27c-75.56,119.07-112.94,242.94-140.24,333.38-2,6.64-3.98,13.21-5.96,19.7l-153.57,504.83c-1.22,4-2.47,8.1-3.75,12.28-19.62,64.27-46.49,152.28-59.46,239.37-13.02,87.39-12.41,173.04,1.81,254.57,10.61,60.84,28.84,119.61,54.2,174.69,29.65,64.39,69.19,124.14,117.5,177.58,48.33,53.46,103.81,98.81,164.89,134.78,52.25,30.77,108.9,54.82,168.36,71.49,67.27,18.86,138.42,28.36,212.07,28.36,13.6,0,27.3-.32,41.06-.97,87.87-4.15,178.08-22.02,243.95-35.06,4.33-.86,8.57-1.7,12.74-2.52l135.98-26.81c-3.59,58.23-8.41,110.84-14.89,159.01-23.25,172.94-62.02,236.36-100.97,275.31ZM6044.82,5919.83c-5.38,4.86-10.8,9.79-16.29,14.78-49.16,44.65-99.98,90.8-147.69,115.25l-1.82.92c-48.25,24.2-116.51,37.49-182.52,50.35-7.29,1.42-14.5,2.83-21.6,4.23l-517.71,102.06c-4.34.85-8.78,1.73-13.31,2.63-46.34,9.18-109.8,21.75-150.53,23.67-59.97,2.82-77.04-16.07-85.27-25.17-8.21-9.08-25.29-27.97-16.45-87.34,6.01-40.36,24.91-102.26,38.71-147.46,1.34-4.38,2.65-8.66,3.93-12.88l153.58-504.84c2.11-6.94,4.23-13.97,6.38-21.07,19.38-64.23,39.42-130.64,68.23-176.21l.91-1.42c29.02-45.19,80.29-91.33,129.87-135.95,5.53-4.98,11-9.9,16.38-14.77l1738.35-1571.57,735.21,813.23-1738.36,1571.57Z"/>
    </g>
  </g>
</svg>