<svg width="8209" height="8818" viewBox="0 0 8209 8818" fill="none" xmlns="http://www.w3.org/2000/svg">
<path d="M3468.38 290.18C4167.08 290.18 4817.51 496.776 5361.95 852.217C5221.57 1015.65 5085.81 1178.98 4954.95 1340.86C4522.62 1074.47 4013.45 920.794 3468.38 920.794C1901.12 920.795 630.614 2191.3 630.614 3758.56C630.615 5308.95 1873.95 6568.95 3417.92 6595.88C3396.34 6807.59 3419.76 7022.85 3488.18 7226.88C3481.58 7226.91 3474.98 7226.93 3468.38 7226.93C1552.85 7226.93 0.000264471 5674.09 0 3758.56C6.42094e-05 1843.03 1552.85 290.18 3468.38 290.18ZM6599.96 2265.77C6815.87 2717.9 6936.75 3224.11 6936.75 3758.56C6936.75 3957.09 6920.07 4151.72 6888.04 4341.14C6784.99 4317.12 6678.62 4303.8 6570.48 4302.08L6255.11 4297.05C6288.6 4122.7 6306.14 3942.68 6306.14 3758.56C6306.14 3431.74 6250.89 3117.82 6149.22 2825.64C6293.13 2640.55 6443.56 2453.14 6599.96 2265.77Z" fill="white"/>
<path d="M2033.1 3287.45C2541.5 4391.91 3234.04 5286.83 3524.39 4990.2C3681.02 4830.19 5136.1 2218.06 7204.76 254.579" stroke="white" stroke-width="701.989"/>
<path d="M4213.56 7138.64C4078.64 6896.1 4078.64 6601.05 4213.56 6358.5L4484.22 5871.95L4770.26 5394.27C4912.85 5156.15 5168.37 5008.63 5445.88 5004.2L6002.58 4995.32L6559.28 5004.2C6836.79 5008.63 7092.31 5156.15 7234.9 5394.27L7520.94 5871.95L7791.6 6358.5C7926.52 6601.05 7926.52 6896.1 7791.6 7138.64L7520.94 7625.2L7234.9 8102.87C7092.31 8340.99 6836.79 8488.52 6559.28 8492.94L6002.58 8501.82L5445.88 8492.94C5168.37 8488.52 4912.85 8340.99 4770.26 8102.87L4484.22 7625.2L4213.56 7138.64Z" stroke="white" stroke-width="631.118"/>
<path d="M5343.86 7173.19L5685.52 6294.65L6027.17 7173.19" stroke="white" stroke-width="439.271" stroke-linecap="round" stroke-linejoin="round"/>
<path d="M6547.62 6294.65V7173.19" stroke="white" stroke-width="439.271" stroke-linecap="round" stroke-linejoin="round"/>
</svg>
