<?xml version="1.0" encoding="UTF-8"?>
<svg id="Ebene_2" data-name="Ebene 2" xmlns="http://www.w3.org/2000/svg" viewBox="0 0 8208.35 8817.42">
  <g id="Ebene_1-2" data-name="Ebene 1">
    <path class="cls-1" d="M3468.38,290.18c698.7,0,1349.13,206.6,1893.57,562.04-140.38,163.43-276.14,326.76-407,488.64-432.33-266.39-941.5-420.07-1486.57-420.07-1567.26,0-2837.77,1270.51-2837.77,2837.77,0,1550.39,1243.34,2810.39,2787.31,2837.32-21.58,211.71,1.84,426.97,70.26,631-6.6.03-13.2.05-19.8.05C1552.85,7226.93,0,5674.09,0,3758.56,0,1843.03,1552.85,290.18,3468.38,290.18ZM6599.96,2265.77c215.91,452.13,336.79,958.34,336.79,1492.79,0,198.53-16.68,393.16-48.71,582.58-103.05-24.02-209.42-37.34-317.56-39.06l-315.37-5.03c33.49-174.35,51.03-354.37,51.03-538.49,0-326.82-55.25-640.74-156.92-932.92,143.91-185.09,294.34-372.5,450.74-559.87Z"/>
    <path class="cls-1" d="M3390.39,5398.67c-33.04,0-66.53-2.93-100.35-8.79-150.8-26.14-302.62-109.36-464.11-254.41-122.16-109.72-251.74-256.98-385.14-437.69-124.52-168.68-250.72-363.96-375.07-580.42-123.51-214.98-241.76-444.83-351.46-683.15l637.67-293.53c192.33,417.82,415.34,810.24,627.94,1104.98,102.34,141.88,198.37,256.24,285.42,339.9,27.53,26.46,51.22,46.96,71.14,62.78,39.13-59.94,89.25-138.51,147.03-229.1,267.3-419.07,714.68-1120.47,1307.16-1920.66,328.82-444.11,662.85-864.6,992.81-1249.78C6175.92,790.61,6572.83,370.46,6963.13,0l483.27,509.16c-372.86,353.9-752.99,756.4-1129.83,1196.32-319.2,372.63-642.78,780.01-961.76,1210.82-577.94,780.56-1017.1,1469.07-1279.49,1880.44-188.17,295.01-244.88,382.57-300.09,438.98-65.49,66.91-142.72,114.1-229.53,140.25-50.2,15.12-102.15,22.7-155.29,22.7Z"/>
    <path class="cls-1" d="M6002.58,8817.42l-561.73-8.96c-95.44-1.52-190.41-15.27-282.27-40.87-90.43-25.2-177.53-61.8-258.88-108.76s-156.59-104.1-223.63-169.82c-68.1-66.75-127.49-142.12-176.54-224.02l-288.62-481.99-2.45-4.4-270.66-486.56c-46.41-83.42-81.98-172.54-105.74-264.89-23.39-90.92-35.25-184.64-35.25-278.58s11.86-187.66,35.25-278.58c23.76-92.35,59.33-181.47,105.74-264.89l273.11-490.95,2.58-4.32,286.04-477.68c49.04-81.9,108.44-157.27,176.54-224.02,67.04-65.71,142.28-122.85,223.63-169.81,81.35-46.96,168.45-83.56,258.88-108.76,91.85-25.6,186.82-39.35,282.27-40.88l561.74-8.96,561.73,8.96c95.45,1.52,190.42,15.28,282.27,40.88,90.43,25.2,177.53,61.8,258.88,108.76,81.35,46.97,156.59,104.1,223.63,169.81,68.1,66.75,127.5,142.12,176.54,224.02l288.62,482,2.45,4.4,270.66,486.55c46.41,83.43,81.98,172.55,105.74,264.9,23.39,90.92,35.25,184.64,35.25,278.58s-11.86,187.66-35.25,278.58c-23.76,92.35-59.33,181.47-105.74,264.89l-273.11,490.96-2.59,4.32-286.04,477.67c-49.04,81.9-108.44,157.27-176.53,224.02-67.04,65.72-142.28,122.85-223.63,169.82-81.35,46.97-168.45,83.56-258.88,108.76-91.86,25.6-186.83,39.35-282.28,40.87l-561.73,8.96ZM4757.53,7467.4l283.46,473.36c42.45,70.89,102.71,130.2,174.27,171.51,71.55,41.31,153.04,63.84,235.65,65.16l551.67,8.8,551.67-8.8c82.62-1.32,164.1-23.85,235.66-65.16,71.56-41.31,131.82-100.62,174.26-171.51l283.46-473.36,268.21-482.16c40.17-72.2,61.39-154.04,61.39-236.67s-21.23-164.47-61.4-236.68l-268.21-482.14-283.46-473.37c-42.45-70.88-102.71-130.19-174.26-171.5-71.56-41.31-153.05-63.85-235.66-65.17l-551.66-8.8-551.67,8.8c-82.61,1.32-164.1,23.85-235.66,65.17-71.55,41.31-131.81,100.62-174.26,171.5l-283.46,473.37-268.21,482.15c-40.16,72.2-61.39,154.04-61.39,236.67s21.23,164.46,61.4,236.67h0s268.21,482.16,268.21,482.16Z"/>
    <path class="cls-1" d="M5343.86,7392.82c-26.98,0-53.97-4.97-79.61-14.93-54.29-21.11-97.97-62.93-121.43-116.25-23.46-53.32-24.78-113.77-3.67-168.06l341.66-878.54c32.83-84.42,114.13-140.03,204.7-140.03,0,0,0,0,0,0,90.58,0,171.87,55.61,204.7,140.03l341.65,878.54c21.11,54.29,19.79,114.74-3.67,168.06-23.46,53.32-67.14,95.13-121.43,116.25-54.29,21.11-114.74,19.79-168.06-3.67s-95.13-67.14-116.25-121.43l-136.95-352.17-136.96,352.17c-21.11,54.29-62.93,97.97-116.25,121.43-28.15,12.38-58.29,18.6-88.46,18.6Z"/>
    <path class="cls-1" d="M6547.62,7392.82c-58.25,0-114.12-23.14-155.31-64.33s-64.33-97.05-64.33-155.31v-878.54c0-58.25,23.14-114.12,64.33-155.31s97.05-64.33,155.31-64.33,114.12,23.14,155.31,64.33,64.33,97.05,64.33,155.31v878.54c0,58.25-23.14,114.12-64.33,155.31s-97.05,64.33-155.31,64.33Z"/>
  </g>
</svg>