<?xml version="1.0" encoding="UTF-8"?>
<svg id="Ebene_2" data-name="Ebene 2" xmlns="http://www.w3.org/2000/svg" viewBox="0 0 8174.44 8187.95">
  <g id="Ebene_1-2" data-name="Ebene 1">
    <path class="cls-1" d="M7604.2,6433.13c-92.91,0-182.55-35.19-250.73-98.77-71.31-66.5-113.29-158.61-116.69-256.06-3.4-97.45,32.05-192.26,98.55-263.57,63.93-68.55,126.09-140.37,184.75-213.45,61.04-76.04,149.79-124.72,246.72-135.32,96.93-10.6,194.11,17.73,270.15,78.77,76.04,61.04,124.72,149.79,135.32,246.72,10.61,96.93-17.73,194.11-78.77,270.14-69.98,87.18-144.13,172.84-220.39,254.62-66.5,71.31-158.61,113.29-256.06,116.69-4.28.15-8.57.22-12.84.22ZM370.03,3723.6c-93.06,0-182.84-35.31-251.05-99.06-71.24-66.58-113.11-158.74-116.4-256.19-1.72-50.87-2.59-102.48-2.59-153.4,0-60.86,1.24-122.55,3.7-183.36,3.93-97.43,46.41-189.31,118.08-255.42,71.67-66.11,166.68-101.04,264.11-97.12,97.43,3.93,189.31,46.41,255.42,118.08,66.11,71.67,101.05,166.68,97.12,264.11-2.06,50.98-3.1,102.7-3.1,153.71,0,42.68.73,85.95,2.17,128.59,3.29,97.45-32.27,192.22-98.85,263.46-66.58,71.24-158.74,113.1-256.19,116.4-4.14.14-8.29.21-12.41.21Z"/>
    <path class="cls-1" d="M6793.35,922.45c-1229.94-1229.94-3224.07-1229.94-4454.01,0-1229.94,1229.94-1229.94,3224.07,0,4454.01,18.04,18.03,36.24,35.8,54.6,53.31,152.73,145.62,231.16,310.02,231.16,459.34,0,487.96,287.95,908.66,703.19,1101.48v421.58c0,428.45,347.33,775.78,775.78,775.78h886.6c428.45,0,775.78-347.33,775.78-775.78v-404.71c435.59-184.3,741.21-615.65,741.21-1118.38,0-149.33,78.44-313.74,231.16-459.37,18.33-17.49,36.51-35.23,54.52-53.24,1229.94-1229.94,1229.94-3224.07,0-4454.01ZM4990.67,7452.63h-886.6c-22.35,0-40.46-18.12-40.46-40.46v-309.27h967.53v309.27c0,22.35-18.12,40.46-40.46,40.46ZM6273.4,4856.51c-13.87,13.88-27.87,27.54-41.99,41.01-250.59,238.94-459.06,583.6-459.06,991.55,0,264.27-214.23,478.51-478.51,478.51h-1454.96c-264.24,0-478.46-214.22-478.46-478.47,0-407.94-208.47-752.59-459.07-991.52-14.15-13.49-28.16-27.17-42.06-41.07-942.78-942.78-942.78-2471.32,0-3414.11,942.78-942.78,2471.33-942.78,3414.11,0,942.78,942.78,942.78,2471.32,0,3414.11Z"/>
    <path class="cls-1" d="M4594.7,4361.92c-50.5,0-100.95-10.4-148.07-31.14-89.25-39.27-159.25-112.39-194.59-203.27l-261.44-672.28-261.44,672.28c-35.34,90.88-105.34,164-194.59,203.27-89.25,39.27-190.45,41.48-281.33,6.14-90.88-35.34-164-105.34-203.27-194.59-39.27-89.25-41.48-190.45-6.14-281.33l604.1-1553.4c54.96-141.32,191.03-234.4,342.66-234.4s287.7,93.08,342.66,234.4l604.1,1553.4c35.34,90.88,33.13,192.08-6.14,281.33-39.27,89.25-112.39,159.25-203.27,194.59-42.9,16.68-88.1,25-133.25,25Z"/>
    <path class="cls-1" d="M5515,4361.92c-97.51,0-191.02-38.74-259.98-107.69s-107.68-162.46-107.68-259.97v-1553.4c0-97.51,38.74-191.03,107.68-259.97,68.95-68.95,162.47-107.69,259.98-107.69s191.02,38.74,259.98,107.69c68.95,68.95,107.68,162.47,107.68,259.97v1553.4c0,97.51-38.74,191.02-107.68,259.97-68.95,68.95-162.47,107.69-259.98,107.69Z"/>
  </g>
</svg>