<svg width="8649" height="9210" viewBox="0 0 8649 9210" fill="none" xmlns="http://www.w3.org/2000/svg">
<path d="M2412.58 2431.55L2161.04 2180.01L2412.58 2431.55ZM6218.98 2431.55L6470.52 2180.01L6470.52 2180.01L6218.98 2431.55ZM6218.98 6237.95L6470.52 6489.49L6218.98 6237.95ZM6172.29 6283.55L5926.81 6026.09L5926.81 6026.09L6172.29 6283.55ZM5838.38 6985.46L5482.65 6985.46L5482.65 6985.46L5838.38 6985.46ZM5019.67 7804.17V7448.44V7804.17ZM2793.26 6985.5L3148.99 6985.5L3148.99 6985.5L2793.26 6985.5ZM2459.34 6283.61L2704.82 6026.15L2704.82 6026.15L2459.34 6283.61ZM2412.58 6237.95L2161.04 6489.49L2161.04 6489.49L2412.58 6237.95ZM2412.58 2431.55L2664.12 2683.09C3576.31 1770.9 5055.26 1770.9 5967.44 2683.09L6218.98 2431.55L6470.52 2180.01C5280.49 989.981 3351.07 989.981 2161.04 2180.01L2412.58 2431.55ZM6218.98 2431.55L5967.44 2683.09C6879.63 3595.28 6879.63 5074.22 5967.44 5986.41L6218.98 6237.95L6470.52 6489.49C7660.55 5299.46 7660.55 3370.04 6470.52 2180.01L6218.98 2431.55ZM6218.98 6237.95L5967.44 5986.41C5954.02 5999.84 5940.47 6013.06 5926.81 6026.09L6172.29 6283.55L6417.77 6541C6435.51 6524.08 6453.1 6506.91 6470.52 6489.49L6218.98 6237.95ZM6172.29 6283.55L5926.81 6026.09C5684.35 6257.28 5482.65 6590.75 5482.65 6985.46L5838.38 6985.46L6194.11 6985.46C6194.11 6840.98 6270 6681.9 6417.77 6541L6172.29 6283.55ZM5838.38 6985.46L5482.65 6985.46C5482.65 7241.15 5275.37 7448.44 5019.67 7448.44L5019.67 7804.17L5019.67 8159.9C5668.3 8159.9 6194.11 7634.08 6194.11 6985.46L5838.38 6985.46ZM5019.67 7804.17V7448.44H3611.92V7804.17V8159.9H5019.67V7804.17ZM3611.92 7804.17V7448.44C3356.25 7448.44 3148.99 7241.17 3148.99 6985.5L2793.26 6985.5L2437.53 6985.5C2437.53 7634.1 2963.32 8159.9 3611.92 8159.9V7804.17ZM2793.26 6985.5L3148.99 6985.5C3148.99 6590.8 2947.28 6257.33 2704.82 6026.15L2459.34 6283.61L2213.87 6541.07C2361.64 6681.96 2437.53 6841.03 2437.53 6985.5L2793.26 6985.5ZM2459.34 6283.61L2704.82 6026.15C2691.13 6013.1 2677.57 5999.86 2664.12 5986.41L2412.58 6237.95L2161.04 6489.49C2178.49 6506.94 2196.1 6524.13 2213.87 6541.07L2459.34 6283.61ZM2412.58 6237.95L2664.12 5986.41C1751.93 5074.22 1751.93 3595.28 2664.12 2683.09L2412.58 2431.55L2161.04 2180.01C971.013 3370.04 971.013 5299.46 2161.04 6489.49L2412.58 6237.95Z" fill="white"/>
<path d="M7255.07 7156.14C7800.56 6571.17 8160.34 5837.58 8288.91 5048.14C8417.48 4258.7 8309.07 3448.86 7977.38 2721.03C7645.69 1993.2 7105.62 1380.08 6425.47 959.191C5745.32 538.303 4955.64 328.553 4156.29 356.467C3356.93 384.381 2583.8 648.705 1934.67 1116.01C1285.54 1583.32 789.556 2232.63 509.445 2981.82C229.334 3731.01 177.675 4546.44 360.999 5324.99C544.323 6103.54 954.398 6810.24 1539.37 7355.73" stroke="white" stroke-width="711.459" stroke-linecap="round" stroke-linejoin="round" stroke-dasharray="299.56 15277.64"/>
<path d="M3473.63 7955.33H5121.22H3473.63ZM5476.95 8459.13C5476.95 8873.68 5140.89 9209.74 4726.34 9209.74H3868.51C3453.96 9209.74 3117.9 8873.68 3117.9 8459.13L3829.36 8459.13C3829.36 8480.75 3846.89 8498.28 3868.51 8498.28H4726.34C4747.96 8498.28 4765.49 8480.75 4765.49 8459.13L5476.95 8459.13ZM3868.51 9209.74C3453.96 9209.74 3117.9 8873.68 3117.9 8459.13V7955.33H3829.36V8459.13C3829.36 8480.75 3846.89 8498.28 3868.51 8498.28L3868.51 9209.74ZM5476.95 7955.33V8459.13C5476.95 8873.68 5140.89 9209.74 4726.34 9209.74L4726.34 8498.28C4747.96 8498.28 4765.49 8480.75 4765.49 8459.13V7955.33H5476.95Z" fill="white"/>
<path d="M3174.21 5152.14L3758.71 3649.15L4343.21 5152.14" stroke="white" stroke-width="711.459" stroke-linecap="round" stroke-linejoin="round"/>
<path d="M5233.65 3649.15V5152.14" stroke="white" stroke-width="711.459" stroke-linecap="round" stroke-linejoin="round"/>
</svg>
