<svg width="8649" height="9210" viewBox="0 0 8649 9210" xmlns="http://www.w3.org/2000/svg">
<path d="M2161.04 2180.01C3351.07 989.98 5280.49 989.981 6470.52 2180.01C7660.55 3370.04 7660.55 5299.46 6470.52 6489.49C6453.1 6506.91 6435.51 6524.08 6417.77 6541C6270 6681.9 6194.11 6840.98 6194.11 6985.46C6194.11 7471.87 5898.4 7889.22 5476.95 8067.54V8459.13C5476.95 8873.68 5140.89 9209.74 4726.34 9209.74H3868.51C3453.96 9209.74 3117.9 8873.68 3117.9 8459.13V8051.24C2716.13 7864.69 2437.53 7457.63 2437.53 6985.5C2437.53 6841.03 2361.63 6681.96 2213.86 6541.07C2196.1 6524.13 2178.49 6506.94 2161.04 6489.49C971.012 5299.46 971.012 3370.04 2161.04 2180.01ZM3829.36 8459.13C3829.36 8480.75 3846.89 8498.28 3868.51 8498.28H4726.34C4747.96 8498.28 4765.49 8480.75 4765.49 8459.13V8311.06H3829.36V8459.13ZM1263.86 7095.98C1398.66 6953.06 1623.8 6946.47 1766.72 7081.27C1771.79 7086.05 1776.87 7090.82 1781.97 7095.57C1925.66 7229.56 1933.52 7454.66 1799.53 7598.34C1665.54 7742.03 1440.44 7749.89 1296.76 7615.9C1290.68 7610.23 1284.62 7604.54 1278.57 7598.84C1135.65 7464.04 1129.06 7238.9 1263.86 7095.98ZM7009.12 6898.2C7142.29 6753.76 7367.34 6744.63 7511.78 6877.8C7656.22 7010.97 7665.36 7236.02 7532.19 7380.46C7526.55 7386.57 7520.9 7392.67 7515.24 7398.74C7381.25 7542.43 7156.15 7550.29 7012.46 7416.3C6868.78 7282.31 6860.92 7057.21 6994.91 6913.53C6999.66 6908.43 7004.4 6903.32 7009.12 6898.2ZM5967.44 2683.09C5055.25 1770.9 3576.31 1770.9 2664.12 2683.09C1751.93 3595.27 1751.93 5074.22 2664.12 5986.41C2677.56 5999.86 2691.13 6013.1 2704.81 6026.15C2947.28 6257.33 3148.99 6590.79 3148.99 6985.5L3149 6988.5C3150.61 7242.79 3357.25 7448.44 3611.92 7448.44H5019.67C5275.36 7448.44 5482.65 7241.15 5482.65 6985.46C5482.65 6590.75 5684.35 6257.28 5926.8 6026.09C5940.47 6013.06 5954.02 5999.84 5967.44 5986.41C6879.63 5074.22 6879.63 3595.27 5967.44 2683.09ZM276.236 4955.95C467.722 4912 658.578 5031.61 702.523 5223.09C704.081 5229.88 705.659 5236.67 707.256 5243.45C708.853 5250.24 710.47 5257.01 712.104 5263.78C758.216 5454.76 640.781 5646.96 449.806 5693.07C258.83 5739.18 66.6317 5621.75 20.5195 5430.77C18.5695 5422.69 16.6424 5414.61 14.7373 5406.52C12.8322 5398.43 10.9502 5390.33 9.0918 5382.24C-34.8537 5190.75 84.751 4999.9 276.236 4955.95ZM3758.71 3293.41C3905.41 3293.41 4037.07 3383.48 4090.25 3520.21L4674.74 5023.2C4745.95 5206.3 4655.24 5412.46 4472.13 5483.67C4289.03 5554.88 4082.87 5464.17 4011.66 5281.06L3758.71 4630.61L3505.75 5281.06C3434.54 5464.17 3228.38 5554.88 3045.28 5483.67C2862.17 5412.46 2771.46 5206.3 2842.67 5023.2L3427.17 3520.21L3427.79 3518.61C3481.37 3382.77 3612.57 3293.41 3758.71 3293.41ZM5233.65 3293.41C5430.11 3293.41 5589.37 3452.68 5589.38 3649.14V5152.13C5589.37 5348.59 5430.11 5507.86 5233.65 5507.86C5037.18 5507.86 4877.92 5348.59 4877.92 5152.13V3649.14C4877.92 3452.68 5037.18 3293.41 5233.65 3293.41ZM7941.11 4970.32C7971.59 4776.23 8153.64 4643.61 8347.72 4674.09C8541.81 4704.57 8674.43 4886.62 8643.95 5080.7C8642.66 5088.91 8641.35 5097.12 8640.01 5105.32C8638.68 5113.52 8637.32 5121.72 8635.94 5129.92C8603.26 5323.64 8419.72 5454.2 8225.99 5421.52C8032.27 5388.84 7901.71 5205.3 7934.39 5011.58C7935.55 5004.71 7936.69 4997.84 7937.81 4990.96C7938.93 4984.08 7940.03 4977.2 7941.11 4970.32ZM185.038 2833.91C254.882 2650.28 460.364 2558.04 643.993 2627.88C827.623 2697.73 919.865 2903.21 850.021 3086.84C847.544 3093.35 845.085 3099.87 842.645 3106.39C840.204 3112.92 837.783 3119.46 835.381 3125.99C767.621 3310.4 563.198 3404.96 378.789 3337.21C194.38 3269.45 99.8168 3065.02 167.576 2880.61C170.442 2872.81 173.33 2865.02 176.241 2857.24C179.152 2849.45 182.084 2841.67 185.038 2833.91ZM7818.46 2377.35C7996.77 2294.86 8208.19 2372.55 8290.67 2550.86C8294.16 2558.4 8297.63 2565.95 8301.07 2573.51C8304.52 2581.08 8307.95 2588.65 8311.35 2596.23C8391.81 2775.46 8311.73 2985.98 8132.5 3066.44C7953.27 3146.9 7742.75 3066.83 7662.29 2887.59C7659.44 2881.24 7656.56 2874.89 7653.67 2868.55C7650.79 2862.21 7647.88 2855.88 7644.95 2849.55C7562.47 2671.24 7640.15 2459.83 7818.46 2377.35ZM1747.11 812.803C1907.2 698.924 2129.3 736.389 2243.18 896.481C2357.06 1056.57 2319.59 1278.67 2159.5 1392.55C2153.82 1396.59 2148.16 1400.64 2142.5 1404.71C2136.85 1408.78 2131.2 1412.87 2125.57 1416.97C1966.78 1532.66 1744.27 1497.71 1628.59 1338.92C1512.9 1180.13 1547.85 957.62 1706.64 841.935C1713.36 837.042 1720.09 832.168 1726.83 827.312C1733.58 822.455 1740.34 817.619 1747.11 812.803ZM6102.4 761.715C6204.83 594.068 6423.78 541.203 6591.42 643.637C6598.51 647.969 6605.59 652.322 6612.66 656.696C6619.73 661.07 6626.78 665.463 6633.82 669.875C6800.3 774.202 6850.68 993.73 6746.35 1160.21C6642.03 1326.68 6422.5 1377.06 6256.02 1272.74C6250.12 1269.04 6244.21 1265.35 6238.28 1261.69C6232.35 1258.02 6226.42 1254.37 6220.48 1250.74C6052.83 1148.3 5999.97 929.361 6102.4 761.715ZM4168.79 0.155273C4365.17 -5.58897 4529.02 148.952 4534.76 345.332C4540.51 541.711 4385.97 705.565 4189.59 711.31C4182.63 711.513 4175.66 711.737 4168.7 711.98C4161.73 712.224 4154.77 712.486 4147.81 712.769C3951.51 720.737 3785.92 568.062 3777.95 371.761C3769.98 175.459 3922.65 9.86429 4118.96 1.89551C4127.26 1.55852 4135.56 1.24516 4143.87 0.955078C4152.17 0.665002 4160.48 0.398195 4168.79 0.155273Z" />
</svg>
