<svg width="12" height="12" viewBox="0 0 12 12" xmlns="http://www.w3.org/2000/svg">
<path d="M11.7756 5.63672L9.55593 4.52812L10.3411 2.175C10.4466 1.85625 10.1442 1.55391 9.82782 1.66172L7.47458 2.44687L6.36359 0.225C6.21358 -0.075 5.787 -0.075 5.63699 0.225L4.52834 2.44453L2.17276 1.65938C1.854 1.55391 1.55164 1.85625 1.65946 2.17266L2.44465 4.52578L0.225011 5.63672C-0.0750036 5.78672 -0.0750036 6.21328 0.225011 6.36328L2.44465 7.47187L1.65946 9.82734C1.55398 10.1461 1.85634 10.4484 2.17276 10.3406L4.526 9.55547L5.63465 11.775C5.78466 12.075 6.21124 12.075 6.36125 11.775L7.46989 9.55547L9.82313 10.3406C10.1419 10.4461 10.4443 10.1438 10.3364 9.82734L9.55124 7.47422L11.7709 6.36562C12.0756 6.21328 12.0756 5.78672 11.7756 5.63672Z" />
</svg>
