<?xml version="1.0" encoding="UTF-8"?>
<svg id="Ebene_2" data-name="Ebene 2" xmlns="http://www.w3.org/2000/svg" viewBox="0 0 8421.05 8421.04">
  <g id="Ebene_1-2" data-name="Ebene 1">
    <path class="cls-1" d="M8335.51,3362.4c-55.36-270.53-137.96-536.64-245.52-790.93-105.56-249.58-236.2-490.27-388.28-715.38-150.56-222.86-323.46-432.42-513.89-622.85s-399.99-363.33-622.85-513.89c-225.11-152.08-465.8-282.72-715.38-388.28-254.29-107.56-520.4-190.16-790.93-245.52C4781.27,28.78,4495.93,0,4210.52,0s-570.75,28.78-848.12,85.54c-270.53,55.36-536.64,137.96-790.93,245.52-249.58,105.56-490.27,236.2-715.38,388.28-222.86,150.56-432.42,323.46-622.85,513.89-190.43,190.43-363.33,399.99-513.89,622.85-152.08,225.11-282.72,465.8-388.28,715.38-107.56,254.29-190.16,520.4-245.52,790.93C28.78,3639.77,0,3925.12,0,4210.52s28.78,570.75,85.54,848.12c55.36,270.53,137.96,536.64,245.52,790.93,105.56,249.58,236.2,490.27,388.28,715.38,150.56,222.87,323.46,432.42,513.89,622.85s399.99,363.33,622.85,513.89c225.11,152.08,465.8,282.72,715.38,388.28,254.29,107.56,520.4,190.16,790.93,245.52,277.37,56.76,562.72,85.54,848.12,85.54s570.75-28.78,848.12-85.54c270.53-55.36,536.64-137.96,790.93-245.52,249.58-105.56,490.27-236.2,715.38-388.28,222.87-150.56,432.42-323.46,622.85-513.89,190.43-190.43,363.33-399.99,513.89-622.85,152.08-225.11,282.72-465.8,388.28-715.38,107.56-254.29,190.16-520.4,245.52-790.93,56.76-277.37,85.54-562.72,85.54-848.12s-28.78-570.75-85.54-848.12ZM7510.5,4889.82c-44.21,216.08-110.19,428.62-196.09,631.71-84.38,199.5-188.85,391.95-310.49,572.01-120.56,178.46-259.03,346.28-411.56,498.81-14.46,14.46-29.07,28.8-43.8,43.01-176.18-282.84-430.37-531.79-745.82-726.64-456.77-282.12-1016.43-435.04-1592.18-435.04s-1135.41,152.92-1592.18,435.04c-315.46,194.85-569.66,443.82-745.84,726.68-14.75-14.22-29.36-28.57-43.84-43.04-152.53-152.53-291-320.36-411.56-498.81-121.64-180.06-226.11-372.51-310.49-572.01-85.9-203.1-151.88-415.63-196.09-631.71-45.41-221.93-68.44-450.48-68.44-679.3s23.03-457.37,68.44-679.3c44.22-216.08,110.19-428.62,196.09-631.71,84.38-199.5,188.85-391.95,310.49-572.01,120.56-178.45,259.03-346.28,411.56-498.81,152.53-152.53,320.36-291,498.81-411.56,180.06-121.64,372.51-226.11,572.01-310.49,203.09-85.9,415.63-151.88,631.71-196.09,221.93-45.41,450.48-68.44,679.3-68.44s457.37,23.03,679.3,68.44c216.08,44.22,428.62,110.19,631.71,196.09,199.5,84.38,391.95,188.85,572.01,310.49,178.46,120.56,346.28,259.03,498.81,411.56,152.53,152.53,291,320.36,411.56,498.81,121.64,180.06,226.11,372.51,310.49,572.01,85.9,203.09,151.88,415.63,196.09,631.71,45.42,221.93,68.44,450.48,68.44,679.3s-23.03,457.37-68.44,679.3Z"/>
    <path class="cls-1" d="M6657.46,3337.94c-17.82-44.02-41.49-85.44-68.9-133.39-70.18-122.81-149.06-242.81-235.06-357.64l278.88-237.8c47.4-40.41,53.06-111.6,12.64-159-40.41-47.4-111.6-53.06-159-12.64l-273.62,233.31c-119.69-139.67-248.16-266.26-383.2-377.47-103.32-85.08-210.76-161.35-321.59-228.37l180.69-326.79c30.14-54.51,10.38-123.13-44.13-153.27-54.51-30.14-123.13-10.38-153.27,44.13l-181.27,327.84c-54.58-26.7-109.83-51.25-165.68-73.59-137.42-54.97-280.53-97.32-425.34-125.87-141.85-27.97-288.58-43.33-436.78-45.77,1.99-8.39,3.05-17.14,3.05-26.13v-380.23c0-62.29-50.49-112.78-112.78-112.78s-112.78,50.49-112.78,112.78v380.23c0,11.08,1.6,21.78,4.58,31.89-102.54,7.14-203.87,20.51-302.83,40.02-144.82,28.55-287.92,70.9-425.35,125.87-69.5,27.8-138.07,59.02-205.58,93.56-2.01-3.96-4.27-7.85-6.79-11.64l-210.82-316.44c-34.54-51.84-104.55-65.86-156.39-31.33-51.84,34.54-65.86,104.55-31.33,156.39l209.49,314.44c-97.5,61.24-192.28,129.7-283.82,205.09-142.27,117.16-277.24,251.38-402.34,399.99-1.57-1.36-3.19-2.7-4.85-3.99l-300.53-232.94c-49.23-38.16-120.07-29.18-158.23,20.05-38.16,49.23-29.18,120.07,20.05,158.23l300.53,232.94c1.22.94,2.45,1.85,3.69,2.73-79.26,107.69-152.24,219.72-217.66,334.19-27.42,47.97-51.1,89.39-68.91,133.41-24.89,61.5-35.23,119.85-32.54,183.65,2.7,64.01,18.2,121.73,48.77,181.66,21.73,42.59,48.04,80.77,81.38,129.15,98.45,142.84,206.69,282.18,321.69,414.16,159.29,182.8,327.34,346.13,499.49,485.44,217.15,175.73,442.27,314.23,669.11,411.66,130.65,56.11,263.98,99.42,396.29,128.73,143.47,31.78,289.29,47.9,433.43,47.9s289.96-16.11,433.42-47.9c132.31-29.31,265.64-72.62,396.29-128.73,226.84-97.42,451.96-235.92,669.11-411.66,172.14-139.31,340.19-302.64,499.49-485.44,115.01-131.98,223.24-271.32,321.72-414.2,33.31-48.34,59.62-86.52,81.35-129.11,30.57-59.93,46.07-117.66,48.77-181.66,2.69-63.79-7.65-122.14-32.54-183.64ZM6188.41,3576.38c-88.82,128.86-186.51,254.63-290.37,373.81-142.17,163.16-291.28,308.21-443.17,431.14-184.98,149.7-374.51,266.72-563.33,347.82-104.77,45-211.03,79.58-315.84,102.8-111.48,24.7-224.47,37.22-335.85,37.22s-224.37-12.52-335.85-37.22c-104.81-23.22-211.07-57.8-315.84-102.8-188.82-81.09-378.35-198.12-563.33-347.82-151.89-122.92-301-267.98-443.17-431.14-103.85-119.18-201.55-244.95-290.38-373.83-17.96-26.07-39.64-57.52-48.84-74.02,7.55-16.52,25.49-47.91,40.38-73.96,72.51-126.89,155.8-250.44,247.56-367.22,124.85-158.9,261.75-300.07,406.89-419.59,177.11-145.85,367.55-260.06,566.01-339.44,111.52-44.61,227.63-78.97,345.08-102.13,126.56-24.95,258.28-37.61,391.5-37.61s264.94,12.65,391.5,37.61c117.45,23.16,233.55,57.52,345.08,102.13,198.46,79.38,388.89,193.59,566.01,339.44,145.14,119.52,282.04,260.69,406.89,419.59,91.76,116.78,175.05,240.34,247.58,367.25,14.88,26.04,32.83,57.43,40.37,73.94-9.2,16.49-30.87,47.95-48.85,74.03Z"/>
    <path class="cls-2" d="M4242.15,4613.52c581.35,0,1052.63-471.28,1052.63-1052.64s-471.28-1052.63-1052.63-1052.63-1052.64,471.28-1052.64,1052.63,471.28,1052.64,1052.64,1052.64ZM4951.65,3916.84c26.16-45.31,10.63-103.25-34.68-129.41-45.31-26.16-103.25-10.64-129.41,34.67-53.89,93.34-131.39,170.84-224.73,224.73-93.33,53.88-199.2,82.25-306.98,82.25s-213.64-28.37-306.98-82.25c-93.33-53.89-170.83-131.39-224.72-224.73-26.16-45.31-84.1-60.83-129.41-34.67-45.32,26.16-60.84,84.1-34.68,129.41,70.52,122.14,171.94,223.56,294.08,294.08,122.13,70.51,260.68,107.64,401.71,107.64s279.58-37.13,401.72-107.64c122.14-70.52,223.56-171.94,294.08-294.08Z"/>
  </g>
</svg>