<?xml version="1.0" encoding="UTF-8"?>
<svg id="Ebene_2" data-name="Ebene 2" xmlns="http://www.w3.org/2000/svg" viewBox="0 0 8936.87 7482.6">
  <defs>
    <style>
      .cls-2 {
        fill-rule: evenodd;
      }
    </style>
  </defs>
  <g id="Ebene_1-2" data-name="Ebene 1">
    <path class="cls-1" d="M8924.03,4050.93c-9.75-52.18-24.97-103.42-46.52-156.67-32.16-79.46-72.97-150.88-124.65-241.3-127.14-222.48-270.03-439.86-425.81-647.89l510.29-435.13c41.29-35.21,66.9-85.38,71.2-139.47,4.3-54.09-13.06-107.68-48.27-148.97-35.21-41.29-85.38-66.9-139.47-71.2-54.09-4.3-107.68,13.06-148.97,48.27l-500.72,426.97c-216.93-253.13-449.77-482.54-694.5-684.08-183.17-150.84-375.34-287.76-571.16-406.95-3.76-2.29-7.53-4.56-11.3-6.84l330.5-597.71c26.26-47.49,32.58-103.46,17.57-155.6-15.01-52.15-50.12-96.19-97.61-122.45-47.49-26.26-103.46-32.58-155.6-17.57-52.15,15.01-96.19,50.12-122.45,97.61l-331.61,599.71c-98.95-48.37-199.1-92.87-299.94-133.2-248.97-99.59-508.24-176.31-770.61-228.04-257.4-50.75-523.68-78.59-792.61-82.95,4.61-17.16,7.02-34.99,7.02-53.07V204.6c0-54.26-21.56-106.3-59.92-144.67-38.37-38.37-90.41-59.93-144.67-59.93s-106.3,21.56-144.67,59.93c-38.37,38.37-59.93,90.41-59.93,144.67v689.79c0,21.74,3.47,43.13,10.09,63.42-186.3,12.91-370.4,37.16-550.16,72.61-262.37,51.73-521.64,128.46-770.61,228.04-125.56,50.22-250.07,106.9-372.5,169.49-4.25-9.02-9.18-17.77-14.78-26.17l-382.46-574.05c-30.09-45.16-76.88-76.52-130.08-87.17-53.21-10.66-108.47.26-153.62,30.34-45.16,30.09-76.52,76.88-87.17,130.09-10.66,53.21.26,108.47,30.34,153.62l382.46,574.05c.21.32.43.62.64.94-176.19,110.73-348.98,235.61-514.43,371.86-257.84,212.33-502.48,455.61-729.22,724.96-4.16-3.82-8.48-7.48-12.98-10.97l-545.2-422.57c-42.89-33.24-97.23-48.08-151.06-41.26-53.83,6.82-102.75,34.75-135.99,77.64s-48.09,97.23-41.26,151.06c6.82,53.83,34.75,102.75,77.64,135.99l545.2,422.57c3.68,2.85,7.46,5.57,11.3,8.15-143.71,195.24-276.04,398.36-394.66,605.93-51.67,90.43-92.49,161.85-124.65,241.3-21.55,53.25-36.77,104.5-46.52,156.67-10.68,57.11-14.64,114.06-12.1,174.1,2.56,60.56,11.52,117.59,27.4,174.33,14.35,51.26,34.13,101.28,60.47,152.91,39.26,76.95,86.91,146.08,147.24,233.61,178.47,258.94,374.68,511.56,583.18,750.83,288.75,331.37,593.38,627.43,905.41,879.96,186.21,150.69,377.44,287.61,568.38,406.96,211.7,132.32,428.41,246.38,644.12,339.02,236.69,101.65,478.23,180.11,717.9,233.21,259.86,57.57,523.98,86.75,785.04,86.75s525.19-29.19,785.04-86.75c239.67-53.1,481.21-131.56,717.9-233.21,215.71-92.64,432.42-206.7,644.12-339.02,190.94-119.34,382.17-256.26,568.38-406.96,312.03-252.52,616.66-548.58,905.41-879.96,208.5-239.27,404.71-491.89,583.2-750.84,60.33-87.53,107.98-156.66,147.23-233.6,26.34-51.63,46.12-101.64,60.47-152.91,15.89-56.75,24.85-113.77,27.4-174.33,2.53-60.03-1.43-116.98-12.1-174.09ZM8112.05,4215.51c-18.28,29.38-44.79,67.84-75.48,112.38-161.24,233.94-338.6,462.27-527.15,678.64-258.13,296.23-528.86,559.61-804.67,782.82-335.98,271.9-680.26,484.46-1023.28,631.78-190.39,81.77-383.51,144.62-573.99,186.82-202.64,44.89-408.04,67.65-610.5,67.65s-407.86-22.76-610.5-67.65c-190.48-42.2-383.6-105.05-573.99-186.82-343.02-147.32-687.3-359.88-1023.28-631.78-275.8-223.2-546.53-486.58-804.67-782.82-188.55-216.38-365.9-444.7-527.15-678.65-30.69-44.53-57.2-82.99-75.48-112.37-6.9-11.1-11.57-19.19-14.68-24.91,2.51-5.64,6.23-13.54,11.73-24.27,15.08-29.46,37.2-68.17,62.81-112.99,131.68-230.43,282.94-454.8,449.57-666.88,226.74-288.57,475.38-544.97,739-762.06,153.74-126.61,314.48-241.19,477.74-340.57,177.7-108.16,362.94-201.06,550.56-276.1,202.64-81.06,413.6-143.49,627.02-185.57,229.95-45.34,469.28-68.33,711.32-68.33s481.36,22.99,711.32,68.33c213.41,42.08,424.37,104.52,627.02,185.57,187.63,75.05,372.86,167.94,550.56,276.1,163.26,99.37,324,213.96,477.74,340.57,263.62,217.09,512.25,473.48,739,762.06,166.64,212.08,317.9,436.45,449.58,666.88,25.61,44.81,47.72,83.51,62.8,112.98,5.49,10.73,9.22,18.63,11.73,24.27-3.11,5.72-7.78,13.82-14.68,24.91Z"/>
    <path class="cls-2" d="M6137.91,4296.56c0,903.98-732.81,1636.79-1636.78,1636.79s-1636.78-732.81-1636.78-1636.79,732.81-1636.79,1636.78-1636.79,1636.78,732.82,1636.78,1636.79ZM4049.2,3417.48c94.71,0,179.7,58.14,214.03,146.4l470.99,1211.15c45.97,118.2-12.59,251.28-130.79,297.25-118.2,45.97-251.28-12.59-297.25-130.79l-256.98-660.8-256.97,660.8c-45.97,118.2-179.05,176.76-297.25,130.79-118.21-45.97-176.76-179.05-130.8-297.25l471-1211.15c34.33-88.26,119.32-146.4,214.02-146.4ZM5467.31,3647.12c0-126.83-102.81-229.64-229.64-229.64s-229.64,102.81-229.64,229.64v1211.14c0,126.82,102.82,229.64,229.64,229.64s229.64-102.82,229.64-229.64v-1211.14Z"/>
  </g>
</svg>