<?xml version="1.0" encoding="UTF-8"?>
<svg id="Ebene_2" data-name="Ebene 2" xmlns="http://www.w3.org/2000/svg" viewBox="0 0 7277.52 8476.19">
  <g id="Ebene_1-2" data-name="Ebene 1">
    <g>
      <path class="cls-1" d="M7153.54,3312.2c-82.27-307.04-204.57-602.31-363.51-877.6-31.57-54.69-83.58-94.59-144.57-110.93-61-16.35-125.99-7.79-180.67,23.78-54.69,31.57-94.59,83.58-110.94,144.57-16.34,60.99-7.79,125.98,23.78,180.67,138.14,239.26,244.44,495.89,315.94,762.75,71.5,266.86,107.76,542.26,107.76,818.54s-36.26,551.67-107.76,818.53c-71.5,266.86-177.8,523.49-315.94,762.75-138.14,239.26-307.23,459.63-502.59,654.99-195.36,195.36-415.73,364.46-654.99,502.6-239.26,138.14-495.89,244.44-762.76,315.94-233.5,62.56-473.53,98.14-714.96,106.06l185.67-180.79c45.24-44.05,71.13-104.27,71.97-167.41.84-63.14-23.43-124.03-67.49-169.27-44.05-45.24-104.27-71.13-167.41-71.97-63.12-.85-124.03,23.43-169.27,67.49l-603.18,587.31c-46.03,44.82-72,106.34-72,170.59,0,64.25,25.97,125.77,72,170.59l603.18,587.3c44.48,43.31,104.09,67.51,166.09,67.51,1.06,0,2.12,0,3.18-.02,63.14-.84,123.36-26.73,167.41-71.98,44.05-45.24,68.33-106.13,67.49-169.27-.84-63.14-26.73-123.36-71.98-167.41l-181.14-176.37c281.52-8.38,561.45-49.43,833.67-122.37,307.05-82.27,602.32-204.57,877.61-363.51,275.29-158.94,528.84-353.5,753.61-578.27,224.78-224.78,419.33-478.33,578.27-753.61,158.94-275.29,281.24-570.56,363.51-877.6s123.99-623.9,123.99-941.78-41.71-634.74-123.99-941.79Z"/>
      <path class="cls-1" d="M583.95,5072.51c-71.51-266.86-107.76-542.26-107.76-818.53s36.26-551.68,107.76-818.54c71.51-266.86,177.8-523.49,315.94-762.75,138.14-239.26,307.23-459.63,502.59-654.99,195.36-195.36,415.73-364.45,654.99-502.59,239.26-138.14,495.89-244.44,762.76-315.95,230.63-61.8,467.63-97.24,706.07-105.73l-152.71,148.7c-45.24,44.05-71.13,104.27-71.97,167.41-.84,63.14,23.44,124.03,67.49,169.27,44.05,45.24,104.27,71.13,167.41,71.97,1.06.01,2.12.02,3.18.02,62,0,121.61-24.2,166.1-67.51l603.17-587.31c46.03-44.82,71.99-106.34,71.99-170.59s-25.96-125.77-72-170.59L3705.79,67.51C3660.54,23.46,3599.67-.83,3536.51.02c-63.14.84-123.36,26.73-167.41,71.97-44.05,45.24-68.33,106.13-67.49,169.27.84,63.14,26.73,123.36,71.97,167.41l212.5,206.91c-300.18,4.35-599.02,45.87-889.1,123.6-307.05,82.27-602.32,204.58-877.61,363.52-275.29,158.94-528.84,353.49-753.61,578.26-224.77,224.77-419.33,478.33-578.27,753.61-158.94,275.29-281.24,570.56-363.51,877.6C41.72,3619.23,0,3936.1,0,4253.98s41.72,634.74,123.99,941.78c82.27,307.05,204.58,602.31,363.52,877.6,31.57,54.69,83.58,94.59,144.57,110.93,20.27,5.43,40.98,8.11,61.61,8.11,41.44,0,82.55-10.82,119.06-31.9,54.69-31.57,94.59-83.58,110.93-144.57,16.34-61,7.79-125.98-23.79-180.67-138.14-239.26-244.44-495.88-315.94-762.75Z"/>
      <path class="cls-1" d="M2923.24,6181.41c5.63,56.26,11.27,115.3,21.13,165,10.64,53.66,29.97,118.76,76.37,180.35,32.88,43.64,73.75,80.64,120.46,109.01,65.9,40.04,132.59,52.8,187.05,58.04,50.43,4.86,109.74,4.61,166.28,4.61h280.67c56.54,0,115.84.25,166.27-4.61,54.45-5.24,121.14-18,187.04-58.03,46.71-28.38,87.6-65.38,120.48-109.04,46.39-61.59,65.72-126.68,76.36-180.34,9.86-49.69,15.5-108.73,21.13-165,7.78-77.83,13.63-134.82,19.54-178.34,34.94,26.59,79.37,62.75,139.89,112.27,43.76,35.8,89.48,73.54,131.58,101.71,45.46,30.41,105.14,62.77,181.48,73.52,54.15,7.62,109.25,4.88,162.37-8.1,74.89-18.29,131.06-56.43,173.27-91.21,39.08-32.22,80.83-74.33,120.8-114.3l198.55-198.55c39.95-39.95,82.04-81.67,114.24-120.74,34.76-42.17,72.88-98.31,91.19-173.15,13.01-53.2,15.77-108.4,8.11-162.63-10.77-76.29-43.11-135.94-73.51-181.37-28.15-42.07-65.88-87.77-101.65-131.5-49.48-60.47-85.62-104.87-112.19-139.79,43.48-5.9,100.42-11.74,178.18-19.51,56.22-5.63,115.21-11.27,164.87-21.11,53.62-10.63,118.67-29.94,180.23-76.27,43.76-32.94,80.84-73.91,109.25-120.72,39.98-65.87,52.72-132.52,57.96-186.93,4.86-50.39,4.6-109.65,4.6-166.15v-280.73c0-56.56.26-115.88-4.61-166.32-5.25-54.47-18.01-121.18-58.07-187.09-28.36-46.67-65.33-87.52-108.94-120.38-61.61-46.42-126.73-65.76-180.41-76.41-49.71-9.85-108.78-15.5-165.08-21.13-77.85-7.78-134.85-13.63-178.37-19.54,26.58-34.92,62.72-79.33,112.22-139.83,35.79-43.74,73.52-89.46,101.68-131.54,30.4-45.44,62.75-105.11,73.51-181.42,7.65-54.19,4.89-109.35-8.1-162.52-18.3-74.86-56.43-131.01-91.2-173.2-32.21-39.07-74.31-80.8-114.27-120.76l-198.61-198.62c-39.94-39.93-81.64-82-120.69-114.19-42.16-34.75-98.26-72.86-173.07-91.18-53.26-13.04-108.53-15.79-162.82-8.12-76.26,10.78-135.88,43.12-181.29,73.51-42.05,28.14-87.74,65.85-131.44,101.61-60.43,49.44-104.8,85.55-139.7,112.12-5.9-43.47-11.74-100.39-19.51-178.11-5.62-56.21-11.26-115.19-21.1-164.84-10.63-53.61-29.93-118.65-76.25-180.21-32.95-43.79-73.95-80.89-120.8-109.32-65.85-39.96-132.49-52.69-186.89-57.93-50.38-4.85-109.62-4.6-166.11-4.6h-280.91c-56.49,0-115.74-.25-166.13,4.6-54.4,5.24-121.04,17.97-186.9,57.94-46.84,28.42-87.83,65.52-120.77,109.3-46.33,61.55-65.63,126.6-76.25,180.21-9.85,49.65-15.49,108.63-21.11,164.84-7.77,77.73-13.61,134.67-19.51,178.14-34.92-26.57-79.31-62.7-139.78-112.18-43.74-35.79-89.45-73.52-131.52-101.67-45.43-30.4-105.09-62.75-181.39-73.52-54.22-7.65-109.41-4.9-162.6,8.11-74.85,18.31-130.98,56.43-173.17,91.2-39.06,32.2-80.78,74.29-120.74,114.24l-198.54,198.54c-39.97,39.98-82.09,81.72-114.3,120.81-34.79,42.21-72.92,98.38-91.22,173.27-12.97,53.12-15.72,108.21-8.09,162.35,10.75,76.35,43.1,136.04,73.52,181.5,28.16,42.09,65.91,87.82,101.71,131.58,49.53,60.54,85.69,104.97,112.29,139.91-43.51,5.9-100.49,11.75-178.32,19.53-56.26,5.63-115.28,11.27-164.97,21.12-53.65,10.64-118.73,29.97-180.31,76.34-43.68,32.9-80.7,73.8-109.08,120.54-40.02,65.89-52.78,132.57-58.02,187.01-4.86,50.42-4.61,109.72-4.61,166.25v280.84c0,56.48-.25,115.71,4.6,166.08,5.23,54.39,17.96,121.01,57.9,186.85,28.45,46.89,65.57,87.92,109.4,120.88,61.54,46.3,126.56,65.59,180.16,76.22,49.63,9.83,108.6,15.47,164.8,21.09,77.69,7.77,134.6,13.61,178.05,19.5-26.58,34.92-62.72,79.33-112.2,139.81-35.81,43.76-73.55,89.49-101.72,131.59-30.41,45.44-62.77,105.12-73.53,181.46-7.64,54.17-4.89,109.31,8.1,162.46,18.3,74.87,56.43,131.03,91.21,173.23,32.21,39.07,74.31,80.81,114.27,120.78l198.48,198.47c39.99,39.99,81.76,82.12,120.86,114.35,42.23,34.8,98.43,72.95,173.36,91.23,53.05,12.94,108.08,15.69,162.15,8.09,76.38-10.74,136.1-43.11,181.58-73.54,42.12-28.17,87.87-65.94,131.65-101.76,60.57-49.55,105.02-85.74,139.98-112.34,5.91,43.52,11.76,100.53,19.54,178.38ZM2978.95,5952.76c.85-.37.83-.31,0,0h0ZM4290.77,5952.78c-.83-.31-.85-.37,0,0h0ZM4383.68,5914.28c.34-.84.36-.79,0,0h0ZM5349.87,4893.99c-.37-.86-.31-.84,0,0h0ZM5311.39,4986.87c-.8.37-.86.34,0,0h0ZM5311,3489.26c-.87-.34-.81-.37,0,0h0ZM5349.48,3582.17c-.31.83-.37.86,0,0h0ZM4290.74,2523.06c-.85.37-.83.31,0,0h0ZM4383.62,2561.53c.37.81.34.87,0,0h0ZM2978.98,2523.08c.83.31.85.37,0,0h0ZM2886.09,2561.55c-.35.87-.37.81,0,0h0ZM1920.17,3582.19c.37.86.31.84,0,0h0ZM1958.64,3489.29c.83-.38.89-.35,0,0h0ZM1958.27,4986.85c.85.34.79.36,0,0h0ZM1919.79,4893.95c.31-.83.37-.85,0,0h0ZM2696.12,5566.79c-69,44.61-148.59,110.2-233.94,180.03-24.18,19.78-43.06,35.22-59.57,48.23-3.21,2.53-6.21,4.87-9.03,7.04-2.58-2.44-5.33-5.06-8.27-7.9-15.14-14.58-32.38-31.82-54.48-53.91l-198.47-198.47c-22.07-22.08-39.3-39.31-53.87-54.44-2.83-2.93-5.45-5.67-7.88-8.25,2.17-2.81,4.51-5.81,7.04-9.02,13-16.5,28.43-35.38,48.21-59.55,69.76-85.26,135.28-164.77,179.86-233.7,43.43-67.15,97.97-169.21,83.66-294.52-9.16-80.16-40.63-156.14-90.84-219.29-78.47-98.71-189.18-132.33-267.37-149.1-80.23-17.22-182.76-27.11-292.33-38.07-31.04-3.1-55.26-5.53-76.11-8.01-4.03-.48-7.78-.94-11.28-1.39-.1-3.53-.19-7.3-.26-11.36-.39-20.99-.4-45.33-.4-76.53v-280.84c0-31.23.01-55.6.4-76.6.08-4.08.16-7.87.26-11.42,3.51-.45,7.28-.91,11.33-1.39,20.87-2.48,45.12-4.91,76.19-8.02,109.69-10.97,212.31-20.87,292.62-38.11,78.28-16.81,189.09-50.48,267.56-149.35,50.01-63.01,81.39-138.76,90.58-218.68,14.43-125.41-40.12-227.57-83.58-294.8-44.6-68.98-110.17-148.55-179.98-233.87-19.77-24.17-35.2-43.04-48.2-59.54-2.52-3.21-4.86-6.2-7.02-9,2.44-2.58,5.05-5.32,7.88-8.26,14.58-15.13,31.81-32.37,53.89-54.45l198.54-198.54c22.07-22.07,39.3-39.29,54.42-53.86,2.93-2.82,5.67-5.44,8.24-7.87,2.8,2.16,5.79,4.49,8.98,7.02,16.5,12.99,35.36,28.41,59.51,48.18,85.27,69.76,164.79,135.28,233.72,179.86,67.18,43.44,169.26,97.96,294.59,83.62,80.08-9.17,156-40.61,219.11-90.76,98.76-78.47,132.39-189.21,149.17-267.43,17.23-80.25,27.12-182.81,38.08-292.41,3.1-31.05,5.54-55.28,8.01-76.13.48-4.04.94-7.79,1.39-11.3,3.53-.1,7.31-.19,11.38-.26,20.99-.39,45.35-.4,76.55-.4h280.91c31.2,0,55.55,0,76.54.4,4.06.08,7.84.16,11.38.26.45,3.51.91,7.26,1.39,11.3,2.47,20.85,4.91,45.09,8.01,76.14,10.96,109.59,20.85,212.12,38.07,292.36,16.77,78.19,50.38,188.91,149.1,267.38,63.15,50.21,139.13,81.68,219.29,90.84,125.29,14.31,227.33-40.21,294.49-83.63,68.91-44.56,148.4-110.07,233.63-179.8,24.14-19.75,42.99-35.16,59.48-48.15,3.19-2.51,6.17-4.84,8.96-7,2.57,2.43,5.3,5.04,8.22,7.86,15.11,14.56,32.33,31.77,54.39,53.83l198.62,198.61c22.07,22.08,39.29,39.31,53.86,54.43,2.83,2.93,5.44,5.67,7.88,8.25-2.16,2.8-4.49,5.79-7.02,8.98-12.99,16.5-28.41,35.36-48.18,59.52-69.78,85.29-135.33,164.83-179.91,233.79-43.46,67.2-97.99,169.33-83.6,294.7,9.18,79.99,40.58,155.82,90.66,218.88,78.49,98.84,189.29,132.48,267.54,149.27,80.3,17.24,182.93,27.14,292.63,38.11,31.09,3.11,55.36,5.54,76.25,8.02,4.07.48,7.85.95,11.39,1.4.1,3.55.19,7.35.26,11.44.39,21.02.4,45.4.4,76.64v280.73c0,31.21,0,55.56-.4,76.56-.08,4.07-.16,7.85-.26,11.39-3.51.45-7.26.91-11.3,1.39-20.86,2.47-45.09,4.9-76.15,8.01-109.62,10.96-212.19,20.86-292.46,38.08-78.23,16.79-188.97,50.43-267.45,149.21-50.12,63.09-81.56,138.98-90.73,219.03-14.35,125.34,40.17,227.44,83.62,294.62,44.57,68.94,110.1,148.46,179.86,233.73,19.77,24.15,35.18,43.01,48.18,59.5,2.52,3.2,4.84,6.18,7.01,8.98-2.43,2.57-5.04,5.31-7.87,8.24-14.57,15.12-31.79,32.34-53.86,54.41l-198.55,198.55c-22.08,22.08-39.31,39.31-54.44,53.89-2.94,2.83-5.68,5.45-8.26,7.88-2.81-2.17-5.8-4.5-9-7.02-16.5-13-35.37-28.43-59.54-48.2-85.31-69.8-164.88-135.37-233.85-179.97-67.23-43.46-169.39-98.01-294.8-83.58-79.92,9.19-155.68,40.57-218.69,90.58-98.88,78.48-132.54,189.29-149.35,267.57-17.24,80.31-27.14,182.94-38.11,292.64-3.11,31.08-5.54,55.33-8.02,76.2-.48,4.06-.95,7.83-1.4,11.35-3.55.1-7.34.19-11.42.26-21.01.39-45.38.4-76.61.4h-280.67c-31.23,0-55.61,0-76.62-.4-4.08-.08-7.88-.16-11.42-.26-.45-3.52-.92-7.28-1.4-11.34-2.48-20.87-4.91-45.13-8.02-76.21-10.97-109.71-20.88-212.36-38.12-292.69-16.81-78.29-50.5-189.12-149.41-267.6-62.98-49.96-138.68-81.32-218.54-90.52-125.44-14.45-227.64,40.11-294.88,83.58ZM2886.04,5914.28c-.37-.81-.35-.88,0,0h0Z"/>
      <path class="cls-1" d="M3048.38,4820.54l185.6-477.27,185.61,477.27c21.36,54.93,63.67,99.12,117.62,122.86s115.11,25.07,170.04,3.71c54.93-21.36,99.12-63.67,122.86-117.62,23.74-53.95,25.07-115.11,3.71-170.04l-392.72-1009.84c-33.22-85.42-115.46-141.68-207.11-141.68s-173.89,56.26-207.11,141.68l-392.71,1009.84c-21.36,54.93-20.03,116.09,3.71,170.04,23.74,53.95,67.93,96.25,122.86,117.61,25.93,10.08,53.25,15.11,80.54,15.11,30.53,0,61.02-6.29,89.5-18.82,53.95-23.74,96.25-67.93,117.61-122.86Z"/>
      <path class="cls-1" d="M4225.2,4962.22c58.94,0,115.46-23.41,157.13-65.09s65.09-98.2,65.09-157.13v-1009.84c0-58.94-23.41-115.46-65.09-157.13-41.67-41.67-98.2-65.09-157.13-65.09s-115.46,23.41-157.13,65.09c-41.67,41.67-65.09,98.2-65.09,157.13v1009.84c0,58.94,23.41,115.46,65.09,157.13s98.2,65.09,157.13,65.09Z"/>
    </g>
  </g>
</svg>