<svg width="24" height="25" viewBox="0 0 24 25" fill="none" xmlns="http://www.w3.org/2000/svg">
<path d="M12 0.5C5.37097 0.5 0 5.87097 0 12.5C0 19.129 5.37097 24.5 12 24.5C18.629 24.5 24 19.129 24 12.5C24 5.87097 18.629 0.5 12 0.5ZM14.7629 17.4403L10.4952 14.3387C10.3452 14.2274 10.2581 14.0532 10.2581 13.8694V5.72581C10.2581 5.40645 10.5194 5.14516 10.8387 5.14516H13.1613C13.4806 5.14516 13.7419 5.40645 13.7419 5.72581V12.3887L16.8145 14.6242C17.0758 14.8129 17.129 15.1758 16.9403 15.4371L15.5758 17.3145C15.3871 17.571 15.0242 17.629 14.7629 17.4403Z" fill="currentColor"/>
</svg>
