<svg width="24" height="25" viewBox="0 0 24 25" fill="none" xmlns="http://www.w3.org/2000/svg">
<path d="M12 0.5C5.37097 0.5 0 5.87097 0 12.5C0 19.129 5.37097 24.5 12 24.5C18.629 24.5 24 19.129 24 12.5C24 5.87097 18.629 0.5 12 0.5ZM5.41935 10.9226C5.57903 8.88548 6.97742 7.46774 8.12903 7.46774C9.28064 7.46774 10.679 8.88548 10.8387 10.9226C10.8726 11.3387 10.3161 11.4984 10.1177 11.1403L9.65806 10.3177C9.28548 9.65484 8.72903 9.27258 8.13387 9.27258C7.53871 9.27258 6.98226 9.65484 6.60968 10.3177L6.15 11.1403C5.94194 11.4984 5.38548 11.3339 5.41935 10.9226ZM17.5548 16.8645C16.1758 18.5194 14.1532 19.4677 12 19.4677C9.84677 19.4677 7.82419 18.5194 6.44516 16.8645C5.79193 16.0758 6.97742 15.0887 7.63548 15.8726C8.71935 17.1742 10.3065 17.9145 12 17.9145C13.6935 17.9145 15.2806 17.1694 16.3645 15.8726C17.0226 15.0887 18.2081 16.0806 17.5548 16.8645ZM17.8548 11.1403L17.3952 10.3177C17.0226 9.65484 16.4661 9.27258 15.871 9.27258C15.2758 9.27258 14.7194 9.65484 14.3468 10.3177L13.8871 11.1403C13.6887 11.4935 13.1323 11.3339 13.1661 10.9226C13.3258 8.88548 14.7242 7.46774 15.8758 7.46774C17.0274 7.46774 18.4258 8.88548 18.5855 10.9226C18.6145 11.3387 18.0532 11.4984 17.8548 11.1403Z" fill="currentColor"/>
</svg>
