<?xml version="1.0" encoding="UTF-8" standalone="no"?>
<!-- Created with Inkscape (http://www.inkscape.org/) -->

<svg
   version="1.1"
   id="svg1"
   width="285.84"
   height="151.18668"
   viewBox="0 0 285.84 151.18668"
   xmlns="http://www.w3.org/2000/svg">
  <defs
     id="defs1" />
  <g
     id="g1">
    <g
       id="group-R5">
      <path
         id="path2"
         d="M 0,1133.86 H 2143.75 V 0 H 0 v 1133.86"
         style="fill:#ffffff;fill-opacity:1;fill-rule:nonzero;stroke:none"
         transform="matrix(0.13333333,0,0,-0.13333333,0,151.18667)" />
      <path
         id="path3"
         d="m 436.719,747.973 c 10.23,-16.219 18.242,-15.942 30.351,-15.942 -10,7.653 -16.601,17.5 -19.769,22.539 l -18.711,29.922 c -1.828,9.219 -6.602,17.852 -13.75,24.301 2.39,0.891 4.422,1.867 5.59,2.77 -12.192,0 -24.301,6.21 -30.981,6.21 -4.25,0 -7.027,-2.582 -7.027,-5.941 0.277,-3.789 4.18,-7.609 11.328,-7.609 1.641,0 3.711,0.187 5.98,0.578 3.899,-5.391 7.032,-10.27 7.032,-17.258 0,-13.133 -15.672,-23.32 -31.492,-23.32 -0.891,0 -1.75,0.031 -2.61,0.109 -1.449,3.238 -6.211,8.672 -6.211,14.891 0,10.429 6.789,18.898 6.789,29.211 0,6.41 -3.117,10.386 -4.328,12.039 1.949,1.789 4.059,4.019 4.57,5.539 -1.14,-0.508 -2.46,-0.539 -4.421,-0.539 -7.579,0 -13.789,1.949 -19.797,1.949 -3.442,0 -4.34,-1.059 -4.34,-2.07 0,-0.348 0.039,-0.739 0.156,-0.942 -1.289,0.512 -2.5,0.82 -3.949,1.094 -1.75,0.359 -3.668,0.508 -5.699,0.508 -7.34,0 -9.918,-3.039 -9.918,-5.699 0,-2.231 1.758,-6.25 3.75,-9.379 2.847,1.449 6.25,2.429 7.808,2.429 3.91,0 7.34,-3.711 9.18,-8.09 -2.621,-0.312 -3.129,-0.429 -5.738,-0.429 -7.153,0 -11.992,2.539 -12.973,2.539 -0.117,0 -0.309,-0.039 -0.309,-0.199 0,-1.012 2.032,-3.633 6.008,-5.071 5.242,-1.961 13.133,-2.742 14.422,-2.972 0,-0.239 -1.332,-2.7 -2.82,-3.168 -0.309,-0.11 -0.539,-0.11 -0.93,-0.039 -5.469,1.097 -7,1.527 -13.949,4.179 -0.231,0.078 -0.352,-0.043 -0.352,-0.269 0,-2.731 7.11,-8.832 13.512,-11.133 -5.351,-6.84 -11.992,-13.789 -15.109,-24.379 -0.903,-0.078 -1.762,-0.109 -2.66,-0.109 -15.821,0 -31.481,10.187 -31.481,23.32 0,6.988 3.117,11.867 7.027,17.258 2.262,-0.391 4.332,-0.578 5.981,-0.578 7.141,0 11.051,3.82 11.32,7.609 0,3.359 -2.73,5.941 -7.027,5.941 -6.684,0 -18.75,-6.21 -30.973,-6.21 1.211,-0.903 3.199,-1.879 5.582,-2.77 -7.152,-6.449 -11.91,-15.082 -13.75,-24.301 L 253.359,754.57 c -3.16,-5.039 -9.808,-14.886 -19.808,-22.539 12.07,0 20.121,-0.277 30.359,15.942 l 9.57,15.308 c 0.739,-1.988 1.598,-3.91 2.61,-5.82 l -19.059,-30.508 c -3.16,-5.082 -9.761,-14.801 -19.801,-22.543 12.11,0 20.11,-0.269 30.348,15.942 l 16.402,26.25 c 1.25,-1.289 2.54,-2.579 3.911,-3.789 L 264.73,705.742 c -3.21,-5.082 -9.73,-14.808 -19.808,-22.5 12.109,0 20.117,-0.308 30.348,15.899 l 22.582,36.132 c 1.488,-0.941 3.007,-1.839 4.609,-2.703 l -27.582,-44.136 c -3.16,-5.043 -9.719,-14.723 -19.801,-22.5 12.113,0 20.121,-0.274 30.391,15.898 l 28.359,45.43 c 1.684,-0.621 3.402,-1.25 5.121,-1.789 l -32.07,-51.332 c -3.129,-5 -9.848,-14.887 -19.77,-22.5 12.071,0 20.121,-0.278 30.313,15.902 l 34.18,54.68 c 0.347,-0.039 0.699,-0.071 1.058,-0.153 0.93,-2.968 1.559,-5.75 1.559,-8.476 0,-17.192 -11.25,-32.383 -24.809,-44.102 0.86,-0.351 2.391,-0.512 3.75,-0.512 2.82,0 4.61,0.161 5.899,0.391 -3.161,-7.148 -9.879,-16.367 -13.278,-21.09 -4.453,0.782 -10.902,1.403 -15.121,1.403 -4.41,0 -4.922,-2.571 -4.922,-4.883 0,-4.02 1.883,-7.231 4.063,-8.981 0.82,2.032 2.469,4.762 10.629,4.762 0.16,0 0.468,0 0.82,-0.039 -2.379,-2.652 -9.84,-8.672 -9.84,-13.551 0,-3.199 3.512,-8.051 8.199,-8.051 -0.269,1.063 -0.269,1.993 -0.269,2.743 0,3.898 3.512,8.507 6.441,11.75 -0.082,-0.973 -0.043,-0.864 -0.043,-1.993 0,-9.289 0.864,-13.589 6.762,-13.589 2.891,0 4.879,1.601 5.59,2.07 -3.828,3.551 -4.031,6.332 -4.031,11.519 0,1.372 0,2.7 0.043,4.532 0,1.211 -0.043,2.781 -0.192,3.949 2.11,0.269 2.969,0.269 4.57,0.269 0,0 8.399,0.672 10.43,-3.711 2.262,2.114 5.578,5.043 5.578,8.282 0,2.148 -1.008,4.609 -5.347,4.609 -1.641,0 -6.801,-1.008 -11.09,-1.008 1.168,2.571 6.328,10.11 10.777,15.578 0.66,-2.109 1.723,-4.41 4.063,-6.289 0.347,3.52 2.379,14.649 7.89,21.168 0.668,-4.41 1.52,-8.898 1.52,-18.429 0,-23.129 -5.582,-40.239 -17.379,-43.481 1.527,-2.687 4.808,-5.078 8.168,-5.078 4.289,0 6.68,4.891 9.058,9.488 1.25,-3.386 4.692,-11.75 8.161,-11.75 3.48,0 6.921,8.364 8.171,11.75 2.379,-4.597 4.758,-9.488 9.059,-9.488 3.402,0 6.641,2.391 8.16,5.078 -11.789,3.242 -17.379,20.352 -17.379,43.481 0,9.531 0.86,14.019 1.52,18.429 5.512,-6.519 7.582,-17.648 7.89,-21.168 2.348,1.879 3.399,4.18 4.071,6.289 4.449,-5.468 9.609,-13.007 10.777,-15.578 -4.297,0 -9.457,1.008 -11.098,1.008 -4.332,0 -5.351,-2.461 -5.351,-4.609 0,-3.239 3.32,-6.168 5.59,-8.282 2.031,4.383 10.429,3.711 10.429,3.711 1.641,0 2.5,0 4.614,-0.269 -0.203,-1.168 -0.242,-2.738 -0.203,-3.949 0,-1.832 0,-3.16 0,-4.532 0,-5.187 -0.188,-7.968 -4.02,-11.519 0.699,-0.469 2.691,-2.07 5.582,-2.07 5.899,0 6.758,4.3 6.758,13.589 0,1.129 0.043,1.02 -0.039,1.993 2.93,-3.243 6.449,-7.852 6.449,-11.75 0,-0.75 0.039,-1.68 -0.269,-2.743 4.679,0 8.199,4.852 8.199,8.051 0,4.879 -7.457,10.899 -9.84,13.551 0.391,0.039 0.66,0.039 0.82,0.039 8.16,0 9.801,-2.73 10.621,-4.762 2.192,1.75 4.059,4.961 4.059,8.981 0,2.312 -0.5,4.883 -4.918,4.883 -4.223,0 -10.66,-0.621 -15.121,-1.403 -3.391,4.723 -10.11,13.942 -13.281,21.09 1.293,-0.23 3.089,-0.391 5.902,-0.391 1.41,0 2.891,0.161 3.75,0.512 -13.512,11.719 -24.801,26.91 -24.801,44.102 0,2.726 0.621,5.508 1.559,8.476 0.351,0.082 0.703,0.114 1.051,0.153 l 34.179,-54.68 c 10.242,-16.18 18.25,-15.902 30.352,-15.902 -9.961,7.613 -16.672,17.5 -19.801,22.5 l -32.07,51.332 c 1.761,0.539 3.441,1.168 5.121,1.789 l 28.398,-45.43 c 10.231,-16.172 18.242,-15.898 30.352,-15.898 -10.082,7.777 -16.602,17.457 -19.813,22.5 l -27.539,44.136 c 1.571,0.864 3.09,1.762 4.571,2.703 l 22.582,-36.132 c 10.238,-16.207 18.238,-15.899 30.347,-15.899 -10.078,7.692 -16.597,17.418 -19.801,22.5 l -23.168,37.071 c 1.372,1.21 2.661,2.5 3.872,3.789 l 16.449,-26.25 c 10.23,-16.211 18.238,-15.942 30.347,-15.942 -10.039,7.742 -16.597,17.461 -19.808,22.543 l -19.059,30.508 c 1.02,1.91 1.918,3.832 2.617,5.82 z m -153.047,35.109 c 0,11.41 8.277,20.391 11.207,22.93 0.711,-0.149 1.41,-0.309 2.109,-0.469 -3.117,-3.789 -8.59,-10.109 -8.59,-18.512 0,-16.679 17.813,-31.168 38.012,-31.168 -0.121,-1.453 -0.199,-2.929 -0.199,-4.5 0,-2.461 0.117,-4.722 0.348,-6.871 -22.809,0.121 -42.887,18.629 -42.887,38.59 m 30.937,-136.762 -0.16,-0.386 h 0.391 c 6.41,0 9.539,0.468 11.609,0.789 1.09,0.109 1.871,0.269 2.692,0.269 1.64,0 2.929,-0.199 2.929,-2.23 0,-1.371 -1.601,-3.508 -3.16,-4.762 -2.351,2.184 -5.629,2.652 -10.43,2.652 -2.23,0 -5.199,-0.429 -6.761,-0.621 l -0.239,-0.039 -0.269,-0.039 0.078,-0.742 c 0.191,-1.328 0.43,-2.969 0.43,-5.238 l -0.039,-1.993 -0.039,-2.539 c 0,-5.429 0.738,-8.507 2.66,-10.859 -0.473,-0.191 -1.289,-0.352 -1.801,-0.352 -3.398,0 -4.379,1.493 -4.379,11.211 0,1.95 -0.07,3.789 -0.152,5 l -0.117,1.84 -0.391,-0.347 c -5.039,-3.832 -10.191,-10.672 -10.512,-15.782 -1.519,0.969 -3.16,3.161 -3.16,4.84 0,2.809 4.223,6.988 9.063,11.828 l 2.769,2.821 0.399,0.351 -0.942,0.231 c -1.058,0.281 -2.969,0.75 -4.648,0.75 -5.43,0 -8.828,-1.02 -10.942,-3.321 -0.777,1.09 -1.398,3.668 -1.398,5.149 0,0.98 0.191,1.64 0.582,2.031 0.469,0.469 1.207,0.469 1.879,0.469 h 0.109 c 6.02,0 13.211,-1.09 15.981,-1.52 l 0.199,-0.039 0.07,0.117 c 0.512,0.664 11.961,15.895 14.93,23.985 0.66,0.269 1.25,0.469 2.461,0.469 2.258,0 2.89,-1.52 3.508,-3.872 -7.149,-8.711 -11.598,-15.468 -13.2,-20.121 m 61.719,23.993 c 1.211,0 1.793,-0.2 2.5,-0.469 2.973,-8.09 14.41,-23.321 14.883,-23.985 l 0.117,-0.117 0.152,0.039 c 2.821,0.43 9.969,1.52 15.981,1.52 h 0.16 c 0.617,0 1.359,0 1.828,-0.469 0.391,-0.391 0.59,-1.051 0.59,-2.031 0,-1.481 -0.629,-4.059 -1.41,-5.149 -2.07,2.301 -5.508,3.321 -10.93,3.321 -1.648,0 -3.597,-0.469 -4.648,-0.75 l -0.43,-0.114 -0.473,-0.117 3.122,-3.172 c 4.89,-4.84 9.07,-9.019 9.07,-11.828 0,-1.679 -1.641,-3.871 -3.129,-4.84 -0.352,5.11 -5.512,11.95 -10.551,15.782 l -0.43,0.347 -0.07,-1.84 c -0.039,-1.211 -0.16,-3.05 -0.16,-5 0,-9.718 -1.02,-11.211 -4.379,-11.211 -0.5,0 -1.281,0.161 -1.793,0.352 1.91,2.352 2.652,5.43 2.652,10.859 l -0.031,2.539 -0.039,1.993 c 0,2.269 0.231,3.91 0.43,5.238 l 0.07,0.742 -0.5,0.078 c -1.609,0.192 -4.531,0.621 -6.762,0.621 -4.808,0 -8.089,-0.468 -10.429,-2.652 -1.559,1.254 -3.168,3.391 -3.168,4.762 0,2.031 1.25,2.23 2.929,2.23 0.821,0 1.61,-0.16 2.7,-0.269 2.07,-0.321 5.199,-0.789 11.601,-0.789 h 0.391 l -0.121,0.386 c -1.641,4.653 -6.09,11.41 -13.242,20.121 0.632,2.352 1.25,3.872 3.519,3.872 M 349.84,803.281 c -0.738,2.973 -2.219,6.012 -4.18,8.321 -1.75,2.07 -4.64,4.531 -8.59,4.531 -1.8,0 -4.769,-0.82 -6.679,-1.641 -0.7,1.289 -2.11,4.41 -2.11,5.821 0,1.441 2.457,2.929 7.149,2.929 10.308,0 16.48,-4.648 16.48,-12.461 0,-2.777 -1.09,-5.277 -2.07,-7.5 m 4.609,10.192 c -0.347,2.187 -1.211,4.179 -2.5,5.898 0.082,2.031 0.903,3.992 4.18,2.383 -1.75,-1.793 -0.43,-5 -0.43,-5 0,0 3.641,1.68 2.852,4.066 5.359,-1.289 1.527,-8.437 -4.102,-7.347 m 20.082,-68.981 c 0.27,2.231 0.43,4.531 0.43,6.871 0,1.289 0,2.821 -0.16,4.5 19.969,0.309 37.429,14.641 37.429,31.168 0,8.403 -5.468,14.723 -8.558,18.512 0.668,0.16 1.367,0.32 2.066,0.469 2.934,-2.539 11.211,-11.52 11.211,-22.93 0,-19.801 -19.801,-38.199 -42.418,-38.59"
         style="fill:#231f20;fill-opacity:1;fill-rule:nonzero;stroke:none"
         transform="matrix(0.13333333,0,0,-0.13333333,0,151.18667)" />
      <path
         id="path4"
         d="m 527.809,817.422 h 35 v -200 h -35 v 200"
         style="fill:#231f20;fill-opacity:1;fill-rule:nonzero;stroke:none"
         transform="matrix(0.13333333,0,0,-0.13333333,0,151.18667)" />
      <path
         id="path5"
         d="m 527.809,618.434 h 35 V 417.41 h -35 v 201.024"
         style="fill:#ed1c24;fill-opacity:1;fill-rule:nonzero;stroke:none"
         transform="matrix(0.13333333,0,0,-0.13333333,0,151.18667)" />
      <path
         id="path6"
         d="m 527.809,417.422 h 35 v -200 h -35 v 200"
         style="fill:#f2cf04;fill-opacity:1;fill-rule:nonzero;stroke:none"
         transform="matrix(0.13333333,0,0,-0.13333333,0,151.18667)" />
      <path
         id="path7"
         d="m 1411.72,787.934 c 6.01,0 8.63,-3.954 8.63,-13.321 v -37.07 h 9.73 v 38.629 c 0,2.191 -0.12,4.219 -0.47,6.012 2.15,2.5 5.74,5.75 11.05,5.75 6.45,0 9.96,-3.954 9.96,-13.321 v -37.07 h 9.69 v 38.629 c 0,13.711 -5.97,20.43 -17.5,20.43 -7.46,0 -12.73,-4.45 -15.23,-7.7 -2.66,5.161 -7.46,7.7 -13.95,7.7 -7.89,0 -12.81,-5.309 -14.37,-7.93 h -0.24 v 6.48 h -8.9 v -57.609 h 9.72 v 44.41 c 1.68,2.027 5.39,5.981 11.88,5.981 z m -45.59,-43.911 h 0.24 v -6.48 h 8.86 v 57.609 h -9.68 v -44.058 c -1.96,-2.383 -5.78,-6.371 -11.64,-6.371 -6.49,0 -9.61,3.871 -9.61,13.32 v 37.109 h -9.73 v -37.808 c 0,-15.59 6.37,-21.25 16.56,-21.25 8.75,0 13.91,5.898 15,7.929 z m -46.09,51.129 h -9.73 v -57.609 h 9.73 z m -4.81,13.911 c 3.87,0 6.49,2.89 6.49,6.949 0,3.988 -2.62,6.84 -6.49,6.84 -3.94,0 -6.6,-2.852 -6.6,-6.84 0,-4.059 2.66,-6.949 6.6,-6.949 z m -13.32,-13.79 c -0.93,0.348 -2.5,0.938 -5.27,0.938 -7.3,0 -10.43,-4.301 -12.11,-8.867 h -0.23 v 7.808 h -8.91 v -57.609 h 9.73 v 42.219 c 1.44,3.871 4.68,7.808 10.82,7.808 2.61,0 4.29,-0.699 4.8,-0.929 z m -38.28,-52.339 -3.59,6.828 c -1.33,-1.289 -5.27,-5.039 -12.11,-5.039 -9.73,0 -15,6.371 -15.59,19.808 h 29.38 c 0.35,2.77 0.74,6.25 0.74,11.172 0,13.789 -6.72,20.899 -17.66,20.899 -11.99,0 -21.95,-9.141 -21.95,-29.532 0,-21.718 9.1,-30.976 23.63,-30.976 10.94,0 15.59,5.156 17.15,6.84 z m -19.41,45.738 c 6.09,0 9.33,-4.692 9.33,-12.621 0,-1.797 -0.11,-3.36 -0.23,-4.18 h -20.86 c 0.47,10.781 4.92,16.801 11.76,16.801 z m -27.38,-50.039 -1.29,7.769 c -0.98,-0.582 -3.13,-1.679 -6.02,-1.679 -4.92,0 -6.83,2.429 -6.83,10.59 v 31.91 h 12.57 l 1.21,7.929 h -13.78 v 16.059 h -8.64 l -1.09,-16.059 -6.95,-1.441 v -6.488 h 6.95 V 753.98 c 0,-12.73 5.04,-17.886 14.88,-17.886 5.16,0 8.17,1.91 8.99,2.539 z m -39.11,51.84 c -1.91,1.91 -5.78,6.129 -14.64,6.129 -9.38,0 -16.68,-6.372 -16.68,-14.879 0,-7.93 4.33,-12.621 11.52,-17.192 l 3.59,-2.269 c 5.51,-3.469 8.4,-5.391 8.4,-10.942 0,-3.707 -3.12,-6.597 -8.87,-6.597 -6.25,0 -9.84,3.75 -11.64,5.668 l -4.68,-7.7 c 2.26,-2.378 6.95,-6.597 16.21,-6.597 11.76,0 18.36,7.066 18.36,16.207 0,8.519 -4.81,13.203 -12.62,17.89 l -3.59,2.153 c -5.16,3.129 -7.54,5.508 -7.54,9.84 0,3.359 2.73,6.136 7.89,6.136 5.43,0 8.79,-3.359 10.08,-4.808 z m -43.9,4.679 h -9.73 v -57.609 h 9.73 z m -4.81,13.911 c 3.83,0 6.49,2.89 6.49,6.949 0,3.988 -2.66,6.84 -6.49,6.84 -3.98,0 -6.6,-2.852 -6.6,-6.84 0,-4.059 2.62,-6.949 6.6,-6.949 z m -39.14,-20.743 c 6.72,0 9.96,-3.988 9.96,-13.707 v -37.07 h 9.73 v 37.809 c 0,15.582 -6.48,21.25 -16.8,21.25 -9.02,0 -14.18,-5.899 -15.23,-7.93 h -0.24 v 6.48 h -8.9 v -57.609 h 9.72 v 44.41 c 1.92,2.379 5.9,6.367 11.76,6.367 z m -36.36,6.832 h -9.69 v -57.609 h 9.69 z m -4.81,13.911 c 3.87,0 6.49,2.89 6.49,6.949 0,3.988 -2.62,6.84 -6.49,6.84 -3.94,0 -6.56,-2.852 -6.56,-6.84 0,-4.059 2.62,-6.949 6.56,-6.949 z m -68.011,-21.129 c 5.981,0 8.641,-3.954 8.641,-13.321 v -37.07 h 9.719 v 38.629 c 0,2.191 -0.11,4.219 -0.508,6.012 2.189,2.5 5.789,5.75 11.059,5.75 6.48,0 9.96,-3.954 9.96,-13.321 v -37.07 h 9.73 v 38.629 c 0,13.711 -6.02,20.43 -17.54,20.43 -7.42,0 -12.701,-4.45 -15.24,-7.7 -2.61,5.161 -7.418,7.7 -13.899,7.7 -7.93,0 -12.851,-5.309 -14.422,-7.93 h -0.23 v 6.48 h -8.867 v -57.609 h 9.726 v 44.41 c 1.684,2.027 5.391,5.981 11.871,5.981 z m -34.57,2.539 c -1.91,1.91 -5.777,6.129 -14.649,6.129 -9.332,0 -16.679,-6.372 -16.679,-14.879 0,-7.93 4.34,-12.621 11.527,-17.192 l 3.594,-2.269 c 5.547,-3.469 8.398,-5.391 8.398,-10.942 0,-3.707 -3.121,-6.597 -8.871,-6.597 -6.25,0 -9.84,3.75 -11.64,5.668 l -4.688,-7.7 c 2.27,-2.378 6.957,-6.597 16.219,-6.597 11.75,0 18.359,7.066 18.359,16.207 0,8.519 -4.808,13.203 -12.621,17.89 l -3.598,2.153 c -5.152,3.129 -7.531,5.508 -7.531,9.84 0,3.359 2.731,6.136 7.891,6.136 5.43,0 8.781,-3.359 10.07,-4.808 z m -40.82,-47.539 -3.59,6.828 c -1.328,-1.289 -5.27,-5.039 -12.11,-5.039 -9.73,0 -15,6.371 -15.589,19.808 h 29.378 c 0.391,2.77 0.743,6.25 0.743,11.172 0,13.789 -6.719,20.899 -17.661,20.899 -11.992,0 -21.949,-9.141 -21.949,-29.532 0,-21.718 9.098,-30.976 23.629,-30.976 10.942,0 15.629,5.156 17.149,6.84 z m -19.411,45.738 c 6.09,0 9.332,-4.692 9.332,-12.621 0,-1.797 -0.109,-3.36 -0.23,-4.18 h -20.859 c 0.468,10.781 4.918,16.801 11.757,16.801 z m -42.738,-45 h 0.238 v -6.129 h 8.903 v 85.93 l -9.723,-1.09 v -27.621 c -1.797,0.742 -4.457,1.449 -8.168,1.449 -12.219,0 -25.43,-7.418 -25.43,-30.707 0,-21.012 9.219,-29.41 20.161,-29.41 9.097,0 12.929,5.777 14.019,7.578 z m -11.398,1.051 c -6.723,0 -12.703,5.32 -12.703,21.14 0,16.321 7.07,22.071 16.062,22.071 3.469,0 5.777,-0.942 7.457,-2.043 v -35.5 c -1.328,-1.918 -4.687,-5.668 -10.816,-5.668 z m -54.34,43.597 c 6.719,0 9.957,-3.988 9.957,-13.707 v -37.07 h 9.73 v 37.809 c 0,15.582 -6.488,21.25 -16.839,21.25 -8.981,0 -14.141,-5.899 -15.231,-7.93 h -0.238 v 6.48 h -8.86 v -57.609 h 9.719 v 44.41 c 1.918,2.379 5.86,6.367 11.762,6.367 z M 731.91,744.023 h 0.281 v -6.48 h 8.86 v 57.609 h -9.723 v -44.058 c -1.918,-2.383 -5.738,-6.371 -11.637,-6.371 -6.492,0 -9.613,3.871 -9.613,13.32 v 37.109 h -9.726 v -37.808 c 0,-15.59 6.367,-21.25 16.558,-21.25 8.789,0 13.949,5.898 15,7.929 z m -55.191,16.68 c 0,-9.492 -5.27,-14.531 -17.5,-14.531 h -6.489 v 29.058 h 7.071 c 10.82,0 16.918,-5.66 16.918,-14.527 z m -1.559,38.16 c 0,-9.492 -5.859,-15.351 -17.039,-15.351 h -5.391 v 28.558 h 5.508 c 11.641,0 16.922,-5.668 16.922,-13.207 z m 10.578,0.36 c 0,12.847 -7.808,21.129 -27.5,21.129 h -15.937 v -82.809 h 16.918 c 19.801,0 28.672,9.488 28.672,22.457 0,11.012 -7.071,18.242 -15.59,19.922 v 0.23 c 7.187,1.918 13.437,7.539 13.437,19.071 v 0"
         style="fill:#231f20;fill-opacity:1;fill-rule:nonzero;stroke:none"
         transform="matrix(0.13333333,0,0,-0.13333333,0,151.18667)" />
      <path
         id="path8"
         d="m 1899.53,600.742 c 6.37,2.262 13.91,7.418 13.91,18.36 0,7.929 -3.24,11.757 -7.93,11.757 -3.36,0 -6.21,-2.148 -6.21,-6.488 0,-4.41 2.85,-6.828 6.6,-6.828 h 0.35 c 0,-6.961 -3.71,-10.082 -8.75,-12.582 z m -32.89,67.578 c 6.72,0 9.96,-3.988 9.96,-13.707 v -37.07 h 9.73 v 37.809 c 0,15.582 -6.49,21.25 -16.8,21.25 -9.02,0 -14.18,-5.899 -15.23,-7.93 h -0.24 v 6.48 h -8.9 v -57.609 h 9.72 v 44.41 c 1.92,2.379 5.9,6.367 11.76,6.367 z m -33.24,-45.386 -3.6,6.828 c -1.32,-1.289 -5.27,-5.039 -12.1,-5.039 -9.73,0 -15,6.371 -15.63,19.808 h 29.41 c 0.36,2.77 0.71,6.25 0.71,11.172 0,13.789 -6.72,20.899 -17.62,20.899 -11.99,0 -21.95,-9.141 -21.95,-29.532 0,-21.718 9.1,-30.976 23.63,-30.976 10.9,0 15.59,5.156 17.15,6.84 z m -19.42,45.738 c 6.1,0 9.34,-4.692 9.34,-12.621 0,-1.797 -0.12,-3.36 -0.23,-4.18 h -20.9 c 0.51,10.781 4.92,16.801 11.79,16.801 z m -25.7,6.601 c -0.94,0.348 -2.5,0.938 -5.27,0.938 -7.31,0 -10.43,-4.301 -12.11,-8.867 h -0.24 v 7.808 h -8.9 v -57.609 h 9.72 v 42.219 c 1.45,3.871 4.69,7.808 10.82,7.808 2.62,0 4.3,-0.699 4.77,-0.929 z m -48.83,-28.953 c 0,-15.226 -4.68,-21.597 -12.61,-21.597 -7.89,0 -12.7,6.371 -12.7,21.597 0,15.282 4.65,22 12.58,22 7.93,0 12.73,-6.718 12.73,-22 z m -35.39,0 c 0,-21.597 9.69,-30.226 22.42,-30.226 12.62,0 23.05,8.789 23.05,30.226 0,21.25 -9.73,30.282 -22.46,30.282 -12.34,0 -23.01,-9.032 -23.01,-30.282 z m -12.26,28.832 h -9.73 v -57.609 h 9.73 z m -4.81,13.911 c 3.87,0 6.49,2.89 6.49,6.949 0,3.988 -2.62,6.84 -6.49,6.84 -3.94,0 -6.6,-2.852 -6.6,-6.84 0,-4.059 2.66,-6.949 6.6,-6.949 z m -39.1,-20.743 c 6.72,0 9.96,-3.988 9.96,-13.707 v -37.07 h 9.73 v 37.809 c 0,15.582 -6.49,21.25 -16.8,21.25 -9.02,0 -14.18,-5.899 -15.27,-7.93 h -0.24 v 6.48 h -8.86 v -57.609 h 9.72 v 44.41 c 1.92,2.379 5.86,6.367 11.76,6.367 z m -33.24,-45.386 -3.6,6.828 c -1.32,-1.289 -5.27,-5.039 -12.1,-5.039 -9.73,0 -15,6.371 -15.63,19.808 h 29.41 c 0.36,2.77 0.71,6.25 0.71,11.172 0,13.789 -6.72,20.899 -17.62,20.899 -12.03,0 -21.99,-9.141 -21.99,-29.532 0,-21.718 9.14,-30.976 23.67,-30.976 10.9,0 15.59,5.156 17.15,6.84 z m -19.45,45.738 c 6.13,0 9.37,-4.692 9.37,-12.621 0,-1.797 -0.12,-3.36 -0.23,-4.18 h -20.9 c 0.51,10.781 4.92,16.801 11.76,16.801 z m -32.97,26.871 c -1.84,1.449 -7.11,6.25 -18.13,6.25 -12.97,0 -21.25,-8.16 -21.25,-18.859 0,-11.371 5.27,-16.922 14.42,-24.571 l 6.71,-5.672 c 6.96,-5.859 10.32,-9.718 10.32,-16.91 0,-5.629 -4.57,-10.308 -12.74,-10.308 -8.51,0 -14.02,5.269 -16.09,7.179 l -4.18,-9.101 c 2.38,-2.188 8.63,-7.457 20.51,-7.457 14.88,0 23.04,8.519 23.04,21.129 0,10.781 -6.13,17.269 -13.9,23.75 l -6.72,5.507 c -7.58,6.133 -11.06,10.243 -11.06,16.68 0,5.203 3.72,9.613 10.94,9.613 7.66,0 12.46,-3.832 13.79,-5.16 z m -87.27,-94.801 c 6.37,2.262 13.95,7.418 13.95,18.36 0,7.929 -3.25,11.757 -7.93,11.757 -3.36,0 -6.25,-2.148 -6.25,-6.488 0,-4.41 2.89,-6.828 6.6,-6.828 h 0.35 c 0,-6.961 -3.71,-10.082 -8.75,-12.582 z m -10.43,22.192 -3.59,6.828 c -1.33,-1.289 -5.28,-5.039 -12.15,-5.039 -9.69,0 -15,6.371 -15.59,19.808 h 29.42 c 0.35,2.77 0.7,6.25 0.7,11.172 0,13.789 -6.72,20.899 -17.62,20.899 -12.03,0 -21.99,-9.141 -21.99,-29.532 0,-21.718 9.14,-30.976 23.67,-30.976 10.9,0 15.59,5.156 17.15,6.84 z m -19.45,45.738 c 6.13,0 9.37,-4.692 9.37,-12.621 0,-1.797 -0.11,-3.36 -0.23,-4.18 h -20.9 c 0.47,10.781 4.92,16.801 11.76,16.801 z m -33.6,6.48 h -9.72 v -57.609 h 9.72 z m -4.8,13.911 c 3.87,0 6.48,2.89 6.48,6.949 0,3.988 -2.61,6.84 -6.48,6.84 -3.95,0 -6.6,-2.852 -6.6,-6.84 0,-4.059 2.65,-6.949 6.6,-6.949 z m -22.66,14.41 -9.72,-1.09 v -72.231 c 0,-10.191 4.41,-13.711 10.9,-13.711 4.33,0 6.83,1.102 7.81,1.563 l -0.82,7.226 c -0.63,-0.23 -1.84,-0.738 -3.64,-0.738 -3.35,0 -4.53,1.68 -4.53,6.481 z m -24.49,-28.321 h -9.73 v -57.609 h 9.73 z m -4.8,13.911 c 3.82,0 6.48,2.89 6.48,6.949 0,3.988 -2.66,6.84 -6.48,6.84 -3.95,0 -6.61,-2.852 -6.61,-6.84 0,-4.059 2.66,-6.949 6.61,-6.949 z m -68.05,-21.129 c 6.02,0 8.63,-3.954 8.63,-13.321 v -37.07 h 9.73 v 38.629 c 0,2.191 -0.12,4.219 -0.47,6.012 2.15,2.5 5.74,5.75 11.05,5.75 6.45,0 9.97,-3.954 9.97,-13.321 v -37.07 h 9.68 v 38.629 c 0,13.711 -5.97,20.43 -17.5,20.43 -7.46,0 -12.73,-4.45 -15.23,-7.7 -2.66,5.161 -7.46,7.7 -13.95,7.7 -7.89,0 -12.81,-5.309 -14.37,-7.93 h -0.24 v 6.48 h -8.9 v -57.609 h 9.72 v 44.41 c 1.68,2.027 5.4,5.981 11.88,5.981 z m -45.82,-25.204 v -12.687 c -1.21,-1.801 -3.98,-5.672 -9.61,-5.672 -4.8,0 -7.7,3.012 -7.7,8.91 0,6.332 4.93,8.981 14.18,9.332 z m 0,7.231 h -3.01 c -13.08,0 -23.98,-4.457 -23.98,-17.777 0,-9.371 6.56,-16.09 15.35,-16.09 7.3,0 10.78,4.918 12.11,7.808 h 0.23 c 0.12,-2.89 0.24,-4.679 0.35,-6.359 h 9.26 c -0.23,1.559 -0.74,7.07 -0.74,11.988 v 26.289 c 0,14.532 -6.21,20.782 -17.97,20.782 -9.26,0 -14.76,-4.45 -17.3,-6.989 l 4.1,-6.492 c 2.15,1.949 5.97,5.199 11.76,5.199 6.25,0 9.84,-3.129 9.84,-12.847 z m -62.03,-32.418 v 35.617 h 27.22 v 8.281 h -27.22 v 30.629 h 29.49 l 0.74,8.282 h -40.7 v -82.809 z m -62.07,-16.801 c 6.36,2.262 13.94,7.418 13.94,18.36 0,7.929 -3.24,11.757 -7.93,11.757 -3.36,0 -6.25,-2.148 -6.25,-6.488 0,-4.41 2.89,-6.828 6.6,-6.828 h 0.36 c 0,-6.961 -3.71,-10.082 -8.75,-12.582 z m -36.6,-0.351 c -6.84,0 -10.2,3.121 -10.2,9.222 0,5.778 3.13,8.508 5.9,10.071 1.33,-0.231 2.85,-0.352 4.41,-0.352 h 7.35 c 5.86,0 9.72,-2.148 9.72,-7.648 0,-5.903 -5.43,-11.293 -17.18,-11.293 z m 27.14,12.691 c 0,10.941 -8.16,15.281 -19.1,15.281 h -7.3 c -4.22,0 -5.9,1.68 -5.9,4.059 0,3.012 2.77,4.57 4.69,5.391 0.97,-0.122 1.91,-0.122 3.01,-0.122 11.28,0 19.92,7.352 19.92,19.571 0,3.832 -0.98,7.422 -2.78,10.308 h 7.19 l 1.33,7.582 h -17.5 c -2.42,0.942 -4.92,1.45 -7.7,1.45 -10.78,0 -19.57,-6.372 -19.57,-19.34 0,-9.141 3.99,-14.879 9.85,-17.649 v -0.242 c -1.45,-0.699 -6.96,-3.121 -6.96,-9.328 0,-3.641 1.33,-6.25 3.72,-8.051 v -0.238 c -2.62,-1.441 -9.58,-5.543 -9.58,-14.063 0,-9.961 6.61,-15.578 18.83,-15.578 17.03,0 27.85,8.629 27.85,20.969 z m -14.18,44.18 c 0,-8.282 -4.57,-11.52 -10.07,-11.52 -5.28,0 -9.96,3.238 -9.96,11.52 0,8.281 4.68,11.531 10.19,11.531 5.27,0 9.84,-3.25 9.84,-11.531 z m -61.56,11.058 c 6.72,0 9.96,-3.988 9.96,-13.707 v -37.07 h 9.73 v 37.809 c 0,15.582 -6.48,21.25 -16.8,21.25 -9.02,0 -14.18,-5.899 -15.23,-7.93 h -0.24 v 6.48 h -8.9 v -57.609 h 9.72 v 44.41 c 1.92,2.379 5.9,6.367 11.76,6.367 z m -45.47,-44.297 h 0.238 v -6.48 h 8.871 v 57.609 h -9.687 v -44.058 c -1.961,-2.383 -5.782,-6.371 -11.641,-6.371 -6.492,0 -9.609,3.871 -9.609,13.32 v 37.109 h -9.731 v -37.808 c 0,-15.59 6.367,-21.25 16.559,-21.25 8.75,0 13.91,5.898 15,7.929 z m -55.192,-0.351 h 0.231 v -6.129 H 940 v 85.93 l -9.73,-1.09 v -27.621 c -1.79,0.742 -4.411,1.449 -8.122,1.449 -12.269,0 -25.468,-7.418 -25.468,-30.707 0,-21.012 9.261,-29.41 20.16,-29.41 9.14,0 12.961,5.777 14.058,7.578 z m -11.41,1.051 c -6.718,0 -12.726,5.32 -12.726,21.136 0,16.325 7.109,22.075 16.09,22.075 3.476,0 5.738,-0.942 7.418,-2.043 v -35.5 c -1.29,-1.918 -4.649,-5.668 -10.782,-5.668 z m -37.929,78.75 -9.719,-1.09 v -72.231 c 0,-10.191 4.449,-13.711 10.93,-13.711 4.3,0 6.839,1.102 7.82,1.563 l -0.86,7.226 c -0.589,-0.23 -1.8,-0.738 -3.601,-0.738 -3.359,0 -4.57,1.68 -4.57,6.481 z M 857.07,675.152 h -9.691 v -57.609 h 9.691 z m -4.769,13.911 c 3.828,0 6.449,2.89 6.449,6.949 0,3.988 -2.621,6.84 -6.449,6.84 -3.981,0 -6.602,-2.852 -6.602,-6.84 0,-4.059 2.621,-6.949 6.602,-6.949 z m -28.942,-48.36 c 0,-9.492 -5.269,-14.531 -17.5,-14.531 h -6.48 v 29.058 h 7.07 c 10.821,0 16.91,-5.66 16.91,-14.527 z m -1.558,38.16 c 0,-9.492 -5.86,-15.351 -17.031,-15.351 h -5.391 v 28.558 h 5.5 c 11.641,0 16.922,-5.668 16.922,-13.207 z m 10.578,0.36 c 0,12.847 -7.809,21.129 -27.5,21.129 h -15.93 v -82.809 h 16.91 c 19.801,0 28.672,9.488 28.672,22.457 0,11.012 -7.07,18.242 -15.582,19.922 v 0.23 c 7.18,1.918 13.43,7.539 13.43,19.071 z m -76.559,-3.95 c -0.98,0.348 -2.539,0.938 -5.269,0.938 -7.352,0 -10.473,-4.301 -12.153,-8.867 h -0.238 v 7.808 h -8.859 v -57.609 h 9.719 v 42.219 c 1.449,3.871 4.652,7.808 10.781,7.808 2.66,0 4.34,-0.699 4.808,-0.929 z m -50.55,-51.25 h 0.281 v -6.48 h 8.859 v 57.609 h -9.719 v -44.058 c -1.921,-2.383 -5.742,-6.371 -11.64,-6.371 -6.492,0 -9.61,3.871 -9.61,13.32 v 37.109 h -9.73 v -37.808 c 0,-15.59 6.367,-21.25 16.559,-21.25 8.789,0 13.949,5.898 15,7.929 z m -14.719,67.7 c 0,3.711 -2.539,6.09 -5.781,6.09 -3.25,0 -5.75,-2.379 -5.75,-6.09 0,-3.75 2.5,-6.141 5.75,-6.141 3.242,0 5.781,2.391 5.781,6.141 z m 18.469,0 c 0,3.711 -2.54,6.09 -5.782,6.09 -3.238,0 -5.738,-2.379 -5.738,-6.09 0,-3.75 2.5,-6.141 5.738,-6.141 3.242,0 5.782,2.391 5.782,6.141 z m -44.532,-24.5 1.211,7.929 H 652.73 v 10.321 c 0,7.531 2.5,10.07 7.071,10.07 2.539,0 4.34,-0.973 5.277,-1.563 l 2.07,8.051 c -0.976,0.582 -4.097,2.153 -8.168,2.153 -8.511,0 -15.968,-5.043 -15.968,-17.621 v -11.52 l -6.961,-1.332 v -6.488 h 6.961 v -49.68 h 9.718 v 49.68 h 11.758"
         style="fill:#231f20;fill-opacity:1;fill-rule:nonzero;stroke:none"
         transform="matrix(0.13333333,0,0,-0.13333333,0,151.18667)" />
      <path
         id="path9"
         d="m 1430.2,503.672 h 0.23 v -6.129 h 8.91 v 85.93 l -9.73,-1.09 v -27.621 c -1.8,0.742 -4.45,1.449 -8.16,1.449 -12.23,0 -25.43,-7.418 -25.43,-30.707 0,-21.012 9.21,-29.41 20.15,-29.41 9.1,0 12.97,5.777 14.03,7.578 z m -11.41,1.051 c -6.72,0 -12.7,5.32 -12.7,21.136 0,16.325 7.07,22.075 16.06,22.075 3.51,0 5.78,-0.942 7.46,-2.043 v -35.5 c -1.33,-1.918 -4.69,-5.668 -10.82,-5.668 z m -54.34,43.597 c 6.72,0 9.96,-3.988 9.96,-13.707 v -37.07 h 9.73 v 37.809 c 0,15.582 -6.48,21.25 -16.8,21.25 -9.02,0 -14.18,-5.899 -15.27,-7.93 h -0.23 v 6.48 h -8.87 v -57.609 h 9.73 v 44.41 c 1.91,2.379 5.85,6.367 11.75,6.367 z m -33.24,-45.386 -3.59,6.828 c -1.33,-1.289 -5.28,-5.039 -12.15,-5.039 -9.69,0 -15,6.371 -15.59,19.808 h 29.42 c 0.35,2.77 0.7,6.25 0.7,11.172 0,13.789 -6.72,20.899 -17.62,20.899 -12.03,0 -21.99,-9.141 -21.99,-29.532 0,-21.718 9.14,-30.976 23.67,-30.976 10.9,0 15.59,5.156 17.15,6.84 z m -19.45,45.738 c 6.13,0 9.37,-4.692 9.37,-12.621 0,-1.797 -0.11,-3.36 -0.23,-4.18 H 1300 c 0.47,10.781 4.92,16.801 11.76,16.801 z m -55.9,-68.281 c -6.84,0 -10.2,3.121 -10.2,9.222 0,5.778 3.09,8.508 5.86,10.071 1.33,-0.231 2.89,-0.352 4.46,-0.352 h 7.3 c 5.9,0 9.73,-2.148 9.73,-7.648 0,-5.903 -5.39,-11.293 -17.15,-11.293 z m 27.11,12.691 c 0,10.941 -8.17,15.281 -19.06,15.281 h -7.35 c -4.18,0 -5.86,1.68 -5.86,4.059 0,3.012 2.74,4.57 4.65,5.391 0.98,-0.122 1.95,-0.122 3.01,-0.122 11.29,0 19.92,7.352 19.92,19.571 0,3.832 -0.94,7.422 -2.73,10.308 h 7.18 l 1.33,7.582 h -17.54 c -2.38,0.942 -4.92,1.45 -7.65,1.45 -10.82,0 -19.57,-6.372 -19.57,-19.34 0,-9.141 3.94,-14.879 9.84,-17.649 v -0.242 c -1.44,-0.699 -6.95,-3.121 -6.95,-9.328 0,-3.641 1.29,-6.25 3.71,-8.051 v -0.238 c -2.66,-1.441 -9.61,-5.543 -9.61,-14.063 0,-9.961 6.6,-15.578 18.83,-15.578 17.07,0 27.85,8.629 27.85,20.969 z m -14.18,44.18 c 0,-8.282 -4.53,-11.52 -10.08,-11.52 -5.27,0 -9.96,3.238 -9.96,11.52 0,8.281 4.69,11.531 10.23,11.531 5.28,0 9.81,-3.25 9.81,-11.531 z m -51.33,-33.239 h 0.24 v -6.48 h 8.86 v 57.609 h -9.72 v -44.058 c -1.92,-2.383 -5.75,-6.371 -11.64,-6.371 -6.49,0 -9.58,3.871 -9.58,13.32 v 37.109 h -9.72 v -37.808 c 0,-15.59 6.37,-21.25 16.56,-21.25 8.75,0 13.91,5.898 15,7.929 z m -47.66,76.329 h -10.42 v -63.129 c 0,-8.86 -2.78,-11.75 -8.17,-11.75 -2.77,0 -4.33,0.82 -5.27,1.437 l -1.68,-8.629 c 1.05,-0.629 3.47,-1.84 7.42,-1.84 10.94,0 18.12,5.2 18.12,19.692 z m -66.36,-76.68 h 0.23 v -6.129 h 8.91 v 85.93 l -9.73,-1.09 v -27.621 c -1.8,0.742 -4.45,1.449 -8.16,1.449 -12.23,0 -25.43,-7.418 -25.43,-30.707 0,-21.012 9.22,-29.41 20.15,-29.41 9.11,0 12.97,5.777 14.03,7.578 z m -11.41,1.051 c -6.72,0 -12.69,5.32 -12.69,21.136 0,16.325 7.07,22.075 16.05,22.075 3.52,0 5.78,-0.942 7.46,-2.043 v -35.5 c -1.33,-1.918 -4.69,-5.668 -10.82,-5.668 z m -54.33,43.597 c 6.71,0 9.96,-3.988 9.96,-13.707 v -37.07 h 9.72 v 37.809 c 0,15.582 -6.48,21.25 -16.79,21.25 -9.03,0 -14.18,-5.899 -15.28,-7.93 h -0.23 v 6.48 h -8.87 v -57.609 h 9.73 v 44.41 c 1.91,2.379 5.86,6.367 11.76,6.367 z m -45.47,-44.297 h 0.231 v -6.48 h 8.869 v 57.609 h -9.728 v -44.058 c -1.911,-2.383 -5.743,-6.371 -11.641,-6.371 -6.481,0 -9.609,3.871 -9.609,13.32 v 37.109 h -9.692 v -37.808 c 0,-15.59 6.328,-21.25 16.57,-21.25 8.75,0 13.899,5.898 15,7.929 z m -90.859,44.297 c 6.719,0 9.957,-3.988 9.957,-13.707 v -37.07 h 9.723 v 37.809 c 0,15.582 -6.481,21.25 -16.789,21.25 -9.032,0 -14.184,-5.899 -15.242,-7.93 h -0.27 v 6.48 h -8.871 v -57.609 h 9.73 v 44.41 c 1.911,2.379 5.903,6.367 11.762,6.367 z m -33.25,-45.386 -3.59,6.828 c -1.332,-1.289 -5.269,-5.039 -12.109,-5.039 -9.723,0 -15,6.371 -15.621,19.808 h 29.41 c 0.348,2.77 0.699,6.25 0.699,11.172 0,13.789 -6.711,20.899 -17.609,20.899 -12,0 -21.961,-9.141 -21.961,-29.532 0,-21.718 9.109,-30.976 23.64,-30.976 10.899,0 15.579,5.156 17.141,6.84 z m -19.449,45.738 c 6.129,0 9.379,-4.692 9.379,-12.621 0,-1.797 -0.121,-3.36 -0.242,-4.18 H 836.91 c 0.512,10.781 4.93,16.801 11.762,16.801 z M 805.98,504.023 h 0.231 v -6.48 h 8.867 v 57.609 h -9.726 v -44.058 c -1.911,-2.383 -5.743,-6.371 -11.641,-6.371 -6.441,0 -9.57,3.871 -9.57,13.32 v 37.109 h -9.731 v -37.808 c 0,-15.59 6.371,-21.25 16.57,-21.25 8.75,0 13.899,5.898 15,7.929 z m -55.429,18.707 v -12.687 c -1.211,-1.801 -3.992,-5.672 -9.61,-5.672 -4.812,0 -7.703,3.012 -7.703,8.91 0,6.332 4.922,8.981 14.184,9.332 z m 0,7.231 h -3.012 c -13.09,0 -24.019,-4.457 -24.019,-17.777 0,-9.371 6.601,-16.09 15.39,-16.09 7.301,0 10.781,4.918 12.11,7.808 h 0.23 c 0.121,-2.89 0.23,-4.679 0.352,-6.359 h 9.257 c -0.238,1.559 -0.738,7.07 -0.738,11.988 v 26.289 c 0,14.532 -6.211,20.782 -17.973,20.782 -9.257,0 -14.769,-4.45 -17.308,-6.989 l 4.109,-6.492 c 2.141,1.949 5.973,5.199 11.75,5.199 6.211,0 9.852,-3.129 9.852,-12.847 z m -31.449,25.312 c -0.981,0.348 -2.543,0.938 -5.274,0.938 -7.348,0 -10.469,-4.301 -12.148,-8.867 h -0.231 v 7.808 h -8.871 v -57.609 h 9.723 v 42.219 c 1.41,3.871 4.648,7.808 10.789,7.808 2.648,0 4.332,-0.699 4.801,-0.929 z m -66.372,-57.73 v 35.617 h 27.231 v 8.281 H 652.73 v 30.629 h 29.54 l 0.699,8.282 h -40.668 v -82.809 h 10.429"
         style="fill:#231f20;fill-opacity:1;fill-rule:nonzero;stroke:none"
         transform="matrix(0.13333333,0,0,-0.13333333,0,151.18667)" />
      <path
         id="path10"
         d="m 282.891,1109.57 c -2.309,1.47 -6.821,3.26 -13.02,3.26 -13.332,0 -26.555,-8.61 -26.555,-30.66 0,-21.21 10.282,-31.91 24.875,-31.91 5.985,0 10.5,1.15 13.758,2.52 v 20.99 l -6.515,1.47 c -1.043,0.21 -1.465,0.53 -1.465,1.16 0,0.94 0.734,2.2 1.152,2.94 h 21.836 c 0,0 0.109,-0.42 0.109,-0.95 0,-1.68 -0.839,-2.94 -3.574,-3.57 l -2.414,-0.52 v -22.36 c -2.832,-2.63 -10.183,-7.98 -25.301,-7.98 -18.058,0 -32.226,11.65 -32.226,37.16 0,27.3 19.945,37.79 36.953,37.79 10.809,0 16.168,-3.03 19.629,-4.4 0.215,-3.05 0.527,-10.19 0.527,-10.81 0,-2.84 -0.84,-4.62 -3.148,-4.62 -0.739,0 -1.473,0.1 -2.313,0.42 l -2.308,10.07"
         style="fill:#231f20;fill-opacity:1;fill-rule:nonzero;stroke:none"
         transform="matrix(0.13333333,0,0,-0.13333333,0,151.18667)" />
      <path
         id="path11"
         d="m 335.293,1075.77 c 0.211,0.84 0.523,2.62 0.523,4.41 0,5.88 -2.304,11.23 -9.238,11.23 -6.926,0 -11.019,-5.14 -11.965,-15.64 z m -20.785,-5.04 c 0.105,-13.33 6.191,-20.47 16.269,-20.47 6.825,0 10.496,2.94 12.914,4.93 0.84,-0.62 1.258,-2.1 1.364,-3.04 0,-2.62 -6.719,-8.19 -17.844,-8.19 -11.758,0 -21.731,7.25 -21.731,25.51 0,18.27 10.915,27.4 22.153,27.4 11.23,0 17.109,-7.24 17.109,-17.64 0,-2.73 -0.527,-5.77 -1.152,-8.5 h -29.082"
         style="fill:#231f20;fill-opacity:1;fill-rule:nonzero;stroke:none"
         transform="matrix(0.13333333,0,0,-0.13333333,0,151.18667)" />
      <path
         id="path12"
         d="M 382.965,1090.15 H 369.84 v -39.47 l 7.348,-1.37 c 1.05,-0.2 1.468,-0.52 1.468,-1.36 0,-1.05 -0.629,-2.2 -1.051,-2.73 h -23.304 c 0,0 -0.106,0.42 -0.106,0.73 0,1.9 1.258,2.84 3.254,3.47 l 3.883,1.26 v 39.47 h -7.977 c 0,0 -0.101,0.42 -0.101,0.73 0,2 1.258,2.94 3.254,3.47 l 4.824,1.26 v 1.57 c 0,16.7 9.137,24.89 17.746,24.89 4.406,0 6.297,-2 6.297,-4.94 0,-1.89 -0.945,-3.04 -1.785,-3.88 -0.735,0.42 -3.672,1.89 -6.82,1.89 -5.25,0 -6.93,-2.62 -6.93,-8.93 v -10.6 h 14.168 l -1.043,-5.46"
         style="fill:#231f20;fill-opacity:1;fill-rule:nonzero;stroke:none"
         transform="matrix(0.13333333,0,0,-0.13333333,0,151.18667)" />
      <path
         id="path13"
         d="m 421.813,1104.74 c -2.836,0 -5.149,2.1 -5.149,5.36 0,3.26 2.313,5.35 5.149,5.35 2.832,0 5.14,-2.09 5.14,-5.35 0,-3.26 -2.308,-5.36 -5.14,-5.36 z m -17.852,0 c -2.832,0 -5.145,2.1 -5.145,5.36 0,3.26 2.313,5.35 5.145,5.35 2.836,0 5.144,-2.09 5.144,-5.35 0,-3.26 -2.308,-5.36 -5.144,-5.36 z m -5.664,-34.33 c 0,-14.06 6.297,-20.68 14.59,-20.68 8.289,0 14.804,6.62 14.804,20.68 0,14.07 -6.515,20.79 -14.804,20.79 -8.293,0 -14.59,-6.72 -14.59,-20.79 z m 38.633,0.53 c 0,-18.05 -12.598,-26.98 -24.778,-26.98 -12.175,0 -23.093,8.4 -23.093,25.93 0,17.53 12.382,26.98 25.086,26.98 12.179,0 22.785,-7.87 22.785,-25.93"
         style="fill:#231f20;fill-opacity:1;fill-rule:nonzero;stroke:none"
         transform="matrix(0.13333333,0,0,-0.13333333,0,151.18667)" />
      <path
         id="path14"
         d="m 460.766,1087.42 h 0.312 c 2.207,3.36 6.09,9.45 13.332,9.45 4.938,0 7.035,-2.21 7.035,-5.15 0,-1.99 -0.941,-3.46 -1.679,-4.4 -1.258,0.52 -3.883,1.57 -6.93,1.57 -5.77,0 -8.816,-2.31 -11.445,-5.98 v -32.23 l 7.355,-1.37 c 1.043,-0.2 1.465,-0.52 1.465,-1.36 0,-1.05 -0.625,-2.2 -1.047,-2.73 h -23.309 c 0,0 -0.101,0.42 -0.101,0.73 0,1.9 1.258,2.84 3.254,3.47 l 3.883,1.26 v 39.16 l -7.661,1.04 c 0,0 -0.109,0.42 -0.109,0.84 0,1.79 1.367,3.05 3.887,3.26 l 12.383,1.26 -0.625,-8.82"
         style="fill:#231f20;fill-opacity:1;fill-rule:nonzero;stroke:none"
         transform="matrix(0.13333333,0,0,-0.13333333,0,151.18667)" />
      <path
         id="path15"
         d="m 521.559,1087.21 c -1.789,1.79 -5.039,3.78 -10.079,3.78 -9.031,0 -15.957,-6.93 -15.957,-20.58 0,-13.85 5.985,-19.62 13.856,-19.62 7.141,0 10.711,3.04 12.18,4.51 z m 8.504,-36.22 7.664,-1.04 c 0,0 0.101,-0.42 0.101,-0.84 0,-1.79 -1.363,-3.05 -3.883,-3.26 l -11.757,-1.26 v 6.62 h -0.317 c -2.414,-3.36 -6.719,-7.25 -15.012,-7.25 -9.968,0 -20.156,6.09 -20.156,24.99 0,19.63 13.231,27.92 25.824,27.92 3.883,0 7.039,-0.73 9.032,-1.37 v 19.54 l -7.668,1.04 c 0,0 -0.102,0.42 -0.102,0.84 0,1.79 1.363,3.04 3.883,3.26 l 12.391,1.25 v -70.44"
         style="fill:#231f20;fill-opacity:1;fill-rule:nonzero;stroke:none"
         transform="matrix(0.13333333,0,0,-0.13333333,0,151.18667)" />
      <path
         id="path16"
         d="m 575.211,1075.77 c 0.211,0.84 0.527,2.62 0.527,4.41 0,5.88 -2.316,11.23 -9.238,11.23 -6.934,0 -11.027,-5.14 -11.973,-15.64 z m -20.785,-5.04 c 0.101,-13.33 6.195,-20.47 16.273,-20.47 6.821,0 10.496,2.94 12.91,4.93 0.84,-0.62 1.258,-2.1 1.368,-3.04 0,-2.62 -6.719,-8.19 -17.852,-8.19 -11.758,0 -21.73,7.25 -21.73,25.51 0,18.27 10.918,27.4 22.148,27.4 11.234,0 17.113,-7.24 17.113,-17.64 0,-2.73 -0.519,-5.77 -1.156,-8.5 h -29.074"
         style="fill:#231f20;fill-opacity:1;fill-rule:nonzero;stroke:none"
         transform="matrix(0.13333333,0,0,-0.13333333,0,151.18667)" />
      <path
         id="path17"
         d="m 609.027,1087.42 h 0.313 c 2.207,3.36 6.09,9.45 13.332,9.45 4.933,0 7.035,-2.21 7.035,-5.15 0,-1.99 -0.941,-3.46 -1.68,-4.4 -1.257,0.52 -3.882,1.57 -6.929,1.57 -5.77,0 -8.817,-2.31 -11.446,-5.98 v -32.23 l 7.356,-1.37 c 1.043,-0.2 1.465,-0.52 1.465,-1.36 0,-1.05 -0.625,-2.2 -1.047,-2.73 h -23.309 c 0,0 -0.101,0.42 -0.101,0.73 0,1.9 1.257,2.84 3.254,3.47 l 3.882,1.26 v 39.16 l -7.66,1.04 c 0,0 -0.109,0.42 -0.109,0.84 0,1.79 1.367,3.05 3.887,3.26 l 12.382,1.26 -0.625,-8.82"
         style="fill:#231f20;fill-opacity:1;fill-rule:nonzero;stroke:none"
         transform="matrix(0.13333333,0,0,-0.13333333,0,151.18667)" />
      <path
         id="path18"
         d="m 664.668,1090.15 h -14.695 v -32.33 c 0,-3.99 1.359,-7.77 6.82,-7.77 4.098,0 7.875,2 8.715,2.62 0.422,-0.62 0.738,-2.2 0.738,-3.04 0,-0.94 -3.469,-5.67 -12.496,-5.67 -8.715,0 -12.281,5.04 -12.281,12.07 v 34.12 h -7.977 c 0,0 -0.109,0.42 -0.109,0.73 0,2 1.262,2.94 3.254,3.47 l 5.254,1.26 1.992,14.07 h 6.09 v -14.07 h 15.746 l -1.051,-5.46"
         style="fill:#231f20;fill-opacity:1;fill-rule:nonzero;stroke:none"
         transform="matrix(0.13333333,0,0,-0.13333333,0,151.18667)" />
      <path
         id="path19"
         d="m 737.113,1090.36 -17.84,-45.14 h -6.828 l -18.054,45.46 -4.727,1.57 c 0,0 -0.101,0.63 -0.101,0.84 0,1.68 1.359,2.52 2.937,2.52 h 17.113 c 0.84,0 1.262,-0.42 1.262,-1.05 0,-0.63 -0.527,-1.89 -0.738,-2.31 l -5.879,-1.68 12.699,-35.9 h 0.215 l 13.75,35.9 -7.77,1.68 c 0,0 -0.101,0.63 -0.101,0.84 0,1.68 1.363,2.52 2.941,2.52 h 15.641 c 0.84,0 1.258,-0.42 1.258,-1.05 0,-0.63 -0.524,-1.89 -0.739,-2.31 l -5.039,-1.89"
         style="fill:#231f20;fill-opacity:1;fill-rule:nonzero;stroke:none"
         transform="matrix(0.13333333,0,0,-0.13333333,0,151.18667)" />
      <path
         id="path20"
         d="m 755.914,1070.41 c 0,-14.06 6.297,-20.68 14.594,-20.68 8.297,0 14.801,6.62 14.801,20.68 0,14.07 -6.504,20.79 -14.801,20.79 -8.297,0 -14.594,-6.72 -14.594,-20.79 z m 38.633,0.53 c 0,-18.05 -12.598,-26.98 -24.777,-26.98 -12.176,0 -23.094,8.4 -23.094,25.93 0,17.53 12.39,26.98 25.094,26.98 12.175,0 22.777,-7.87 22.777,-25.93"
         style="fill:#231f20;fill-opacity:1;fill-rule:nonzero;stroke:none"
         transform="matrix(0.13333333,0,0,-0.13333333,0,151.18667)" />
      <path
         id="path21"
         d="m 883.051,1050.68 6.301,-1.37 c 1.054,-0.2 1.472,-0.52 1.472,-1.36 0,-1.05 -0.633,-2.2 -1.054,-2.73 h -22.254 c 0,0 -0.11,0.42 -0.11,0.73 0,1.9 1.27,2.84 3.262,3.47 l 3.887,1.26 v 26.87 c 0,9.56 -4.832,12.29 -10.078,12.29 -7.461,0 -11.239,-3.05 -14.071,-5.68 0.313,-1.88 0.633,-3.88 0.633,-6.08 v -27.4 l 6.289,-1.37 c 1.055,-0.2 1.477,-0.52 1.477,-1.36 0,-1.05 -0.637,-2.2 -1.047,-2.73 h -22.262 c 0,0 -0.101,0.42 -0.101,0.73 0,1.9 1.261,2.84 3.253,3.47 l 3.887,1.26 v 26.87 c 0,9.56 -4.836,12.29 -10.078,12.29 -6.934,0 -10.715,-2.73 -13.437,-5.15 v -34.01 l 6.296,-1.37 c 1.047,-0.2 1.465,-0.52 1.465,-1.36 0,-1.05 -0.625,-2.2 -1.043,-2.73 H 803.48 c 0,0 -0.105,0.42 -0.105,0.73 0,1.9 1.258,2.84 3.25,3.47 l 3.887,1.26 v 39.16 l -7.664,1.04 c 0,0 -0.106,0.42 -0.106,0.84 0,1.79 1.363,3.05 3.883,3.26 l 12.395,1.26 -0.637,-7.04 h 0.316 c 1.891,2 7.039,7.67 16.797,7.67 6.09,0 10.914,-2.94 13.434,-8.4 2.734,3.05 8.398,8.4 17.961,8.4 9.968,0 16.16,-6.61 16.16,-18.79 v -27.4"
         style="fill:#231f20;fill-opacity:1;fill-rule:nonzero;stroke:none"
         transform="matrix(0.13333333,0,0,-0.13333333,0,151.18667)" />
      <path
         id="path22"
         d="m 905.113,1043.96 c -3.144,0 -5.664,2.21 -5.664,5.67 0,3.57 2.52,5.88 5.664,5.88 3.25,0 5.879,-2.31 5.879,-5.88 0,-3.46 -2.629,-5.67 -5.879,-5.67 z m 0,41.36 c -3.144,0 -5.664,2.2 -5.664,5.67 0,3.57 2.52,5.88 5.664,5.88 3.25,0 5.879,-2.31 5.879,-5.88 0,-3.47 -2.629,-5.67 -5.879,-5.67"
         style="fill:#231f20;fill-opacity:1;fill-rule:nonzero;stroke:none"
         transform="matrix(0.13333333,0,0,-0.13333333,0,151.18667)" />
    </g>
  </g>
</svg>
