<?xml version="1.0" encoding="UTF-8"?><svg id="Ebene_1" xmlns="http://www.w3.org/2000/svg" viewBox="0 0 1059 265.57"><defs><style>.cls-1{fill:#003e4b;}.cls-2{fill:#5f93a1;}</style></defs><path class="cls-1" d="M198.55,117.29c-.95,0-6.55,3-7.46,3.77-4.41-4.74-1.39-3.34-5.45-2.27-1.82-2-3.65-4.02-5.48-5.98-.43.13-.84.3-1.23.47.16,1.03,3.69,8.21,3.06,8.77-2.22-1.29-4.41-2.57-6.6-3.85-.35-7.78,7.6-8.51,10.85-13.78-.15-.25-.27-.47-.4-.68-10.77-1.72-23.37-5.05-32.99.59-.43,2.57-4.41,14.45-5.8,14.45-1-.38-1.99-.76-2.95-1.1.21-.67,2.15-.53,2.75-.56-1.04-4.19-1.28-5.61-4.49-7.99-5.29-6.3-8.43-13.26-12.24-20.18-2.94-4.96-7.51-9.84-8.91-14.63-.51-.18-1-.35-1.47-.48-.19-.77-.35-1.5-.51-2.22-1.31-7.87-6.56-11.97-1.31-19.5-.27-1.71-.52-3.38-.75-5.04-1.88-1.16-1.75-1.07-2.39-2.87,1.72-1.37,3.61.72,5.09,2.14,14.43,1.92,5.05-16.38-2.95-6.85-4.57-1.97,1.47-6.15.52-11.41-3.41-1.15-6.11-2.4-9.02-.21-2.82,4.36,1.88,6.88,1.59,11.55-3.65.34-6.24-5.98-11.04-1.84-4.57,15.18,6,5.43,11.56,6.41.44,3.43-6.32,3.55-.91,10.52-8.11,2.18-16.58,2.43-24.64,3.67-.29.9-.56,1.8-.84,2.74.35.21.71.42,1.11.64-.05,1.02-.4,2.23-.28,3.64l1.07.5c-.72,1.59-2.1,1.08-.08,3.25,5.17.77,13.94-1.66,19.71-2.27,0,9.75-26.43,29.21-17.57,35.79,1.66-1.97,2.91-4.82,3.4-5.5.85-1.23,7.37-11.3,8.45-12.45.23.08.48.17.75.3,1.07,3.45-4.17,16.24-5.53,20.86-.63,4.02-.83,8.51-2.97,12.27-1.69-1.21.73-2.09-2.19-2.92,1.59-3.75-.2-2.68,3.25-5.43-.32-5.35-7.02-7.57-10.45-9.49.27-6.12-2.34-6.59-6.24-3.97.4.29.8.63,1.22.98v1.16c-3.05,2.18-6.35,4.49-9.33,6.41-2.9-1.89,2.46-13.39,3.14-16-.32-9.75.05-17.23-9.3-18.47-.75,1.46.72,7.48.95,9.88-3.94,4.79-8.23,7.83-4.25,13.59.56,5.39,1.71,6.11,6.88,7.49,0,.3.04.64.07.98h-4.72c0,.47,0,.99.04,1.5.87.47,3.74-.13,5.09-.26,0,.31,0,.65.04.98-1.08.56-4.01.26-5.32.56-.15,2.78-.44,5.47-.99,8.21-.64,1.06-4.22,7.05-4.89,6.32,3.14-6.32,5.2-11.75-2.31-4.66-4.41,1.97-3.38-3.47-7.58,3.08-3.03-2.35-2.91-2.65-5.92-2.52-.36-.43-.72-.85-1.04-1.28-1.07-.04-2.1-.04-3.14-.04-.36.68-.72,1.37-1.03,2.1.24.64.51,1.32.8,2.01-.29,6.96,4.65,7.4,9.85,10.43-.87.94-6.88-2.6-8.94-2.31-.24.47-.48.95-.68,1.42l1.55,2.17c3.06.26,8.23,5.48,11.28,7.79-.52,5.56-1,11.12-1.47,16.68.28.16.56.38.88.59-.48,2.52-1.91,7.02-1.91,9.54,2.62,2.35.12,3.42,0,7.82,2.9,3.12,2.11,5.65,2.02,10.44.41.34.85.68,1.27,1.06.05,2.69.08,5.43.16,8.18.64.55,1.28,1.11,1.95,1.66.07,3.38.35,5.81,1.11,9.41-2.18,1.16-4.25.77-6.55,1.89l.84,1.02c7.27.39,12.44-3.33,19.15-3.33,11.09,5.94,9.18,11.15,22.46,3.62,6.4-.89,8.11,10.52,16.96,5.78,13.48-11.25,10.06-5.52,21.66,2.79,1.47-.05,2.94-.05,4.41-.05,11.56-8.12,7.43-11.67,20.22-1.25,6.08,1.03,10.3-7.27,14.11-7.27,9.94,3.56,11.92,4.28,22.56-1.24-3.37-4.35-4.13,1.8-7.18,1.8-.32-1.72.08-2.95.12-4.37,3.1-2.94,6.2-5.9,9.3-8.81v-.17c-1.99-1.02-3.97-2.02-5.93-2.99.16-3.34-.2-6.98,2.18-9.03-2.18-11.88-1.31-24.85-.51-36.73.83-1.29,1.66-2.57,2.5-3.81,3.34-3.98,7.59-5,11.04-8.93l-.87-1.2c-3.45.73-5.37,1.45-8.26,2.99-1.36-3.41,14.65-2.08,8.26-16.51M88.34,98.75l.18,2.18c-.12,0-.23,0-.36.05-1.3-1.14-1.06-1.33-.95-2.43q.48-.07,1.14.19M89.75,98.49c-1.35-.54-1.52-1.86-1.85-2.66.19-.26.38-.46.56-.65,2.23.45,1.28,3.31,1.28,3.31M90.86,92.7c.62,1.36.78,1.72.7,3.95-1.36-1.93-1.39-2.1-1.51-3.95h.81ZM92.02,90c.36.69.77,1.45,1.21,2.22q-.37,1.38-.5,1.31c-.66-.92-1.22-1.78-1.79-2.62,0,0,1.08-.92,1.08-.92ZM93.67,87.46c.69.8,1.77,1.54,1.64,3.42-.28.13-.56.31-.78.5-.57-1.04-1.14-2.1-1.71-3.07.29-.29.56-.6.85-.85M96.72,86.11c0,.61,0,1.22.05,1.82-.31.16-.62.39-.93.6-1.22-2.05-.97-1.93-1.08-3.64,1.29,0,.86.92,1.95,1.21M98.54,85.79c-.23.25-.51.62-.79.62l-1.19-2.73c.13-.23.23-.42.4-.62,1.13.2,1.29.86,1.58,2.73M99.2,83.09c-.62-1.11-.71-1.58-.75-2.49.19-.21.39-.42.63-.64.83.6.48,3.51.12,3.12M166.36,204.79c.23-.39.52-.73.79-1.07,5.01,1.07,6.96.51,12.2-.81-.04,1.25-.07,2.52-.07,3.81l-6.6.38q-6.11-2.13-6.32-2.3M141.89,175.63c-2.15-2.74-9.77-10.86-9.77-14.2,4.09-1.93,7.79,4.02,10.41,7.18,6.19,6.38,14.3,10.23,22.25,14.33q21.61,10.52,21.93,10.78c-4.96,6.71-7.46,8.39-15.02,9.44-15.93-3.84-20.51-14.07-29.8-27.53M165.41,134.06c2.22,1.2,6.4,1.42,9.65,3-.32.73-.84,2.43-1.39,3.04-4.49-2.14-8.82-5.26-11.72-9.11,1.27-1.77,4.4-1.53,6.47-1.75,0,.08,0,.16.04.29,2.59-.56,3.18-1.66,5.2.04l-.95,1.42c-2.94,0-7.7-.95-9.66,1.15,4.06.04,7.36.35,11.73,1.28-.91,2.99-7.71.16-9.34-.26-.04.3-.04.6-.04.9M173.64,122.3c.4.95,4.09,11.89,2.26,9.93-1.75-4.29-4.29-6.38-2.26-9.93M166.24,127.99c-.08-.12-.15-.21-.2-.3,1.59-1.5,2.55-2.05,4.57-3,.28.43.59.86.92,1.29-.76,1.36-3.98,1.8-5.29,2.01M109.69,75.34c-.16.3-.32.61-.59.73-.4-.31-.79-.56-1.2-.81.13-.26.24-.51.4-.73.4.05.75.26,1.39.81M109.66,71.8c-.23.12-.44.25-.64.38l-1.07-.65v-.34c.67-.56.47-.56,1.74.17-.04.13-.04.26-.04.43M102.27,85.61c.07-.17.19-.34.32-.47.51.25,1.03.56,1.55.86,0,.43-.36.73-.75.73-.52-.39-1.04-.94-1.11-1.11M104.2,90c-.2.05-.41.15-.56.26-.8-.86-1.61-1.72-2.41-2.53.95-1.03,2.51.6,2.96,2.27M102.58,83.64q0-.26.4-1.16c.59.35,1.83.6,1.72,1.93-.16.09-.32.17-.45.3-.55-.39-1.11-.73-1.66-1.07M107.55,92.87c-.05.48-.08.95-.08,1.42-.05,0-.09.05-.13.09-1.35-.77-1.87-1.8-2.5-2.22v2.87c1,.29,2.15-.13,2.02,2.05-.12.09-.23.17-.35.3l-2.07-1.83c-2.31,8.04-3.66,17.41-3.25,26.09,1.82-1.37,1.82-1.15,4.25-.73.64-4.62,1.08-9.57,2.51-13.56,1.19,3.85.16,8.9-.37,13.26-3.81.89-5.95,2.05-9.09,3.28-1.75,3.77-2.79,5.61-2.51,10.99.44.09.87.22,1.31.35v.52c-1.75.21-2.03,1.71-2.58,3.37h-.13c-.12,0,.21-5.13.15-5.6-3.81-8.97,4.66-21.89,6.4-30.36.16-2.74,1.44-10.9,3.34-12.05.99.59,2.03,1.19,3.06,1.78M92.64,147.96h1.07c.72-3.64,1.44-5.95,2.98-9.07.96.05,1.91.09,2.91.18-.56,4.7-.56,12.06-6.17,13.42-4.09-.73-2.02-15.61-1.31-16.93.4.26.8.56,1.24.86,0,3.63-.52,7.48-.73,11.55M93.01,133.12c-.16.26-.4.56-.6.64-1.95-.69-3.14-1.59-4.4-2.53,0-.22,0-.43.04-.65,1.83.12,3.42.43,4.97,2.53M91.53,128.2c-.35-.26-.68-.51-.99-.73,0-.2,0-.42.04-.59.16.09,1.08.39,1.39,1.06-.15.09-.31.18-.43.26M84.57,129.78l.12.73c.2-.17.4-.3.6-.43,1.87,2.22,1.95,7.14-1.99,7.14-7.2-1.63-4.69-6.55,1.27-7.45M78.89,129.32c-2.66-.69-3.57-2.61.32-2.61.59,1.11,1.59,2.09-.32,2.61M85.97,128.67c.44-.43.92-.81,1.39-1.2.6.4.84.22,1.28,1.5-.55.43-1.23.48-1.55.56q-1.03-.69-1.11-.86M87.41,124.65c.47-.31.95-.59,1.47-.86q.32.6.52,1.36c-.16.22-.29.48-.41.73h-.15c-.43-.09-.87-.18-1.3-.21l-.12-1.03ZM88.72,133.21c.39.21.83.42,1.27.63,0,.1-.84,6.72-1.31,6.2-2.1-4.4-2.03-2.65.05-6.83M106.36,128.03c0,1.46-3.23,2.18-4.29,2.43l-.48-.38c1.75-1.29,2.46-1.54,4.77-2.06M105.01,127.18c-.67.17-2.67.9-3.03.76-.07-.16-.16-.34-.23-.47,1.39-.73,1.83-1.45,3.62-1.32,0,0-.36,1.03-.36,1.03ZM105.44,131.55c-.84,1.03-2.38,1.79-3.5,1.79l-.35-.51c1.15-.9,2.21-2.48,3.85-1.28M101.67,135.01c.31.04.63.17,1.3.64-.08,0-.16,0-.2.04l-1.19-.51c0-.09.04-.13.08-.17M103.45,138.38c-.2.21-.36.34-.59.34-.44-.31-.84-.56-1.23-.81v-.68c.83-.6,1.15.17,1.83,1.16M102.3,140.64c-.16.13-.32.26-.44.39-.32-.26-.59-.51-.87-.77,0-.22,0-.38.04-.56.4.3.83.59,1.27.94M100.67,141.54c2.31,1,1.24,2.4,1.11,2.27-1.43-.98-1.9-1.11-1.11-2.27M102.18,146.54c-.07.17-.16.39-.23.6-.4-.09-.8-.17-1.15-.21-.15-.35-.29-.65-.4-.94.68-.47.96-.21,1.78.55M100.24,136.07c-.08,0-.15,0-.24.04-.23-.17-.48-.34-.67-.47,0-.69.24-.69.48-1.15-.55-.04-1.11-.09-1.63-.09-1.36-4.45-.6-6.16.55-10.31,2.71-.9,5.3-1.84,8.39-1.84.08.09.15.21.23.34-2.65,4.31-7.62.68-7.11,7.57-.35,1.97-1.66,2.41.21,3.64.04.73.32,1.28-.21,2.27M99.6,137.26l.12.72c-.21.18-.37.35-.52.56-.23-.38-.43-.76-.62-1.15l1.03-.13ZM101.67,152.15c0,.22,0,.47.04.73q-.2.18-.44.18c-1.03-.51-1.36-1.15-1.79-1.76.04-.25.08-.46.12-.68.99.22.99.9,2.07,1.54M101.39,155.09l-.12.94c-.2-.04-.4-.04-.6-.04-1.15-.16-.91-.85-1.19-1.37.75-1.02.75-.64,1.91.47M100.95,159.46c-1.3-.81-2.85-1.83-2.85-3.06,1.03,0,3.05,1.23,2.85,3.06M99.99,162.02c-.39-.04-.79-.04-1.19-.04-.28-.3-.55-.59-.8-.9.2-.35.57-.77.87-.98.6.55,1,.59,1.11,1.91M69.64,154.81c-.16,0-.32,0-.48.04-6.56-1.16-9.14-13.69-5.76-18.43,5.48-5.48,8.66,13.64,6.24,18.39M63.84,133.08c-.2-.43-.4-.85-.59-1.25.2-.29.43-.55.68-.81.07.22.55,2.75-.08,2.06M62.52,134.83c-.26-.68-.55-1.33-.79-1.97q.53-.48.68-.48c.52.56.55,2.91.11,2.44M87.35,168.57c-.46,1.42-1.3,7.53-2.98,7.53-7.95-2.27-15.78-7.36-22.25-11.97,1.55-2.35,3.06-4.32,4.89-6.38,1.78,0,17.48,7.4,20.34,10.82M58.63,164.64c6.31,3.34,12.76,7.73,19.55,11.5-.17,1.55-.63,3.17-1.23,4.84-.12,0-.25,0-.32.04-7.39-3.2-14.22-6.16-20.62-10.43,0-2.39,1.55-4.28,2.62-5.94M54.25,169.26c-2.94-2.71-4.36-3.89-5.92-7.14,1.24-1.84.84-3.34,1.72-5.1,2.62,1.72,4.72,3.21,7.27,5.69,0,1.45-3.02,6.55-3.06,6.55M63.04,179.21c4.25-2.27,17.64,4.96,23.45,6.84,2.54,1.03,1.86,1.63.63,4.19h-.23c-4.7-1.66-21.19-5.29-23.85-11.03M77.63,189.7c0,1.07-.92,5.21-2.46,5.21-5.68-1.5-11.33-4.66-15.98-7.61,0-1.53.68-3.77,1.32-4.84,5.88,2.01,11.08,4.16,17.13,7.24M106.32,203c-.16,0-.29.03-.4.07-9.17-1.71-18.64-3.97-27.27-6.63.09-1.88.44-3.5.96-5.09,3.93,0,10.41,2.82,14.59,3.97,5.4.7,15.53-1.57,12.12,7.68M90.46,191.49c-.55-1.19-.19-3.25-.11-4.1,9.33,0,18.79,2.39,28.61,2.65.71.08,1.39.08,2.29.73,0,1.24,0,2.52.05,3.8-.92.16-1.83.38-2.75.6-9.22-.69-19.63-.47-28.1-3.69M106.28,181.74c.04,1.37.2,2.94.04,4.78-.12-.04-.24-.04-.35-.04-9.66-.59-17.78-2.56-26.95-4.95.23-2.1.63-3.34,1.27-4.96,8.67,2.18,17.09,3.46,26,5.18M87.68,176.69c0-2.6,1.15-5.68,2.39-7.78,7.59.3,15.97,1.07,23.81,2.18,1.03.55.2,9.15.12,9.06-8.62-.9-18.6-.56-26.31-3.47M131.07,183.33c.2,1.19.24,2.64.09,4.05-1.87-.05-3.7-.05-5.53-.05-5.04,0-13.55.78-17.8-.72l.12-4.88c6.08,0,17.68-1.07,23.12,1.59M151.86,193.16c-6.88,2.1-19.51,2.73-26.42,2.73-3.14-1.03-2.18-3.12-2.11-5.94,7.71-.9,15.78-.47,23.77-.22v-1.8c-4.05,0-13.91,2.4-13.91-3.54.87-.59,1.99-.21,3.25-.08-.28.47-.55.94-.79,1.46.2.29.44.59.68.94.87,0,1.75,0,2.62.04l-.23-2.35c-.48-.08-.92-.17-1.36-.21,9.66-1.53,8.46-.65,14.5,8.99M141.33,180.29l-3.17-.68c-.76-2.29-2.31-5.61-1.12-5.7.48-.04,4.17,4.37,4.65,5.9-.13.13-.25.3-.37.47M117.2,172.33c5.84,0,11.61-.68,17.65.86.05,2.1.09,4.23.16,6.37-1.03.17-2.06.39-3.06.6-5.21-.34-10.33-.21-15.26-.81,0-2.22-.23-5.69.51-7.02M124.32,136.27v-.29c1.51-.78,1.51-.55,3.58.9v.31l-.67.53c-1.62-.31-2.19-.78-2.91-1.45M124.87,138.44c.98.3,1.97.64,3.02,1-.07.41-.07.89-.07,1.36-.26-.05-.53-.05-.81-.05-1.47-.24-2.57-1.24-2.14-2.31M124.25,133.56c1.3,0,1.74-.32,3.23.81-.32.27-.56.53-.81.78-1.23-.51-2.05-1.06-2.42-1.6M124.19,131.85l-.58-1.23c1.2-.37,2.16.34,3.65,1.08v.77c-.15,0-.3.06-.44.1-.9-.26-1.77-.51-2.63-.72M123.37,128.45c-.07-.38-.07-.7-.07-1.02,1.13-.19,1.9.45,3.03,1.47-.36.26-.65.58-.97.89-.7-.45-1.36-.89-2-1.34M122.95,125.99c0-.39,0-.76.06-1.08,1.12.32,2.24.65,3.4.97-.61.55-1.63.65-2.02.71-.52-.22-.97-.44-1.43-.6M122.66,123.07c-.48-1.63,1.82-.3,2.46-.04,0,.17.04.98-.29.81-.75-.25-1.47-.51-2.18-.77M122.32,120.25c.7-.27,1.83-1.23,2.98-.33v.59l-.75.48c-.94-.05-1.89-.21-2.23-.74M122.27,116.91c.67,0,1.33.04,2.01.09.16.32.33.62.5.99-.21.18-.42.41-.63.63l-1.38-.27c-.16-.49-.33-.98-.5-1.44M121.07,115.13v-.78c1.02.23,2.05.49,3.12.78-.45.49-.57.67-1.02.67-.73-.23-1.41-.48-2.1-.67M120.03,111.65c.13-.2.26-.41.38-.56.91.7,1.8,1.45,2.71,2.22-.2.2-.38.41-.52.7h-.32c-1.67-.7-1.67-1.47-2.26-2.36M122.45,111.08c-.73-.53-1.47-1.1-2.15-1.59l1.88-.36,1.08.98c0,.67-.52.92-.81.97M119.58,107.75c0-.78.2-.66.42-1.1.93.44,1.86.89,2.79,1.39-.57.61-1.19.44-1.76.51-.5-.28-.97-.56-1.44-.79M119.07,105.53c-.07-.32-.15-.62-.15-.87.82,0,1.71,0,2.6.09.16.31.3.63.45,1.03-.15,0-.29,0-.45.08-.81-.17-1.63-.24-2.45-.33M118.27,102.98c1.08-.37,1.9-.66,3.2.21-.48.52-.76.59-1.16.68,0,0-2.04-.89-2.04-.89ZM118.04,100.17c.84-.89,1.91.06,3.1.9-.18.19-.35.39-.53.64-.54-.07-1.07-.07-1.55-.07-.38-.51-.72-1.03-1.02-1.47M119.99,91.6c1.26,1.75,2.98,8.21,4.73,9.27.51,5.61,4.33,10.23,5.92,16.04-1.27.72-3.7,2.99-4.54,3.16-1.31-1.41-5.76-25.1-6.11-28.48M131.39,125.72c0,1.46-1.39,2.02-2.47,2.87,0,1.33-.19,2.87-.55,4.46-.12,0-.2.04-.28.08-.12-.05-.24-.08-.32-.13-.12-2.04-1.55-7.51-.36-8.8,1.47.25,2.35.47,3.98,1.53M127.9,122.38c-.05-.34-.08-.68-.08-.98,2.87.26,4.6,1.88,7.12,4.02-.16.18-.32.35-.56.35-2.18-1.15-4.33-2.27-6.47-3.39M128.59,142.55c-.1.26-.62.65-.92.77-1.97-.28-1.72-.77-2.53-2.13,1.47.11,1.82.05,3.45,1.36M127.41,144.5c.36.29.76.6,1.16.9-.16.26-.32.51-.48.81h-1.51c-.28-.34-.51-.68-.75-.99.51-.25,1.04-.51,1.58-.72M129.17,148.04c0,.26-.6,1.42-.8,1.33-1.24-.51-1.47-1.06-1.99-1.75,1.16-.17,1.39-.3,2.79.43M129.69,150.69c-.05.08-.08.17-.13.3h-.27c-.59-.17-1.2-.34-1.79-.47.72-.47,1.23-.69,2.18.17M129.85,153.09c-.09.34-.32,1.24-.56,1.11-.68-.26-1.36-.47-2-.69-.04-.26-.04-.51-.04-.78.51-.55,1.88-.68,2.59.35M127.5,154.97c.32,0,.59-.12,1.27.43v.21c-.32.22-.63.29-.87.29-.16-.04-.32-.07-.44-.07,0-.31,0-.61.05-.87M134.37,157.79c-.43.65-7.91,5.39-7.98,5.35-.6-.98-1.2-1.97-1.75-2.9,2.87-1.71,6.36-5.01,9.74-2.44M124.63,161.99c.04.3.09.59.16.9q-.87,1.2-.95,1.15c-.48-.26-.96-.47-1.43-.68.16-1.84.43-1.75,2.22-1.37M130.68,163.69c1.11,1.5,1.63,2.44,2.46,4.66-2.66.81-4.81.99-7.36,1.03-2.27-.09-4.36-.38-6.2-.81l.12-18.51c-.36-7.27-4.73-51.06-2.82-53.12.44.98,2.78-.09,3.21,1.37-.11.18-.23.34-.36.56-1.31-.68-1.74-.56-2.89-.56.71,7.7,3.45,14.49,3.97,22.79.23,2.05,1.31,2.82.87,5.64.2.31.44.6.67.9-2.02,7.65,8.23,22.96,1.99,31-1.03.85-2.06,1.71-3.05,2.57,0,1.28,0,2.57.03,3.85,5.17,1.92,4.33-.68,9.35-1.37M118.47,85.47c-.14-.13-.93.21-1.05.28-.38-.15-1.5-.67-1.8-.8.3-.34,1.34-.92,2.85.52M116.89,83.21c-.26-.14-1.23-.49-1.23-.76.87-.77.63-.86,1.78.17-.11.21-.39.55-.55.59M101.94,115c.81-.88,2.38-.24,3.35.81-.15.23-.27.52-.38.81h-1.36c-.53-.46-1.08-.87-1.62-1.28,0,0,0-.35,0-.35ZM104.82,119.05c0,.06,0,.12.06.18-.29.18-.56.42-.78.67l-2.37-1.46q-.05-.49.12-.78c.96.43,1.97.91,2.98,1.39M105.05,114.73c-1.71-.9-2.71-1.79-1.66-3.16.39.26,3.49,1.88,1.66,3.16M102.13,109.04c.95-1.03,2.6.4,3.87,1.43-.06.21-.12.41-.12.67-.26,0-.51.08-.75.15-1.66-.34-2.23-1.5-2.99-2.24M103.97,105.59c.76.81,4.03,4.88,1.62,3.59-.52-.37-3.77-3.59-1.62-3.59M105.43,106.08c-.99-1.53-.95-1.65-.84-2.93.78.5,1.82,1.47,1.82,3.06-.34-.06-.69-.13-.99-.13M104.22,101.64c.23-.27.48-.54.74-.75.75.55,1.5,1.08,2.31,1.69,0,.14-.36.95-.56,1-.87-.67-1.69-1.33-2.49-1.94M104.48,98.71c.17-.38.35-.7.59-1.02.76.38,1.55.76,2.37,1.14.06.32-.24,1.93-.37,1.85-.9-.7-1.78-1.33-2.6-1.97M108.03,101.95c.62,1.25.95,3.15,0,4.19-.05-.05-.08-.09-.08-.13-.07-.27-1.14-4.06.08-4.06M110.53,108.36c1.75.26,3.34.43,5.37,1.33-.04.31-.04.6-.04.9-1.04.08-2.07.2-3.06.34-.84-.09-1.66-.17-2.5-.22-.73-1.36-.29-1.4.23-2.35M116.21,113.49c.32,13.69,1.47,27.62.99,41.53-.19.42-.4.84-.56,1.27-1.74.59-3.92.3-5.56.39-.92-.26-1.79-.51-2.67-.72.44-14.37.92-28.74,1.39-43.11,2.35-.09,3.66-.18,6.4.64M119.15,87.13c-.07.39-.13.77-.13,1.16-.2,0-.42,0-.64.04-.81-.43-1.65-.86-2.43-1.28.21-.22.41-.43.7-.65,1.51,0,2.14.59,2.5.73M119.54,90.32c-.29.32-1.47.49-1.93.49-.18-.26-1.13-.45-1.26-.65.35-.24,1.99-.75,2.64-.75,0,0,.56.91.56.91ZM117.09,92.76c.24-.13.48-.26.75-.35.48.43,1,.85,1.51,1.32-.19.18-.39.39-.59.61-1.03-.13-1.95-.61-1.66-1.58M119.99,95.91c-.07.51-1.1.95-1.27.95-.55-.34-1.11-.69-1.6-.95.24-.42.49-.77.8-1.11.65.34,1.36.69,2.07,1.11M108.5,161.13c-.76-.68-.7-.73-.63-1.23,1.86-.56,8.9-2.23,9.41.68-2.9.08-6.31.55-8.78.55M105.59,88.42c.3,0,1.41,1.05,1.99,1.55,0,.42,0,.83.05,1.29-.13-.05-.26-.05-.35-.05-.76,0-1.66-2.65-1.7-2.79M105.72,86.09c.68-.73.89-.27,2.13.32l.25,1.97c-.08,0-.13.04-.16.1q-2.08-2.11-2.21-2.38M108.78,84.71c-.17,0-.35,0-.52.05-.68-.65-1.35-1.28-2-1.92,0-1.1,2.32.17,2.51,1.87M106.59,75.64h-.23c-.07-.05-.16-.09-.2-.09.13-.34.24-.68.4-1.03.56.05.48.47.04,1.11M107,79.68c.17-.13.34-.26.56-.4.54.54.93,1.05,1.99,1.6-.13.23-.26.45-.34.68h-.29c-1.1-.81-1.44-1.18-1.91-1.88M107.43,76.84h1.11c.52.65,1.63,1.28.75,2.23-1.43-.77-1.39-1.2-1.87-2.23M111.04,70.94c.96-.35,1.36-.59,2.71-.51,1.66,7.66,2.93,26.99.98,36.78-.87,0-1.71,0-2.54.04-.59-.26-1.19-.51-1.79-.73-1.93-10.48.05-25.05.64-35.58M115.66,78.25c.43.47,1.47,1.97.39,2.52-.35-1.16-.95-1.92-.39-2.52M116.63,77.74c.59.3,1.24.59,1.89.89-.05.29-.05.59-.05.94-.2,0-.43,0-.6.05-.62-.13-2.01-1.06-1.24-1.88M120.32,81.23c-.29.26-.51.56-.75.88-.75-.5-1.43-.94-2.13-1.36.76-.37,2.54-.6,2.88.48M122.24,83.94q-.51.39-1.22.59c-1.99-.53-4.28-.76-1.74-1.66,1.21.46,1.96.69,2.95,1.07M122.62,85.74c-.45.38-.89.89-1.28.89-1.06-.25-1.23-.64-1.59-1.16,1.2-.34,1.72-.98,2.87.26M123.56,88.28c-.05.12-.05.29-.05.48l-1.67.53c-2.46-.41-2.24-.96-.78-2.1.73.37,1.11.78,2.51,1.09M124.66,91.3c.15.21-.73.19-1.04.19-1.17-.16-2.3-1.28-2.7-.75,1.11-1.49,2.75-.84,3.75.56M125.73,93.09c-.05.39-.11.84-.11,1.28-.25,0-.51,0-.77.06-1.5-.23-1.88.13-2.59-.53.3-.62.67-1.18,1.03-1.74.77.61,1.62.3,2.45.93M126.52,96.16v.47c-.62.68-1.44.48-2.18.39l-.75-1.61c.87-.32,1.93.15,2.93.75M127.66,99.23l-3.12-.06-.42-.44c1.58-.94,1.84-1.05,3.54.5M128.65,101.08c-.42.46-1.76.46-2.05.46l-1.58-.76c.05-.32.12-.56.18-.83,1.11.39,2.27.76,3.45,1.14M129.18,103.58c-.12.13-.24.32-.35.51h-.53c-.48-.32-.95-.65-1.37-.96.47-.77,1.6-1.03,2.25.45M130.43,106.22l-.48.39c-1.15-.13-1.46-.43-1.93-.95.26-.35.71-1.15,1.15-1.15.27.29.99.81,1.26,1.71M131.79,108.27c-.18.2-.37.45-.48.71h-.41c-.95-.38-1.82-.71-2.71-1.02.7-.76,2.3-.32,3.61.31M132.86,110.07c0,.15,0,.32.06.48-.29.31-.59.73-1.03.73-1.19-.15-1.73-.2-2.03-.9.95-.32,1.63-.96,3-.32M133.25,112.83c-.48.13-.95.26-1.43.45-.78-.51-1.8-.95-1.55-1.55,1.73,0,1.88-.32,2.98,1.09M134.33,114.43l.16.57h-3.25c0-.2.07-.39.12-.5.99-.07,1.98-.07,2.98-.07M135.71,117.02q-.09.27-1.09.72c-.61-.35-1.2-.72-1.7-1,.33-.26.67-.53,1.01-.72.59.27,1.17.65,1.78,1M142.76,138.13c-.59.26-1.19.5-1.74.81-3.7-.9-4.41-1.2-6.36-4.58.48-1.11.96-2.22,1.47-3.3.23-.04.51-.04.79-.04-.08,3.25-1.07,3.94,2.23,5.35.08-1.03-.55-1.5-.84-1.79.21-1.37,1.11-2.35,1.75-3.34-1.63-1.24-2.1-2.14-3.7-3.03-1.67.08-5.12,1.46-6.15.89-.04-.26-.04-.51-.04-.73,2.54-2.05,4.4-1.79,7.67-2.01-1.63-3.98-5.21-4.74-8.43-6.41q-.04-.21.15-.68c9.7,2.6,12.24,8.08,13.2,18.86M131.16,130.85c.27,0,.48.14.99.43-.88.95-1.35,1.97-1.99,3.12-.12,0-.24,0-.37.05h-.23c.4-1.41.92-2.53,1.6-3.6M134.57,130.12s.08,0,.16.04c0,1.38-.71,3.6-1.98,4.45-.2-.17-.4-.35-.56-.51,0,0,2.38-3.98,2.38-3.98ZM143.39,140.14c-1.63,1.28-2.9,1.84-4.25,2.56.91,1.54,1.82,3.12,2.78,4.71-.16.2-.32.41-.43.68-3.18-.09-4.58.55-6.96.9,0,1.15-2.27,2.61-3.26,2.91,0-5.74-1.58-10.79-2.42-15.95,3.06-3.3,8.02,3.03,10.38,5.43,1.47-.64,2.43-.94,4.17-1.24M145.26,163.06h-.36c-4.89-.98-5.48-3.12-8.18-7.02l-4.25-.13c-.05-.07-.08-.13-.12-.17,6.6-3.03,2.55.78,7.79.43-.71-.95-1.42-1.84-2.1-2.74-2.07.18-4.14.35-6.17.56-.2-.21-.4-.38-.6-.56,3.03-.94,4.1-1.46,7.83-1.46l1.31,1.68c.44-.04.92-.04,1.39-.04-3.13-3-3.33-2.95-6.95-3.42v-.43c1.12-.9,4.41-.48,6.24-.48,2.58,5.22,5.01,7.27,4.18,13.78M168.23,183.24c-.13-.05-.2-.05-.28-.05-3.37-1.16-5.01-2.35-7.47-4.35,7.75-4.75,6.96-6.2,8.82,1.91-1.14.81-1.07,1.04-1.07,2.48M174.23,186.19h-.32c-2.15-.73-3.42-1.54-4.81-2.65,0-2.86,9.02-2.73,5.12,2.65M157.82,177.59c-3.95-2.31-5.97-4.06-8.86-7.11,3.37-1.53,6.6-1.1,10.33-.97.51.85,3.18,5.13,2.74,6.54-1.19.34-3.42,1.54-4.21,1.54M146.06,168.01c-.48-.43-1.38-.67-1.35-1.28.14-2.73,6.35-.66,9.4-.26-3.25.59-7.7,1.54-8.06,1.54M152.02,159.84h.12c.24,1.11-.36,1.63-1.11,2.7l-.36-.64c.43-.68.87-1.36,1.35-2.05M149.11,162.92c-.08,0-.12,0-.15.04-1.07-1.58.32-2.73,1.03-3.81.23.14.51.26.8.43,0,.26-1.4,2.7-1.68,3.34M146.93,163.95h-.23c-.15-.12-.32-.21-.48-.3,0-1.5.84-2.86,1.28-4.15.15.14.32.26.51.4-.08,1.5-.4,2.68-1.08,4.05M142.84,144.71c4.25-2.1,4.57,1.02,7.99,5.17,0,1.37-2.82,8.43-3.14,8.26-1.47-1.07-.76-1.8-.36-2.82-1.55-3-4.49-7.44-4.49-10.61M155.88,139.28c.82.55,1.7,1.11,2.57,1.7,0,0-2.63,18.01-5.23,16.6-1.72-1.84,6.66-15.31,3.45-17.36-2.38,2.14-4.01,12.91-6.04,17.11-.63,0-.47-.18-.59-.31.96-4.53,2.18-15.13,5.85-17.74M159.49,141.33c.99,4.23.64,9.77.84,14.11-1.03.43-2.02.86-3.03,1.33l-.51-.44c.35-4.1.15-11.83,2.7-15.01M156.85,137.26c0-3.43,1.63-5.35,4.94-5.18,1.43,1.85,1.7,3.3,1.99,6.25-.52.26-1.03.52-1.5.77-2.87-.3-3.58-.38-5.43-1.84M161.8,140.78c2.93,1.58,2.41,7.95.63,10.98h-.15c-1-2.73-.81-7.78-.96-10.47,0,0,.48-.51.48-.51ZM165.33,137.48c3.06,0,.55,4.45-.08,5.94h-.48c-.15-.04-.32-.08-.48-.08-.28-3.04-.12-3.46,1.03-5.86M172.36,143.03c-.71,6.93-6.59,20.79-14.34,21.94-1.59-.21-3.14-.42-4.69-.59,0-6.89,7.16-5.52,11.01-11.2,1.47-4.36,2.58-8.68,4.49-12.57,1.66,0,2.1.9,3.53,2.43M175.87,167.64c-3.46,2.56-7.55,6.11-11.69,6.8-.71-2.06-1.55-4.37-2.03-6.08,3.3-2.14,13.72-11.58,13.72-.72M182.18,166.09c.4,1.71,1.08,3.42.72,5.69-2.27,1.53-9.57,7.95-11.29,8.29-1.11-2.05-1.86-3.85-2.66-5.64,1.83-1.16,12.36-8.98,13.23-8.34M176.85,184.68c-4.45-5.62.24-6.5,5.01-9.62.35,0,.7.78,1.06,1.42.72,5.98-1.63,5.95-6.08,8.2M182.54,184.43l-.12,4.46c-.16-.05-.29-.05-.4-.05-2.34-.13-3.77-.5-5.67-1.16-.32-1,5.25-3.45,6.2-3.25M146.29,206.03c2.51-1.71,5.13-1.03,8.31-1.71,2.86-1.11,5.56-3.25,8.54-1.32-4.57,3.37-7.55,7.13-13.19,7.13-2.35-.89-2.74-2.21-3.67-4.1M139.26,202.91c.05-1.71.12-3.42.2-5.13,3.69-2.27,7.83-1.83,12.28-2.05.28-.56.59-1.12.92-1.63.32,0,5.37,5.13,6.32,6.08-6.76,2.3-10.89,3.72-17.45,3.98-.75-.43-1.51-.87-2.27-1.25M81.59,204.32c.44-1.25.92-2.48,1.4-3.68,8.42.73,16.33,3.64,25.04,4.58.03-2.79.28-5.62.67-8.13,5.65.17,26.54-1.83,28.21,1.75.36,1.54.76,3.26.8,5.13-3.42,3.47-5.73,7.06-10.3,7.87-1.16-.75-6.69-4.75-5-6.2l5,.63c.56,1.8-.15,3.52.72,5.14,1.19-1.07,1.23-3.42,1.47-4.92,1.66-.25,3.06-.38,5.17-.22-.09-.59-.16-1.2-.21-1.79-8.86-1.07-18.15-3.77-25.95.73-12.76,11.02-9.3-1.2-20.59-2.79-2.14.72-4.49,1.88-6.44,1.88M63.2,199.23c.52-2.3,1.03-3.8,1.95-5.64,5.04,1.74,10.73,3.38,15.66,6.63.07,1.28.2,4.1-.8,5.17-4.73-1.92-12.64-6.16-16.81-6.16M53.86,195.51c2.1,0,5.29,2.87,7.35,4.27-.84,1.11-3.53,2.48-4.65,2.87-2.82-1.89-2.5-4.02-2.7-7.15M52.07,186.02c.96,0,9.74,4.91,11.09,6.37-.36.94-2.38,4.83-2.51,4.79-3.65-2.82-11.2-5.9-8.58-11.16M50.08,177c.16-.18.32-.31.47-.43,2.71,2.52,4.7,3.94,8.24,5.77-.4,1.46-.8,2.91-1.19,4.41-.08,0-.12,0-.16.04-5.37-2.86-7.15-3.8-7.35-9.79M48.74,167.58c3.05,2.75,12.55,7.24,14.06,10.48-1.19,1.5-1.27,1.71-2.78,1.93-3.34-1.58-14.7-8.17-11.28-12.41M49.41,120.16q-.04,3.59-.12,3.55c-1.55-.94-3.22-2.27-3.22-4.01,1.63-.86,1.03-.78,3.34.46M54.25,117.76c-2.89-1.32,1.04-4.08,1.91-3.63-.36,1.15-.95,2.61-1.91,3.63M60.34,117.26c-.51,4.4-2.43,7.61-4.49,11.76l.91.13c.36,1.53,4.74,17.57,3.66,19.88-2.38-1.03-3.69-2.44-5.75-2.62,0,5.34,8.74,6.12,10.53,9.98-1.23,1.66-2.87,4.74-4.74,5.38-13.23-7.1-11.96-8.38-9.97-22.15,1.31-1.08,1.94-1.03,3.81-1.33.52,1.02,1.04,2.05,1.59,3.12.04,0,.08,0,.16.04,1.19-1.28-.76-3.72-1.16-4.7-5.84-.65-8.82-3.64-13.23-6.98-.04-.25-.08-.46-.08-.68l-3.58-.64c0-.34,0-.64.05-.94,2.14.59,4.33,1.19,6.52,1.8,0,.21.04.43.07.68.76.17,3.9,1.45,4.98,1.2-4.7-6.08-16.34-7.24-12.29-16,1.51-.68,1.31,1.8,2.07,3.04.67-.73,1.38-1.45,2.1-2.14.4.22.8.48,1.2.73.04.65.08,1.28.16,1.92-.24.14-.48.26-.72.44v.85c2.87,0,2.83-2.57,3.98,1.93,1.19,2.22,3.46,3.5,5.84,5.04,1.08-.38-.55-7.39-.76-8.12-1.19-.6-2.38-1.16-3.53-1.72,0-.56.76-1.07,1.08-1.45,2.5.77,4.08,3.67,6.35,5.98,2.27-.64,3.26-2.73,4.74-4.62.15.04.32.09.51.18M60.73,137.31h-.28c-.24-.13-.48-.25-.67-.38.07-1.07.47-1.66,1-2.43h.64c0,.93.04,1.75-.68,2.82M62.2,129.35c0,.65-1.39,4.19-2.13,3.38-1.95-2.09-1.2-7.74.63-9.71.99,1.28,4.41,4.96,1.5,6.33M60.07,90.91c.87-.95,3.01-3.81,4.05-4.16.2.18.4.34.6.56-.48.48-3.77,4.03-4.18,4.03-.16-.17-.32-.3-.47-.43M62.25,85.23c-1.04,2.13-1.91,3.63-4.1,4.66,0-1.88,1.95-5.17,4.1-4.66M66.89,81.93c-2.03-.5-3.22-8.08-3.53-9.71.15-.2.32-.42.48-.59,1.9,1.55,3.58,7.95,3.06,10.3M65.79,99.76c-.92-.21-1.8-.42-2.67-.6-.95-2.01-2.1-4.58-2.1-6.38.08-.07,4.18-3.88,4.18-2.22-1.75,1.72-2.55,4.46-.72,7.1.36-.26.72-.51,1.12-.73-.12-2.7.39-4.36.95-6.63,0-3.08-2.7-5.09-3.66-7.48.2-.16.4-.29.59-.43,1.71.61,4.91,5.31,5.29,5.31.16-.21.32-.42.51-.6-1.3-4.65-2.1-8.64-2.62-12.91l.48-.65h.2c3.57,6.93,3.54,19.58-1.55,26.22M78.29,131.15l-.48,3.21c-1.74-.9-3.45-1.79-5.16-2.65-.04.04.64,1.69.67,1.93,1.63,2.78,8.94,5.9,12.36,4.57.84.6,1.52,1.77,2.39,3,.23-.22.51-.38.79-.56,1.63,2.23.16,17.2,3.18,23.69.67,0,1.54-.39,2.34-.64-1.71-7.92-2.66-7.3,2.98-10.82,1.66,1.5-.43,8.13-.95,10.82.23.09.36.09.47.6.2,0,.45,0,.67.04.28-.51.6-1.03.93-1.5q.28.05,1.79.9l.12,2.05c1.83-1.2,2.35-13.42,2.1-15.18-.75-.34-1.51-.67-2.22-.98.04-.51.12-.98.2-1.46.76,0,1.23.82,1.91,1.85.23-.08.51-.18.8-.22,1.63-4.69.75-11.12,1.55-15.77,1.47-1.59,2.07-2.62,2.85-4.46.05,0,.09.05.16.1-1.07,12.13-1.42,24.71-1.99,37.11h1.95l.6-3.97c2.7,0,5.48.04,8.46.51l.12,4.83c-.2-.03-.4-.03-.6-.03-13.07-.65-28.61-1.46-39.63-9.08,0-6.63,4.25-12.65,2.91-20.05-.45-.04-.87-.04-1.28-.04-.63,3.67-1.89,16.46-3.33,19.06-.55-.12-1.08-.26-1.59-.38-.48-5.52.28-11.12-.65-16.08-3.49-7.27-7.02-14.71-10.04-21.71-.59-4.58-.56-8.99-.43-13.26,1.15-.6,1.22-1.06,2.78-.72.47.94,1.03,1.83,1.55,3.3,1.67,11.71,2.27,14.24,11.72,22.02M81.44,99.59c-9.02,6.42-9.02,6.16-6.48,16.81,3.18,3.59,3.89,3.47,2.74,8.85-1.24.39-2.35.95-3.34,1.16-.67-.51-1.31-1.03-1.94-1.54-.32-3.29-1.67-5.6-2.86-8.25-.16-.04-.29-.08-.4-.08-.15-3.08-.4-5.74-.79-8.34,2.94-2.82,11.01-7.74,10.28-11.97,1.2-1.28,3.42,1.28,2.79,3.37M90.9,120.12c-1.35,1.36-3.45,3.29-5.52,2.73q-1.67-1.16-1.83-1.16c1.19,2.1,3.46,5.21-.68,5.9-3.22-.94-1.95-5.56-3.1-7.65-10.69-15.95,1-23.48,11.69-11.25-.84,1.84-4.69,2.4-5.16,3.21.92.59,1.82,1.23,2.74,1.88,0,.37-2.38,3.45-2.74,3.9,2.35,1.12,1.05-2.04,3.77-1.16-1.58,3.1.83,1.78.83,3.59M92.05,126.36c-.4-.56-.8-1.11-1.2-1.62,1.08-2.75,2.23,1.98,1.2,1.62M92.52,121.1c.56.13.92.13,1.47,1.15-.15.21-.32.48-.47.72h-.52c-.28-.29-.56-.55-.79-.81.07-.39.19-.73.31-1.07M93.37,118.11c.32.21,2.1,1.2,1.35,2.4-1.12-.86-1.87-1.24-1.35-2.4M93.65,115.46c.83.29,1.3.64,2.06,1.88-.12.16-.32.38-.48.38-.8-.78-1.86-1.54-1.58-2.27M95.02,112.23c.66.26.95.26,1.28,1.68q-.53.77-.62.73c-.43-.37-.84-.67-1.28-.98,0-1.17.04-.81.62-1.42M95.35,109.73l2.1,1.51c0,.05-.05.81-.18.65-.84-.35-1.63-.7-2.43-1.05-.04-.21-.04-.4-.04-.6.19-.2.37-.36.56-.5M97.19,109.48l-1.8-2.24c1.59-2.88,2.2,2.67,1.8,2.24M96.25,103.94c.43-.07.9-.14,1.38-.14.23.25,2.37,2.1.7,3-1.84-1.14-1.54-1.6-2.08-2.86M97.31,102.4c.16-.4.32-.79.53-1.14.47,0,2.3,1.37,1.31,2.43-.63-.45-1.27-.9-1.85-1.3M99.74,101.57c-.7-.58-1.4-1.1-2.11-1.63,2.76-3.59,3.69,1.12,2.11,1.63M99.28,95.75c.32.04.63.09,1,.17.2.43,0,2.31-.48,1.8-.48-.68-.83-1.15-.92-1.46.13-.16.25-.34.4-.5M100.28,92.42c.53.68,1.74,1.77,1.74,3.18-.19,0-.34.06-.49.1-1.01-.26-1.64-1.09-2.17-1.62.23-.57.48-1.14.72-1.66,0,0,.2,0,.2,0ZM100.91,90.28c.5.23.98.53,1.48.83,0,.23,0,.47.05.7-.11-.06-.22-.06-.33-.06q-1.37-.76-1.58-1.06c.1-.17.21-.3.38-.41M100.83,77.92c.37.38.72.76,1.08,1.19-.09.51-.13,1.03-.16,1.58-.2,0-.39,0-.55.05-1.16,0-.8-1.88-.84-2.4.15-.17.32-.3.48-.42M102.98,77.87c-1-.9-1.11-1.11-1.35-2.01.08-.13.19-.26.32-.38.4.04.8.12,1.24.2,0,.43.04,2.32-.21,2.19M103.54,80.69c.55-1.2.63-.99,1.77.08q0,.22-.35.81h-.19c-.44-.29-.84-.59-1.23-.9M104.65,75c-.37-.55-.68-1.11-1-1.66.95-2.61,1.87,1.2,1,1.66M106.08,78.86q-.4.26-.44.17c-.95-1.19-.75-1.02-.32-2.13.24,0,.88,1.19.76,1.97M105.84,70.73c.12.34.35.81.47,1.55-.12.04-.21.08-.29.16-.72-.76-.4-1.23-.19-1.71M100.35,65.64c1.51-2.01,5.33-3.42,7.15-.48q-6.36.52-7.15.48M86.49,66.58c1.22-.77,8.58-2.31,9.49-.81-3.18.67-6.16,1.28-9.09,1.53-.16-.26-.29-.51-.4-.72M85.46,63.16c.99-1.41,7.87-2.31,9.97-2.52l1.15,1.24c-3.57,1.67-7.27,1.58-10.73,1.8-.16-.18-.27-.35-.4-.51M96.89,57.9c-.15.3-.32.61-.47.95l-2.83.13c-.07.12-.11.25-.15.38-1.86-.65-3.22.99-4.96.99q-2.58-.14-2.98-.27c.83-2.13,9.1-3.72,11.4-2.18M98.37,59.31c.88.59,1.75,1.19,2.67,1.84v.95c-.92.68-1.79,1.36-2.67,2.09l-.59-.38c-.05-1.42-.48-3.73.59-4.49M107.31,57.95c-.88.63-3.86,2.35-4.05,2.26-1.44-.81-2.86-1.63-4.25-2.39.71-.77,6.71-.26,8.3-.26v.4ZM110.05,58.97c0,.64-.12,4.05-.72,3.42-.92-.39-1.83-.73-2.74-1.07-.04-.3-.07-.6-.07-.85.95-.69,1.9-1.37,2.85-2.02.2.17.44.34.68.52M114.86,53.2c-.83.34-1.67.69-2.46,1.03-4.34-.78-4.82-5.62-1.15-7.24,0-1.44,0-2.91.04-4.36-1.99,0-3.97,0-5.97.04-2.22,5.56-12.04-3.42-2.54-5.42,1.79.76,1.91.37,2.74,2.56,1.9,0,3.81,0,5.76.04-.04-1.7-.07-3.42-.07-5.13-8.43-3.37,8.31-12.32,4.01-.43l-1.08.52c-.04,1.67-.04,3.34-.04,5.04,1.6-.04,3.23-.04,4.86-.04.95-3.08,3.31-2.68,5.76-1.63,2.22,6.03-3.5,8.38-5.56,4.49-1.72-.04-3.39-.04-5.06-.04,0,1.49,0,3.04.04,4.57,2.46,1.03,1.43,3.94.72,5.99M113.79,59.1c.15.26.31.56.47.85-.32.35-.75.81-1.07.81-3.22-.26-1.98-1.84.6-1.66M114.07,63.88l-2.39.64c-.16-.25-.27-.47-.4-.68.32-.17,3.3-1.62,2.79.04M113.11,57.22c-.51-.22-.99-.39-1.48-.56-.45-2.92,3.65-.6,1.48.56M116.69,66.49c0,.86-.05,1.07-.64,2.01-2.65,0-5.28,0-7.9.05-.28-1.11-.16-1.2.16-1.93,1.93-.17,6.55-1.11,8.38-.12M116.69,71.03c-.36-.09-.68-.13-.99-.17.12-.3.23-.56.39-.81.4.17.92,1.15.59.98M118.04,73.78c-1.34-.5-2.19-1.13-1.97-1.9.56-.17.98.07,1.9.5-.52.72.22,1.39.08,1.39M119.48,75.29c-.12,0-.19.07-.26.15-.72-.29-1.36-.56-2.03-.78.13-.2.26-.42.4-.56.58.21,1.23.42,1.89.7v.48ZM120.93,76.86c-.05.17-.1.35-.1.56-.62.06-1.18.12-1.77.23l-1.86-1.33c0-1.22,3.45.37,3.73.54M122.52,79.22l-.18.39c-1.09,0-2.19,0-3.23.06l-.43-.45c1.41-.72,1.64-.85,3.84,0M123.37,81c-.45.42-1.05.9-1.49.9-.4-.24-.77-.48-1.11-.66.23-.42.44-.83.71-1.2.4,0,1.06.41,1.89.96M124.99,83.16c-.59.43-.95.82-1.58.82s-.84-.82-.88-.95c.92-.47,1.11-.89,2.39-.56,0,.22.04.43.07.68M126.98,85.31q-2.15,1.2-2.35,1.2c-.91-.77-.75-.77-.23-1.46.84,0,1.67.05,2.51.09,0,.05.04.09.07.18M128.15,87.65c-.95.37-2.5,1.12-2.98,1.12-.2-.38-.34-.76-.47-1.06,1.33-.45,1.95-.9,3.46-.07M129.58,89.71c-.05.29-.09.63-.09.97-.96.05-1.91.15-2.8.23-.23-.29-.45-.53-.68-.78.95-1.01,1.99-.92,3.57-.43M130.98,93.01h-3.19l.15-.87c.97-.07,2-.12,3.03-.12v.99ZM132.1,94.01q-.51.36-2.23.98c-.4-.25-.8-.49-1.2-.68.92-.3,1.88-.37,3.43-.3M132.35,97.75c-.64-.34-1.28-.68-1.86-1.03,0-5.11,4.58,2.45,1.86,1.03M134.83,98.3c0,.24-.35,2.07-.74,1.88-.95-.36-1.47-.85-1.8-1.16.18-.29,1.69-1.03,2.54-.73M136.82,102.38c-.56-.06-1.11-.06-1.63-.06-.4-.32-.75-.59-1.11-.87,1.43-.87,1.07-1.14,2.63.11,0,.28.05.56.11.82M138.11,104.05c-.68.14-1.35.34-1.97.53-.67-.27-1.28-.47-1.88-.66.12-.32.29-.66.47-.92,1.41-.13,1.66-.18,3.37,1.05M136.39,107.13l-1.1-1.15c3.34-1.94,4.65-.39,1.1,1.15M139.94,106.62c0,1.58-2.19,1.19-1.4,1.08-.26-.06-1.19.26-1.41.18l1.53-1.44c.53,0,.69.12,1.28.17M141.55,109.46q-.77.39-1.19.39-1.98-.65-2.09-.83c.53-.56,3.79-1.42,3.28.44M142.88,110.97q-2.6.76-3.16.76c-.17-.18-.33-.36-.5-.48.95-.29,2.28-1.19,3.61-.95,0,.19,0,.42.06.67M144.65,114.13c-1.77-.26-2.67-.64-3.51-1.29,3.77-.96,3.57,1.35,3.51,1.29M143.22,115.68c-.14-.15-.28-.29-.37-.44,1.38-.49,1.56-.75,3.35.05-.74.79-2.25.4-2.98.4M144.98,121.53c2.31,0,4.41-1.5,6.96-.13-.4,2.43.86,4.73.15,7.48-1.03,0-1.74-.81-2.22-1.2v-.31c.8-.67.84-.72,2.07-.8-.17-.34-.32-.69-.48-.99-1.56-.3-3.3-.6-4.38.04,1.83,1.8,4.13,6.03,5.95,8.81.6-.05,1.2-.05,1.8-.05l-1.2-1.16,1.67-1.8c.16.04.44.16.87.64-1.2,2.92-.15,3.51-2.93,5.35-.16,1.54-1.17,11.41-2.59,9.88-2.82-3.59-4.85-7.87-8.34-3.5l-.44-.47c1.11-.9,2.22-1.8,3.38-2.65-.43-.39-.87-.72-1.27-1.06l1.08-.77c-1.43-6.16-1.83-11.08-5.57-15.61-1.16-.87-6.03-4.33-6.31-4.93.79,0,2.31.69,3.5.69-2.38-9.15-8.86-18.01-10.34-26.04,4.85,3.68,8.19,16.37,13.83,20.01-.04.29-.07.59-.07.93,2.27,1.37,2.87,4.75,4.88,7.62M152.62,130.81c-.24-.22-.48-.43-.67-.65.19-.68.27-.6,1.06-.34,0,.26.04.51.09.76-.37.18-.2.22-.48.22M147.84,120.03c-.63.12-1.27.3-1.87.47-.16-.21-.32-.43-.47-.6.43-.29.87-.59,1.35-.86.31.3.64.65.99.99M155.12,107.12c10.57,1.33,10.46,3.21,10.1,14.41-.59,5.21-3.69,7.95-8.18,8.72l-2.43-.39c-.04-.77-.04-1.5-.04-2.22.62-.3,1.26-.59,1.9-.86,0-1.92-1.67-1.43-1.67-2.05,1.67-1.8,4.13,1.54,3.58-2.05h-3.86c0-2.07,1.07-1.55.83-3.08-1.99-.13-3.94-.22-5.88-.3,0-5.43,2.79-7.99,5.64-12.19M174.71,111.13c-1.7,2.48-3.58,14.33-8.26,14.33h-.12c0-13.51,2.58-17.91-10.69-19.71-.36-.55-.6-1.11-.6-1.36,5.33-3.43,21.74-1.33,27.62.68-2.77,1.97-5.4,3.93-7.95,6.06M184.37,119.95c-.08,0-.16,0-.24.05-.87-1.15-1.39-2.14-1.78-3.04.04-.04.07-.04.11-.04.32.38,2.3,1.93,1.91,3.03M189.1,126.74v-1.06c-.48-.26-.92-.52-1.36-.73v-.51c.56-.17,1.03.1,1.83.56-.36,3.12-1.52,3.38-3.86,4.4-.15-.08-.31-.16-.48-.21,2.57-6.03.78-.78,3.86-2.44M199.07,119.73c.64,8.34-10.02,10.26-13.36,16.77,1.52,0,9.51-3.93,9.95-3.46-3.86,3.12-8.95,8.03-13.72,8.67-.59-.65-1.19-1.24-1.79-1.83-1.27.9-4.29,10.89-4.29,12.77l1.3-.12c.84-2.95,1.71-5.86,2.59-8.77.99.13,2.02.26,3.06.43.76,5.46-.16,12.79-.51,18.81-.76.64-4.37,3.68-5.05,3.34-.84-1.5-1.67-2.99-2.46-4.49,1.8-1.62,3.74-3.5,5.45-5.34-2.35-2.53-10.89,7.87-13.28,5.29,3.1-7.18,8.67-23.9,13.64-30.57-.76-4.19-6.48-8.81-5.29-11.11,2.06,1.11,6.11,4.99,8.3,4.87,1.12-2.35,1.88-4.32,4.1-5.51.4.22.79.43,1.23.68l.24,2.14c-3.66,1.88-4.77,4.28-5.81,8.72,4.58,2.95,7.75-7.65,8.34-7.65.64.56.76.77,1.94.47.53-2.05-.83-2.48.53-3.94l1.27.26c0,.59,0,1.24.03,1.88,1.24-.86,1.76-1.33,2.59-2.73.32.13.64.26,1,.43M179.88,126.71c.35,0,.71,0,1.06.04-.2-1.97-3.65-4.75-4.84-4.75,1.19,1.46,2.54,2.87,3.78,4.71M180.67,161.65c-.23-.39-.43-.78-.63-1.16-1.75.25-1.87.25-2.54,2,.19.31.44.65.68.99.71,0,2.02-1.02,2.5-1.83M154.6,110.11v1.16c3.17-.04,6.36-.09,9.54-.09-3.75-2.65-5.76-1.88-9.54-1.07M154.41,113.32c-.05.39-.09.77-.09,1.15,1.72-.12,2.15-1.25,3.19.65-.4.35-.81.68-1.2,1.07.16.3.32.64.48.98,1.35,0,2.7.04,4.09.09v-.94l-.96-.13c-.67-1.12-.23-1.46.04-2.27.48-.04,1-.09,1.52-.09v-.93c-3.62-.86-3.93-.64-7.07.43M157.19,117.76c-.28.39-.48.61-.48,1.33,1.52-.04,3.03-.08,4.58-.08-1.39-.42-2.74-.86-4.09-1.25M150.26,121.62c-.31.51-.62,1.03-.91,1.58l-2.66-.13-.24.52.84.75c1.43-.08,2.87-.13,4.34-.16l-1.08-2.57s-.28,0-.28,0ZM114.78,49.95c-2.62-5.22-7.2.51-2.31,2.27,1.52-.51,1.63-.64,2.31-2.27M114.78,32.15c-1.43-2.65-3.3-2.73-4.57,0,.63,1.38.44,1.33,2.26,2.01,1.28-.34,1.72-.68,2.31-2.01M119.87,41.18c.59,1.33.48,1.63,2.27,2.26,5.16-1.36-.16-7.78-2.27-2.26M104.28,41.44c0-5.35-8.03-.34-2.1,2,1.2-.12,1.63-1.06,2.1-2M85.58,109.64c-.68-.34-1.01-.12-1.32-.12-.28-.77-.56-1.5-.79-2.22-2.08-.73-4.06,1.8-4.06,3.89.35-.34.71-.68,1.08-.98.32.26.63.56.95.86,0,.39-.59.98-.91,1.42.35.16.75.34,1.15.55,1.66-.94,2.58-1.8,3.9-3.38M76.43,109.39c1.63,0,4.69-3.04,6.63-4.07-.23-.42-.48-.81-.68-1.2-2.82-.34-4.96,2.95-5.96,5.27M76.67,119.73c-4.05-6.07-4.49-6.63-4.64-13.26-5.09,3.98,1.94,13.04,3.49,18.47,0,.05,0,.09.05.14,1.2-.52,1.11-4.49,1.11-5.35M81.17,140.56c-1.88,2.69-1.88,11.5-1.88,14.84.05,0,.09,0,.16.04,0,2.65-1.51,3.55,1.55,5.05.08,0,.2,0,.32.04.63-6.33,1.5-13.12.95-19.21-.4-.26-.75-.51-1.11-.76M83.67,140.48c.08,6.84-.2,14.2.59,21.33.47-.04,1-.07,1.51-.07-.44-7.11-.87-14.2-1.27-21.26,0,0-.83,0-.83,0ZM85.26,140.14c0,7.35,1.39,14.96,2.42,22.53.36.17.75.39,1.15.6.09,0,.15,0,.24.04-.59-7.9-1.15-15.94-3.02-23.34-.28.04-.56.07-.79.17M55.41,126.58c1.63-1.8,3.22-3.3,2.74-5.65-1.55.81-2.27,3.75-2.78,5.51,0,.05,0,.1.04.14M49.09,120.59c-1.64-.44-.22-1.41-2.07.08.28.34.6.68.92,1.03.23,0,.91-.86,1.15-1.11M66.38,195.51c0,1.2.27,1.71,1.03,3.03.36-.26.75-.47,1.15-.69-.12-2.73-.44-3.03-2.18-2.35M111.33,198.38c-.44.51-.88,1.07-1.32,1.63.48.42.96.9,1.47,1.36q.23,0,1.99-.81c.16-.61-.23-1.5-.23-1.55l-1.91-.64ZM141.97,199.57c0,.94.84,1.46,1.95,1.75.51-.08,1.03-.13,1.55-.16.12-.6.08-1.21.08-1.38-1.39-.68-2.54-.9-3.58-.21M179.35,181.9c.37-1.4.05-1.37-.59-2.18-1.55.09-1.8,1.28-2.31,1.28.44.48.87.99,1.31,1.5.51-.2,1.03-.42,1.58-.6M174.71,176.78c.87-1.88.67-1.49-.2-2.77h-1.82c-.32.5-.6,1.05-.87,1.62.35.43.71.9,1.11,1.37.6-.1,1.2-.18,1.79-.22M167.2,171.44c.2-.61.4-1.16.59-1.72-1.51-2.31-1.31-1.03-3.53.34.36.42.71.9,1.07,1.38h1.87ZM158.77,133.8c-1.51,2.43-1.66,2.15.44,4.46.71-.09,1.47.07,2.22.03.88-1.41,1.27-2.18,1.15-3.85-1.77-.9-2.1-.81-3.81-.65M162.39,134.78c-.16,1.33-.32,1.88-1.11,3.04l-2.26-.15c-2.04-3.63.27-4.25,3.37-2.88M161.8,135.09l-2.39-.64-.83,1.41c.71.51,1.47,1.03,2.23,1.58h.23c.67-1.07.75-1.33.75-2.35M159.57,134.83c.67.12,1.36.31,2.02.47,0,.56-.19,1.03-.63,1.72h-.2l-1.79-1.28.59-.9ZM119.55,174.73c-.24.56-.48,1.16-.68,1.75.6.43,1.23.9,1.87,1.37.51,0,1.55-.59,2.27-.85,0-.69-1.15-2.06-1.19-2.15l-2.27-.12ZM127.22,191.4c-.6.18-1.2.39-1.75.6-.13.5-.2,1.03-.29,1.58.41.39.8.81,1.24,1.25,2.71-.35,1.67-2.1.8-3.43M113.31,184.05c-1.03-.04-2.03-.09-3.02-.09-.13.56-.13.94-.13,1.8l1.43.38c1.51,0,2.03-.78,1.72-2.1M90.98,172.2c0,1.45.12,1.62,1.36,2.83.51,0,1.55-1.08,2.06-1.5,0-3.38-2.27-1.72-3.42-1.33M83.67,178.91h-2.27q.09,1.84.2,2.27.4.16,1.47.3c1.83,0,.92-1.76.6-2.57M92.96,189.23l-.23.9c.2.3.44.6.68.93.67,0,1.34.05,2.02.1-.07-1.32-.12-1.42-.59-2.18l-1.87.26ZM81.68,195.81q.51-.05,2.58-.68l-1.99-2.27c-.63,0-.88.39-1.36.6v1.8c.25.16.48.35.76.55M63.72,185.77c-1.08-.47-1.11-.21-1.91.04-.08,1.2.36,1.71,1.12,3.03,1.83-.64,1.19-1.28.79-3.07M65.54,179.99c0,.98.36,1.42,1.03,2.51.36-.2.75-.42,1.15-.6,0-2.13-.57-2.62-2.18-1.91M58.79,168.14c.12,1.47.28,1.68,1.42,3.17.36-.21.76-.42,1.15-.61,0-2.78-.39-3.41-2.57-2.57M67.89,163.86c1.47-1.88,1.43-1.58.48-3.12-.52-.04-1-.04-1.47-.04-.79,1.84-.92,1.37.2,3.16h.8ZM83.7,131.58c.69.32.99,1.23.45,2.87-.32.13-.6.26-.88.42-1.87-.2-2.22-1.28-1.99-2.78.57-.38,1.15-.59,1.65-.63-.49-.02-1.08.04-1.76.25-.56,1.84-.04,3.16,1.93,3.47,2.18-.58,2.43-2.99.59-3.59M82.93,131.46c.29.02.54.05.77.12-.23-.1-.48-.15-.77-.12M170.49,200.25c4.18-.77,8.86-3.55,12.32-6.54-7.08-2.31-13.2-5.3-19.63-8.29-4.09-3.3-12.19-9.07-17.13-9.07,2.86,9.23,16.23,21.55,24.44,23.9M150.26,180.28c-.91-1.11-2.29-2.22-2.57-2.82,3.85,0,11.1,5.84,13.82,7.56,1.93,1.22,2.35,1.5,4.74,2.66,5.17,1.41,9.66,5.72,15.48,6.11-2.51-.17-8.53,4.43-10.95,4.43-2.75-.3-9.38-3.23-9.87-5.03-3.84-5.17-9.42-6.16-10.65-12.92M66.18,205.94c-6.01.77-11.88,2.39-17.05,5.26,0,.34.44.76.79,1.28,3.34-.69,11.88-4.06,14.98-3.42,2.87,3.25,5,5.17,8.75,7.87,7.59,2.7,10.57-5.3,15.89-5.3,11.49,12.36,10.69,6.85,24.44,1.07.15-.04,9.97,7.22,14.78,7.65,5.37-.38,8.63-5.22,13.91-5.22,10.69,4.54,12.28,3.89,22.1-2.43,5.76-1.66,12.44,3.12,19.88.6-.09-.22-.16-.39-.24-.56-7-.81-14.15-3.47-20.83-3.25-6.83,5.86-11.25,9.27-19.11,3.75.04-.07.08-.12.12-.17-.04-.04-.09-.08-.09-.12-.15,0-.32,0-.43.04-2.98-3.2-3.46-1.92-6.63-.22-7.96,7.57-13.64,6.3-20.27-1.7-7.91-5.91-12.4,11.96-23.53,1.79-4.82-5.39-4.02-5.09-10.38-.85-8.94,4.96-11.16.68-17.08-6.08M55.84,217.75c10.89-1.7,6.67-4.02,16.41,3.25,6.52,3.25,9.13-.43,16.09-1.72,5.05,4.32,11.13,5.56,17.88,5.17,9.5-5.77,6.28-5.13,14.79,1.38.84.43,2.11.39,3.18,1.15,6.4,0,9.18-.47,14.71-4.36,5.84-2.82,12.05,3.6,20.47.13,6.83-3.17,9.89-2.36,17.41-2.52-.05-.6-.09-1.2-.09-1.75-11.64-2.05-10.37-4.07-19.31,2.22-7.99,3.5-12.99-4.03-19.63-.99-13.12,9.63-13.12.3-25.03-2.09-8.15,3.94-10.01,5.61-18.69,1.87-1.66-1.15-4.53-3.67-5.88-3.93-9.66,3.89-11.32,7.02-19.75.35-3.65-2.6-11.76-4.15-12.56,1.84M78.34,225.53c.24.47.48.95.76,1.45,2.15,0,3.42-.13,5.76-.94.09.08.16.18.24.3,6.04,0,6.96,1.49,12.79,3.2,4.73.98,10.14-1.97,15.02-2.44,5.84,2.23,7.4,3.47,14.59,4.28,4.52-.13,7.31-.6,11.6-2.99,4.82-2.23,6.28,1.33,12.53.26.19-.43.39-.81.63-1.2-4.18-1.45-12.64-5.6-15.34-.6-5.01,2.48-10.93,2.62-16.05,1.55-3.06-1.42-5-3.94-7.99-3.94-4.6,1.21-12.68,5.05-16.76,1.5-9.34-4.58-7.99-3.81-17.77-.43M105.05,232.12c-.13.37-.32,1.19-.68,1.57,1.55,2.53,6.2-.42,7.82-1.32,2.54,0,5.21,1.45,8.08,2.53.27-.13.59-.87.78-1.25-6.28-4.96-8.82-3-16.01-1.53"/><path class="cls-1" d="M76.92,243.4c1.45.46,2.94,1.13,4.01,1.86l-1.47,4.57-1.81-.58c-.13-.83-.18-1.8-.14-2.51-.44-.42-1.19-.92-2.18-1.23-1.24-.39-2.43-.24-2.87,1.1-1.03,3.21,7.02,4.46,5.35,9.67-.87,2.69-3.92,4.02-8.15,2.66-1.23-.4-2.69-1.06-3.71-1.63l1.41-4.41,1.78.57c.15.87.21,1.9.15,2.57.31.29,1.05.68,1.72.89,1.37.44,2.39.1,2.76-1.07.93-2.93-7.13-4.49-5.5-9.59.89-2.81,4.19-4.3,8.64-2.88"/><path class="cls-1" d="M63.75,238.69l-.73,1.31c-.8.07-1.66.04-2.46-.14l-5.51,9.86c.53.54,1.05,1.31,1.42,2.01l-.72,1.28-7.27-4.07.72-1.28c.78-.05,1.72,0,2.45.16l5.52-9.86c-.56-.59-1.05-1.31-1.42-2.03l.73-1.3s7.27,4.06,7.27,4.06Z"/><path class="cls-1" d="M35.81,225.14l3.39-3.49c2.07.63,4.24,1.84,6.1,3.64,3.72,3.61,3.8,8.21.44,11.69-3.77,3.89-8.86,3.84-13.19-.35-1.27-1.22-2.53-2.73-3.42-4.14l3.37-3.48,1.39,1.34c-.19.82-.53,1.63-.91,2.3.41.82,1.06,1.74,1.99,2.64,2.34,2.27,5.15,1.52,7.43-.84,2.19-2.27,2.67-5.32.18-7.73-.54-.52-1.12-1-1.7-1.31l-2.32,2.39c.29.53.5,1.27.66,1.93l-1,1.03-5.05-4.89,1-1.04c.52.04,1.1.11,1.64.29"/><path class="cls-1" d="M35.61,214.44l-1.28.78c-.73-.33-1.47-.79-2.08-1.33l-9.63,5.9c.2.73.28,1.66.26,2.44l-1.26.77-4.35-7.1,1.25-.76c.7.34,1.5.84,2.06,1.34l9.63-5.91c-.2-.78-.27-1.66-.23-2.45l1.28-.78s4.35,7.1,4.35,7.1Z"/><path class="cls-1" d="M28.02,200.95l-1.41.53c-.62-.45-1.28-1.03-1.8-1.69l-10.56,4.01c.06.75-.03,1.71-.2,2.45l-1.38.52-2.95-7.79,1.38-.52c.62.45,1.33,1.13,1.77,1.7l10.78-4.09-1.39-3.42c-.69.05-1.74.05-2.67,0l-.67-1.78,4.61-1.74s4.49,11.83,4.49,11.83Z"/><path class="cls-1" d="M21.71,182.37l-1.47.31c-.54-.53-1.11-1.22-1.51-1.96l-11.06,2.31c-.06.75-.29,1.69-.58,2.39l-1.44.3-1.7-8.16,1.44-.3c.54.53,1.14,1.33,1.48,1.96l11.3-2.35-.84-3.6c-.69-.06-1.74-.23-2.64-.42l-.39-1.86,4.82-1.01,2.59,12.4h0Z"/><path class="cls-1" d="M3,149.26l7.34-.6c4.49-.36,7.05,2.28,7.41,6.53.44,5.18-2.04,7.18-5.66,7.49l-7.88.68c-.16.53-.59,1.24-.91,1.67l-1.47.12-.63-7.32,1.47-.13c.44.53.95,1.16,1.21,1.8l7.25-.62c2.72-.23,4.26-1.33,4.01-4.23-.2-2.35-1.72-3.41-4.16-3.17l-7.72.75c-.12.67-.57,1.41-.89,1.98l-1.47.13-.56-6.5,1.47-.12c.4.4.96.99,1.19,1.52"/><path class="cls-1" d="M16.69,123.3l-1.5-.03c-.45-.49-.92-1.17-1.02-1.75l-9.44,1.36v.03l11.88,4.43-.05,2.67-12.19,4.19v.03l9.48,1.15c.29-.66.72-1.23,1.14-1.71l1.5.03-.11,6.11-1.5-.02c-.35-.42-.73-.88-1.03-1.38l-11.3-2.08c-.28.69-.68,1.34-1.08,1.94l-1.47-.03.12-6.46,10.87-3.89v-.06L.27,123.73l.12-6.46,1.5.03c.34.61.75,1.25.98,2.01l11.37-1.96c.25-.45.65-.94,1.08-1.3l1.5.02s-.13,7.24-.13,7.24Z"/><path class="cls-1" d="M11.08,104.1c-.15,1.23-1.27,2.08-2.56,1.93s-2.18-1.25-2.03-2.48c.15-1.23,1.28-2.11,2.56-1.96,1.29.15,2.18,1.28,2.03,2.51"/><path class="cls-1" d="M9.62,75.86l7.16,1.75c4.38,1.08,5.96,4.4,4.96,8.55-1.21,5.05-4.2,6.17-7.73,5.32l-7.68-1.85c-.32.45-.95.99-1.39,1.3l-1.43-.34,1.72-7.15,1.43.34c.24.66.53,1.41.58,2.1l7.07,1.7c2.66.64,4.46.1,5.14-2.74.55-2.29-.54-3.78-2.95-4.32l-7.56-1.72c-.33.6-.99,1.16-1.47,1.6l-1.43-.35,1.52-6.34,1.43.34c.25.51.6,1.25.65,1.82"/><path class="cls-1" d="M21.33,48.49l12.46,6.33-1.55,3.06-14.68,1.88,8.71,3.89c.5-.45,1.14-.84,1.87-1.28l1.33.68-3.17,6.25-1.34-.68c-.07-.85-.12-1.68-.02-2.35l-9.98-5.23c-.56.56-1.27,1.03-1.97,1.49l-1.31-.67,2.95-5.81,13.1-1.69-7.62-3.45c-.48.47-1.13.81-1.79,1.12l-1.31-.66,2.79-5.48,1.31.67c.13.68.25,1.29.23,1.93"/><path class="cls-1" d="M39.78,46.5l-1.11-1.01c.12-.79.35-1.63.7-2.37l-8.35-7.62c-.64.4-1.52.73-2.27.94l-1.08-1,5.61-6.16,1.09,1c-.14.77-.39,1.67-.72,2.35l8.35,7.61c.7-.41,1.52-.72,2.3-.91l1.11,1.01s-5.62,6.16-5.62,6.16Z"/><path class="cls-1" d="M57.6,14.54l2.65,14.82-3.03,1.85-12-9.16c-.48.05-1.04-.1-1.6-.19l-.77-1.25,6.18-3.77.77,1.26c-.26.62-.56,1.18-.97,1.79l8.44,6.58.05-.03-2.46-10.23c-.6.12-1.42.06-2.03.04l-.77-1.26,5.27-3.21.76,1.26c-.12.46-.23,1.06-.5,1.5"/><path class="cls-1" d="M73.72,22.82l-.41-1.45c.5-.55,1.12-1.2,1.83-1.64l-3.08-10.84c-.76-.04-1.72-.26-2.43-.43l-.4-1.42,11.98-3.41,1.14,3.99-1.8.51c-.45-.4-1.1-1.12-1.4-1.66l-3.44.98,1.3,4.6,2.83-.8c.04-.51.26-1.08.43-1.47l1.49-.43,1.28,4.51-1.5.42c-.32-.29-.89-.69-1.15-1.08l-2.83.8,1.43,5.01,3.44-.98c-.03-.71.14-1.6.31-2.27l1.83-.52,1.18,4.16-12.03,3.43h0Z"/><path class="cls-1" d="M110.37,16.32l-.21-1.76c-2.18.49-2.45-5.52-5.28-5.7,2.13-.78,3.32-2.38,3.15-4.38-.28-3.18-2.63-4.3-6.8-3.93-2.3.2-5.01.56-5.68.62l-2.05.18.13,1.47c.7.33,1.51.68,2.3.85l.99,11.26c-.81.32-1.58.81-2.12,1.28l.13,1.5,7.76-.68-.13-1.5c-.52-.32-1.19-.74-1.85-.92l-.37-4.19.92-.08c2.82-.25,2.77,6.82,6.5,6.49.89-.07,1.89-.23,2.6-.5M101.48,8.05l-1.32.12-.44-5.04c.28-.08.79-.16,1.03-.18,2.15-.19,3.27.65,3.42,2.35.12,1.38-.62,2.56-2.68,2.74"/><path class="cls-1" d="M124,16.91c-1.53-.07-3.13-.32-4.35-.74l.23-4.81,1.9.09c.34.77.65,1.69.78,2.39.53.29,1.39.57,2.42.62,1.3.06,2.41-.4,2.48-1.81.16-3.37-7.93-2.48-7.68-7.94.13-2.82,2.73-4.9,7.17-4.69,1.3.06,2.87.32,4.02.61l-.22,4.62-1.87-.08c-.37-.8-.7-1.78-.81-2.45-.37-.2-1.19-.39-1.88-.42-1.44-.07-2.33.52-2.39,1.75-.14,3.06,8.05,2.48,7.8,7.83-.13,2.94-2.92,5.25-7.59,5.03"/><path class="cls-1" d="M140.17,17.98l.26-1.48c.73-.32,1.57-.57,2.38-.67l2.02-11.12c-.67-.34-1.42-.9-2-1.43l.26-1.45,8.2,1.49-.26,1.45c-.73.29-1.63.56-2.37.64l-2.02,11.12c.73.37,1.42.9,1.99,1.46l-.27,1.48-8.2-1.49h0Z"/><path class="cls-1" d="M173.56,15.76c-.05-.9-.1-2.08,0-2.91l-2.57-1.03-4.27,10.75c.63.45,1.22,1.17,1.69,1.84l-.56,1.39-7.77-3.09.56-1.4c.84-.15,1.72-.29,2.48-.17l4.28-10.75-2.57-1.03c-.45.66-1.36,1.56-1.99,2.12l-1.66-.66,1.83-4.61,14.06,5.59-1.83,4.61s-1.69-.67-1.69-.67Z"/><path class="cls-1" d="M195.3,23.65l-3.29-2.57-12.75,7.85c-.51-.1-1.17-.15-1.73-.13l-.92,1.18,4.79,3.75.93-1.18c-.17-.59-.37-1.21-.72-1.79l1.72-1.03,4.65,3.64-.58,1.91c-.62-.18-1.33-.27-1.94-.29l-.92,1.19,5.7,4.45.92-1.18c-.07-.48-.25-1.04-.45-1.58l4.6-14.22h0ZM191.07,24.53c-.26.68-.55,1.36-.78,2.13l-1.51,4.65-3.68-2.88,4.26-2.69c.64-.41,1.21-.85,1.69-1.23,0,0,.02.02.02.02Z"/><path class="cls-1" d="M211.39,49.74c.45-.77,1.06-1.79,1.61-2.42l-1.58-2.27-9.51,6.6c.28.72.37,1.63.4,2.46l-1.24.86-4.77-6.87,1.23-.86c.78.34,1.6.72,2.18,1.23l9.51-6.6-1.58-2.27c-.74.3-2,.54-2.83.67l-1.02-1.47,4.08-2.82,8.63,12.43-4.07,2.83s-1.03-1.5-1.03-1.5Z"/><path class="cls-1" d="M206.69,65.63l1.39-.56c.67.45,1.32,1.02,1.83,1.66l10.49-4.19c-.08-.75,0-1.69.15-2.45l1.37-.55,3.09,7.73-1.37.55c-.63-.46-1.33-1.08-1.8-1.67l-10.49,4.2c.07.81,0,1.68-.18,2.46l-1.39.56-3.09-7.73Z"/><path class="cls-1" d="M213.28,86.71c-.34-1.49-.52-3.1-.44-4.39l4.68-1.06.43,1.85c-.65.53-1.45,1.07-2.09,1.39-.14.6-.18,1.5.04,2.51.29,1.26,1.03,2.22,2.41,1.91,3.28-.75.26-8.31,5.6-9.52,2.75-.62,5.45,1.33,6.43,5.66.29,1.27.47,2.85.49,4.03l-4.52,1.03-.42-1.83c.68-.57,1.53-1.15,2.14-1.44.1-.4.06-1.25-.1-1.93-.32-1.4-1.13-2.1-2.33-1.83-2.99.68-.24,8.42-5.46,9.6-2.87.65-5.84-1.42-6.88-5.98"/><path class="cls-1" d="M223.83,104.1c-.15-1.23.75-2.32,2.03-2.48,1.28-.16,2.42.7,2.57,1.93s-.75,2.35-2.03,2.51c-1.28.15-2.42-.73-2.57-1.96"/><path class="cls-1" d="M217.86,115.75l1.5-.07c.45.62.9,1.38,1.17,2.17l11.29-.48c.18-.73.56-1.6.95-2.26l1.47-.07.35,8.33-1.47.06c-.45-.62-.91-1.49-1.15-2.17l-11.52.48.24,3.69c.67.18,1.68.5,2.54.84l.08,1.9-4.93.21s-.53-12.65-.53-12.65Z"/><path class="cls-1" d="M231.69,152.04l-7.35-.34c-4.5-.22-6.69-3.17-6.52-7.43.22-5.19,2.93-6.86,6.57-6.71l7.9.33c.23-.51.74-1.15,1.11-1.54l1.47.06-.31,7.35-1.47-.06c-.36-.59-.78-1.27-.97-1.94l-7.27-.31c-2.73-.12-4.39.76-4.52,3.67-.1,2.37,1.26,3.61,3.73,3.68l7.75.24c.21-.66.75-1.33,1.14-1.86l1.47.07-.27,6.51-1.47-.07c-.34-.45-.83-1.1-.98-1.66"/><path class="cls-1" d="M233.12,163.97l-1.45-.24c-.54.62-1.09,1.37-1.41,2.02l-11.15-1.87c-.1-.81-.36-1.63-.7-2.36l-1.48-.25-.37,2.21c-.37,2.19-.76,4.14-.98,5.51-.94,5.6,1.41,8.13,3.9,8.55,1.78.3,3.67-.65,4.39-3.09.17,2.05,1.42,3.13,2.93,3.39,2.67.45,4.34-1.32,5.05-5.56.35-2.1.67-4.74.9-6.14,0,0,.37-2.16.37-2.16ZM223.23,168.43l-.24,1.42c-.41,2.47-1.5,3.9-3.17,3.62-1.39-.23-2.45-1.38-2.08-3.57.17-.99.42-1.77.69-2.28,0,0,4.8.81,4.8.81ZM229.96,169.56c-.04.58-.12,1.08-.24,1.8-.36,2.13-1.52,2.73-2.89,2.5-1.36-.23-2.25-1.14-1.85-3.53.1-.59.19-1.14.29-1.55l4.68.78Z"/><path class="cls-1" d="M212.47,184.1l1.42.48c.16.72.34,1.6.31,2.45l10.68,3.61c.45-.61,1.19-1.27,1.74-1.75l1.39.47-4,11.8-3.93-1.33.6-1.78c.59-.13,1.55-.26,2.17-.2l1.14-3.39-4.53-1.53-.94,2.79c.4.32.73.83.97,1.18l-.5,1.47-4.44-1.5.51-1.48c.41-.1,1.06-.34,1.54-.33l.95-2.79-4.93-1.67-1.15,3.39c.6.39,1.24,1.03,1.7,1.55l-.62,1.8-4.1-1.39s4.02-11.85,4.02-11.85Z"/><path class="cls-1" d="M200.67,210.43c2.87-4.74,6.73-5.73,11.05-3.12,5.07,3.06,5.9,7.85,3.26,12.21-.98,1.63-1.98,2.81-2.85,3.67l-4.63-2.79,1.01-1.68c.93.09,1.94.33,2.71.62.54-.31,1.13-.93,1.58-1.67,1.3-2.15.36-4.5-2.76-6.38-2.95-1.79-5.53-1.25-7.45,1.93-.61,1.01-1.11,2.3-1.25,3.53l-2.25-.75c-.07-1.75.48-3.75,1.56-5.56"/><path class="cls-1" d="M193.27,221.22l1.03,1.09c-.2.72-.45,1.58-.87,2.31l7.73,8.2c.7-.32,1.66-.56,2.36-.73l1.01,1.07-9.06,8.55-2.84-3.02,1.36-1.28c.58.15,1.5.49,2.01.83l2.6-2.45-3.28-3.48-2.14,2.03c.2.46.26,1.07.3,1.49l-1.14,1.07-3.22-3.41,1.14-1.07c.41.1,1.1.2,1.51.43l2.14-2.03-3.56-3.77-2.6,2.45c.35.62.61,1.49.77,2.16l-1.39,1.31-2.97-3.15s9.1-8.58,9.1-8.58Z"/><path class="cls-1" d="M169.4,254.18l-6.14-12.55,3.09-1.51,12.86,7.32-4.62-8.34c-.68.07-1.42,0-2.27-.1l-.66-1.35,6.29-3.08.66,1.35c-.45.72-.91,1.42-1.39,1.88l4.82,10.18c.78-.11,1.63-.07,2.47,0l.64,1.32-5.85,2.87-11.48-6.52,4.01,7.34c.66-.1,1.39.02,2.11.17l.64,1.33-5.52,2.7-.65-1.32c.31-.62.58-1.19.98-1.69"/><path class="cls-1" d="M149.7,245.22c1.49-.33,3.1-.5,4.39-.42l1.04,4.69-1.85.42c-.53-.66-1.06-1.46-1.38-2.1-.59-.15-1.49-.2-2.51.03-1.26.28-2.22,1.02-1.92,2.4.73,3.28,8.31.31,9.49,5.65.61,2.76-1.36,5.44-5.7,6.4-1.27.29-2.86.45-4.03.46l-1-4.52,1.83-.4c.56.67,1.14,1.53,1.42,2.15.4.1,1.25.06,1.93-.09,1.41-.31,2.11-1.11,1.85-2.32-.66-2.99-8.42-.29-9.57-5.5-.64-2.88,1.45-5.84,6.01-6.85"/><path class="cls-1" d="M134.81,248.11l.12,1.5c-.62.51-1.37.95-2.13,1.25l.91,11.27c.73.15,1.6.5,2.3.87l.12,1.47-8.3.67-.12-1.47c.63-.47,1.43-.96,2.13-1.22l-.91-11.27c-.79-.18-1.6-.51-2.3-.9l-.12-1.5,8.31-.67h0Z"/><path class="cls-1" d="M113.44,248.62c1.53.04,3.14.26,4.36.64l-.11,4.81-1.91-.05c-.36-.76-.68-1.66-.84-2.36-.54-.29-1.4-.55-2.44-.57-1.29-.04-2.4.45-2.43,1.86-.09,3.37,7.99,2.3,7.86,7.77-.07,2.82-2.63,4.95-7.08,4.85-1.3-.04-2.87-.25-4.02-.52l.12-4.63,1.87.04c.39.79.74,1.76.87,2.43.38.19,1.2.36,1.89.37,1.45.04,2.33-.57,2.35-1.8.07-3.06-8.1-2.3-7.98-7.65.07-2.95,2.82-5.32,7.48-5.2"/><path class="cls-1" d="M92.82,254.46c1.22.18,2.05,1.33,1.86,2.61-.18,1.27-1.3,2.15-2.52,1.97-1.23-.17-2.08-1.33-1.9-2.62.18-1.28,1.33-2.14,2.56-1.97"/><path class="cls-1" d="M300.55,154.54v-16.8h-5.26v17.09c0,3.97-2.13,6.14-6.14,6.14-4.38,0-6.52-2.05-6.52-6.14v-17.09h-5.22v16.8c0,5.06.92,7.35,3.76,9.32,2.08,1.42,4.34,2,7.81,2s5.77-.62,7.77-2c2.88-2,3.81-4.26,3.81-9.32M336.51,165.56v-27.82h-4.97v20.48l-.25-.5-.25-.71c-.05-.09-.13-.25-.25-.54s-.25-.5-.29-.59l-11.58-18.14h-6.06v27.57h5.01v-20.22c.13.46.21.63.38.97.04.04.16.25.33.58.34.59.51.97.59,1.09l11.83,17.83h5.51ZM354.48,137.74h-5.26v27.57h5.26v-27.57ZM387.63,137.74h-5.51l-6.01,18.63-.17.34c-.08.2-.13.33-.13.71l.05.29-.13-.5-.08-.46-.08-.38-6.31-18.63h-5.76l10.23,28.36h3.67l10.23-28.36ZM414.11,165.31v-4.46h-12.08v-7.36h9.44v-4.46h-9.44v-6.81h11.53v-4.47h-16.79v27.57h17.34,0ZM444.78,165.31l-6.85-11.83c2.3-.62,3.26-1.21,4.3-2.54,1-1.33,1.5-3.05,1.5-5.18,0-2.59-.76-4.6-2.26-5.97-1.63-1.55-3.46-2.05-7.48-2.05h-9.19v27.57h5.26v-11.03h2.64l6.3,11.03h5.76,0ZM438.32,145.89c0,2.76-1.47,3.93-4.81,3.93h-3.43v-7.61h3.43c3.43,0,4.81,1.04,4.81,3.68M472.41,139.58c-1.83-.87-2.59-1.17-3.92-1.58-1.71-.5-3.34-.71-5.18-.71-3.22,0-4.93.46-6.94,1.83-.87.63-1.58,1.33-2.05,2.05-.66,1.05-1.08,2.46-1.08,3.84,0,3.01,1.5,4.85,6.39,7.65l4.26,2.42c1.8,1,2.43,1.8,2.43,2.97,0,1.67-1.59,2.76-4.01,2.76-1.09,0-2.6-.29-3.97-.79-1.08-.42-1.92-.84-3.92-1.92l-2.21,4.85c.79.38,1.42.67,1.8.83,2.88,1.34,3.8,1.67,5.76,1.92.79.13,1.63.17,2.46.17,6.1,0,9.69-2.88,9.69-7.81,0-1.92-.71-3.76-1.88-4.93-1.3-1.29-4.05-3.05-8.27-5.31-1.97-1.04-2.64-1.75-2.64-2.93,0-1.55,1.59-2.54,4.05-2.54,1.84,0,4.22.67,7.15,1.97l2.08-4.72h0ZM488.04,137.74h-5.26v27.57h5.26v-27.57ZM518.98,142.21v-4.47h-21.8v4.47h8.27v23.1h5.26v-23.1h8.28ZM540.84,134.94c0-1.29-1.04-2.29-2.3-2.29s-2.25,1-2.25,2.29,1,2.26,2.25,2.26,2.3-1.01,2.3-2.26M533.95,134.81c0-1.25-1-2.25-2.26-2.25s-2.3,1-2.3,2.25,1.05,2.3,2.3,2.3,2.26-1.04,2.26-2.3M547.28,165.31l-9.99-27.57h-4.72l-9.98,27.57h5.51l2.25-6.81h9.23l2.17,6.81h5.52ZM538.18,154.04h-6.39l3.17-9.98,3.22,9.98ZM572.69,142.21v-4.47h-21.8v4.47h8.28v23.1h5.26v-23.1s8.27,0,8.27,0ZM617.1,165.31v-4.46h-14.71l14.71-19.68v-3.42h-21.81v4.47h14.71l-14.96,19.68v3.42s22.06,0,22.06,0ZM650.02,154.54v-16.8h-5.26v17.09c0,3.97-2.13,6.14-6.14,6.14-4.38,0-6.52-2.05-6.52-6.14v-17.09h-5.22v16.8c0,5.06.92,7.35,3.76,9.32,2.08,1.42,4.34,2,7.82,2s5.76-.62,7.77-2c2.88-2,3.8-4.26,3.8-9.32M693.85,165.31v-4.46h-11.28v-23.11h-5.26v27.57h16.55,0ZM720.28,134.94c0-1.29-1.05-2.29-2.29-2.29s-2.26,1-2.26,2.29,1.01,2.26,2.26,2.26,2.29-1.01,2.29-2.26M711.76,134.9c0-1.25-1-2.3-2.29-2.3s-2.26,1.04-2.26,2.3,1.01,2.25,2.26,2.25,2.29-1,2.29-2.25M725.5,154.54v-16.8h-5.26v17.09c0,3.97-2.13,6.14-6.14,6.14-4.39,0-6.52-2.05-6.52-6.14v-17.09h-5.21v16.8c0,5.06.92,7.35,3.75,9.32,2.09,1.42,4.35,2,7.82,2s5.76-.62,7.76-2c2.89-2,3.8-4.26,3.8-9.32M757.31,157.96c0-4.3-2.63-7.02-6.8-7.1,2.17-.13,3.3-.63,4.51-2,1-1.17,1.58-2.81,1.58-4.35,0-1.8-.83-3.76-2.17-4.93-1.5-1.38-3.3-1.84-6.89-1.84h-9.98v27.57h11.23c5.51,0,8.52-2.59,8.52-7.35M750.75,145.43c0,2.34-1.58,3.59-4.55,3.59h-3.14v-7.1h3.43c2.68,0,4.26,1.29,4.26,3.51M751.55,157.38c0,1.42-.71,2.63-1.88,3.22-.79.38-1.55.5-3.18.5h-3.43v-7.61h3.43c3.26,0,5.06,1.38,5.06,3.89M785.48,165.31v-4.46h-12.08v-7.36h9.44v-4.46h-9.44v-6.81h11.53v-4.47h-16.79v27.57h17.33ZM816.77,139.87c-2.38-1.8-5.14-2.63-8.65-2.63-4.55,0-7.65,1.13-10.4,3.84-2.72,2.67-4.22,6.3-4.22,10.32,0,4.3,1.72,8.4,4.64,11.03,2.59,2.34,5.67,3.42,9.98,3.42,1.63,0,3.09-.17,4.43-.46,1.25-.29,1.96-.54,3.72-1.33l-.96-4.42c-2.47.96-4.1,1.29-6.06,1.29-6.01,0-9.94-3.89-9.94-9.82,0-5.23,3.8-8.99,9.1-8.99,2.43,0,4.55.63,6.35,1.92l2.01-4.17h0ZM847,165.31l-9.98-14.16,9.49-13.42h-6.05l-8.65,12.87v-12.87h-5.26v27.57h5.26v-13.12l9.19,13.12h6.02Z"/><path class="cls-2" d="M340.46,238.22v-16.83h-5.27v17.12c0,3.98-2.14,6.15-6.16,6.15-4.4,0-6.53-2.05-6.53-6.15v-17.12h-5.23v16.83c0,5.06.92,7.37,3.76,9.33,2.09,1.42,4.35,2.01,7.83,2.01s5.78-.63,7.79-2.01c2.88-2.01,3.8-4.27,3.8-9.33M375.65,249.26v-27.87h-4.98v20.51l-.25-.5-.25-.71c-.04-.08-.13-.25-.25-.55s-.25-.5-.29-.59l-11.6-18.17h-6.07v27.62h5.02v-20.26c.12.46.21.63.38.96.04.04.16.25.33.59.34.59.51.96.59,1.09l11.85,17.87h5.52ZM412.65,235.12c0-3.6-1.34-7.12-3.72-9.67-2.72-2.89-5.99-4.06-11.22-4.06h-10.25v27.62h10.21c4.99,0,8.63-1.34,11.18-4.05,2.42-2.6,3.8-6.15,3.8-9.84M406.96,235.16c0,5.9-3.52,9.21-9.8,9.21h-4.19v-18.34h4.19c3.02,0,5.15.55,6.62,1.63,1.97,1.47,3.18,4.36,3.18,7.5M443.12,221.39h-5.27v27.62h5.27v-27.62ZM478.59,249.26v-27.87h-4.98v20.51l-.25-.5-.25-.71c-.04-.08-.12-.25-.25-.55-.13-.29-.25-.5-.29-.59l-11.6-18.17h-6.06v27.62h5.02v-20.26c.13.46.21.63.38.96.04.04.17.25.34.59.33.59.5.96.59,1.09l11.85,17.87h5.52ZM509.01,225.87v-4.47h-21.84v4.47h8.28v23.14h5.27v-23.14s8.28,0,8.28,0ZM534.81,249.01v-4.47h-12.1v-7.37h9.46v-4.47h-9.46v-6.83h11.55v-4.47h-16.82v27.62h17.37ZM564.72,249.01l-6.86-11.84c2.3-.63,3.26-1.21,4.31-2.55,1-1.34,1.5-3.05,1.5-5.19,0-2.6-.75-4.61-2.26-5.99-1.63-1.54-3.47-2.05-7.49-2.05h-9.21v27.62h5.27v-11.05h2.64l6.32,11.05h5.77,0ZM558.24,229.55c0,2.76-1.46,3.94-4.81,3.94h-3.44v-7.62h3.44c3.43,0,4.81,1.05,4.81,3.69M596.19,249.01l-10.01-27.62h-4.73l-10.01,27.62h5.53l2.26-6.82h9.25l2.17,6.82h5.53ZM587.07,237.72h-6.4l3.18-10.01,3.22,10.01ZM624.87,249.01l-10.01-14.18,9.5-13.44h-6.07l-8.67,12.89v-12.89h-5.27v27.62h5.27v-13.14l9.21,13.14h6.03,0ZM652.91,225.87v-4.47h-21.84v4.47h8.28v23.14h5.27v-23.14h8.28ZM666.54,221.39h-5.27v27.62h5.27v-27.62ZM698.91,221.39h-5.52l-6.03,18.67-.17.34c-.08.21-.12.33-.12.71l.04.29-.12-.5-.08-.46-.08-.38-6.32-18.67h-5.77l10.25,28.42h3.68s10.25-28.42,10.25-28.42ZM724.59,249.01v-4.47h-12.1v-7.37h9.46v-4.47h-9.46v-6.83h11.55v-4.47h-16.82v27.62h17.36ZM767.66,223.23c-1.84-.88-2.59-1.17-3.93-1.59-1.71-.5-3.35-.71-5.19-.71-3.23,0-4.94.46-6.95,1.84-.88.63-1.59,1.34-2.05,2.05-.67,1.05-1.09,2.47-1.09,3.85,0,3.01,1.5,4.86,6.4,7.66l4.27,2.43c1.8,1.01,2.43,1.8,2.43,2.97,0,1.68-1.59,2.76-4.02,2.76-1.09,0-2.6-.29-3.98-.79-1.09-.42-1.92-.84-3.93-1.93l-2.21,4.85c.79.37,1.42.67,1.8.83,2.88,1.34,3.81,1.67,5.77,1.92.79.13,1.63.17,2.47.17,6.11,0,9.71-2.88,9.71-7.82,0-1.93-.71-3.77-1.88-4.94-1.3-1.3-4.06-3.06-8.29-5.32-1.97-1.05-2.64-1.76-2.64-2.93,0-1.55,1.59-2.56,4.06-2.56,1.85,0,4.23.67,7.16,1.97l2.09-4.73h0ZM797.27,221.39h-5.77l-5.82,10.8-5.52-10.8h-5.78l8.41,15.78v11.84h5.27v-11.84s9.21-15.78,9.21-15.78ZM822.53,223.23c-1.84-.88-2.59-1.17-3.93-1.59-1.71-.5-3.35-.71-5.19-.71-3.23,0-4.94.46-6.95,1.84-.88.63-1.59,1.34-2.05,2.05-.67,1.05-1.09,2.47-1.09,3.85,0,3.01,1.5,4.86,6.4,7.66l4.27,2.43c1.8,1.01,2.43,1.8,2.43,2.97,0,1.68-1.59,2.76-4.02,2.76-1.09,0-2.6-.29-3.98-.79-1.09-.42-1.92-.84-3.93-1.93l-2.21,4.85c.79.37,1.42.67,1.8.83,2.88,1.34,3.81,1.67,5.77,1.92.79.13,1.63.17,2.47.17,6.11,0,9.71-2.88,9.71-7.82,0-1.93-.71-3.77-1.88-4.94-1.3-1.3-4.06-3.06-8.29-5.32-1.97-1.05-2.64-1.76-2.64-2.93,0-1.55,1.59-2.56,4.06-2.56,1.85,0,4.23.67,7.16,1.97l2.09-4.73h0ZM851.49,225.87v-4.47h-21.84v4.47h8.29v23.14h5.27v-23.14s8.29,0,8.29,0ZM877.28,249.01v-4.47h-12.1v-7.37h9.46v-4.47h-9.46v-6.83h11.55v-4.47h-16.82v27.62h17.36ZM916.03,249.01v-27.62h-6.31l-7.66,19.71c-.25.67-.33.84-.5,2.13-.12-1.05-.25-1.34-.55-2.13l-7.37-19.71h-6.31v27.62h4.77v-20.42c.42,2.35.46,2.8,1.05,4.4l5.78,16.02h4.73l6.32-16.32c.88-2.3.84-2.51,1.05-3.94v20.25h5.02ZM945.33,249.01v-4.47h-12.1v-7.37h9.46v-4.47h-9.46v-6.83h11.55v-4.47h-16.82v27.62h17.37,0Z"/><path class="cls-2" d="M397.29,179.53h-5.27v27.62h5.27v-27.62ZM432.76,207.41v-27.87h-4.98v20.51l-.25-.5-.25-.71c-.04-.08-.13-.25-.25-.54-.12-.29-.25-.5-.29-.59l-11.6-18.17h-6.07v27.62h5.02v-20.26c.12.46.21.63.38.96.04.04.16.25.33.59.34.59.5.96.59,1.09l11.85,17.87s5.52,0,5.52,0ZM462.49,181.38c-1.84-.88-2.59-1.17-3.93-1.59-1.71-.5-3.35-.71-5.19-.71-3.23,0-4.94.46-6.95,1.84-.88.63-1.59,1.34-2.05,2.05-.67,1.04-1.09,2.47-1.09,3.85,0,3.01,1.51,4.85,6.4,7.66l4.28,2.43c1.8,1,2.43,1.8,2.43,2.97,0,1.67-1.59,2.76-4.02,2.76-1.09,0-2.6-.29-3.98-.79-1.09-.42-1.92-.84-3.93-1.93l-2.21,4.85c.79.38,1.42.67,1.8.84,2.88,1.34,3.81,1.67,5.77,1.92.79.12,1.63.17,2.47.17,6.11,0,9.71-2.88,9.71-7.82,0-1.93-.71-3.77-1.88-4.94-1.3-1.3-4.06-3.05-8.29-5.32-1.97-1.05-2.64-1.76-2.64-2.93,0-1.55,1.59-2.55,4.06-2.55,1.85,0,4.23.67,7.16,1.97l2.09-4.73h0ZM491.45,184.01v-4.47h-21.84v4.47h8.29v23.15h5.27v-23.15h8.29ZM505.08,179.53h-5.27v27.62h5.27s0-27.62,0-27.62ZM535.23,184.01v-4.47h-21.84v4.47h8.29v23.15h5.27v-23.15h8.29ZM566.48,196.36v-16.83h-5.27v17.12c0,3.98-2.13,6.15-6.15,6.15-4.4,0-6.53-2.05-6.53-6.15v-17.12h-5.22v16.83c0,5.06.92,7.37,3.76,9.33,2.09,1.42,4.35,2.01,7.83,2.01s5.78-.63,7.79-2.01c2.88-2.01,3.8-4.27,3.8-9.33M596.4,184.01v-4.47h-21.84v4.47h8.29v23.15h5.27v-23.15h8.29ZM638.17,184.01v-4.47h-17.11v27.62h5.27v-11.59h9.71v-4.43h-9.71v-7.12h11.85ZM664.6,176.73c0-1.3-1.05-2.3-2.3-2.3s-2.26,1-2.26,2.3,1,2.26,2.26,2.26,2.3-1,2.3-2.26M656.06,176.69c0-1.25-1.01-2.3-2.3-2.3s-2.26,1.05-2.26,2.3,1,2.26,2.26,2.26,2.3-1,2.3-2.26M669.83,196.36v-16.83h-5.28v17.12c0,3.98-2.13,6.16-6.15,6.16-4.4,0-6.53-2.05-6.53-6.16v-17.12h-5.23v16.83c0,5.07.92,7.37,3.76,9.34,2.09,1.42,4.35,2.01,7.83,2.01s5.77-.63,7.78-2.01c2.89-2.01,3.81-4.27,3.81-9.34M701.2,207.16l-6.86-11.84c2.3-.63,3.26-1.21,4.31-2.55,1-1.34,1.51-3.06,1.51-5.19,0-2.6-.75-4.61-2.26-5.99-1.63-1.54-3.47-2.05-7.49-2.05h-9.2v27.62h5.27v-11.05h2.64l6.32,11.05h5.77,0ZM694.72,187.69c0,2.76-1.47,3.94-4.82,3.94h-3.43v-7.63h3.43c3.43,0,4.82,1.05,4.82,3.69M755.12,207.16v-27.62h-6.31l-7.66,19.72c-.25.67-.34.83-.5,2.13-.13-1.05-.25-1.34-.55-2.13l-7.37-19.72h-6.31v27.62h4.77v-20.42c.42,2.34.46,2.8,1.05,4.4l5.78,16.02h4.73l6.32-16.32c.88-2.3.84-2.51,1.05-3.94v20.25h5.02,0ZM789.82,196.36v-16.83h-5.27v17.12c0,3.98-2.13,6.15-6.15,6.15-4.4,0-6.53-2.05-6.53-6.15v-17.12h-5.22v16.83c0,5.06.92,7.37,3.76,9.33,2.09,1.42,4.35,2.01,7.83,2.01s5.78-.63,7.79-2.01c2.88-2.01,3.8-4.27,3.8-9.33M817.76,207.16v-4.47h-11.3v-23.15h-5.27v27.62h16.57ZM842.18,184.01v-4.47h-21.84v4.47h8.29v23.15h5.27v-23.15h8.29ZM855.81,179.53h-5.27v27.62h5.27s0-27.62,0-27.62ZM896.31,207.16v-27.62h-6.31l-7.66,19.72c-.25.67-.33.83-.5,2.13-.12-1.05-.25-1.34-.55-2.13l-7.37-19.72h-6.31v27.62h4.77v-20.42c.42,2.34.46,2.8,1.05,4.4l5.78,16.02h4.73l6.32-16.32c.88-2.3.83-2.51,1.05-3.94v20.25h5.02ZM925.6,207.16v-4.47h-12.1v-7.37h9.46v-4.47h-9.46v-6.83h11.55v-4.47h-16.82v27.62h17.36ZM960.58,193.26c0-3.6-1.34-7.12-3.72-9.67-2.72-2.88-5.99-4.06-11.22-4.06h-10.25v27.62h10.21c4.98,0,8.62-1.34,11.18-4.06,2.42-2.59,3.8-6.15,3.8-9.84M954.89,193.3c0,5.9-3.52,9.21-9.8,9.21h-4.19v-18.34h4.19c3.02,0,5.15.55,6.62,1.63,1.97,1.46,3.18,4.36,3.18,7.49M975.43,179.53h-5.27v27.62h5.27v-27.62ZM1008.34,207.16l-10-27.62h-4.73l-10.01,27.62h5.52l2.26-6.82h9.25l2.17,6.82h5.52ZM999.21,195.86h-6.4l3.18-10.01,3.22,10.01h0ZM1033.21,207.16v-4.47h-11.3v-23.15h-5.27v27.62h16.57ZM1059,207.16v-4.47h-12.1v-7.37h9.46v-4.47h-9.46v-6.83h11.55v-4.47h-16.82v27.62h17.37,0Z"/></svg>