<svg width="6917" height="8692" viewBox="0 0 6917 8692" fill="none" xmlns="http://www.w3.org/2000/svg">
<path d="M3978.94 346H2124.33C1286.02 346 866.861 346 606.431 606.35C346 866.699 346 1285.73 346 2123.78V6568.22C346 7406.27 346 7825.3 606.431 8085.65C866.861 8346 1286.02 8346 2124.33 8346H4791.83C5630.14 8346 6049.3 8346 6309.73 8085.65C6570.16 7825.3 6570.16 7406.27 6570.16 6568.22V2936.41C6570.16 2754.75 6570.16 2663.91 6536.32 2582.24C6502.48 2500.56 6438.23 2436.33 6309.73 2307.87L4607.68 606.35C4479.18 477.892 4414.93 413.663 4333.23 379.831C4251.53 346 4160.67 346 3978.94 346Z" stroke="#E0E0E0" stroke-width="691.574"/>
<path d="M3915.23 346V2115.96C3915.23 2533.15 3915.23 2741.74 4044.84 2871.34C4174.44 3000.95 4383.03 3000.95 4800.21 3000.95H6570.17" stroke="#E0E0E0" stroke-width="691.574"/>
<path d="M2987.81 7261.75H3136.5C3375.22 7261.75 3568.73 7068.23 3568.73 6829.52V6740.82C3568.73 6541.96 3704.41 6368.76 3897.48 6321.15L3936.93 6311.42C3991.72 6297.91 3991.72 6220.02 3936.93 6206.51L3897.48 6196.78C3704.41 6149.17 3568.73 5975.97 3568.73 5777.12V5256.18H2987.81" stroke="#E0E0E0" stroke-width="432.234"/>
<path d="M2406.89 5256.18H2258.2C2019.49 5256.18 1825.97 5449.7 1825.97 5688.42V5777.12C1825.97 5975.97 1690.29 6149.17 1497.22 6196.78L1457.77 6206.51C1402.98 6220.02 1402.98 6297.91 1457.77 6311.42L1497.22 6321.15C1690.29 6368.76 1825.97 6541.96 1825.97 6740.82V7261.75H2406.89" stroke="#E0E0E0" stroke-width="432.234"/>
</svg>
