<svg width="7281" height="8680" viewBox="0 0 7281 8680" fill="none" xmlns="http://www.w3.org/2000/svg">
<path fill-rule="evenodd" clip-rule="evenodd" d="M6850.01 7650.01C6850.01 7953.77 6603.77 8200.01 6300.01 8200.01V7650.01V7100.01V6000.01H6850.01V7650.01ZM6850.01 1150C6850.01 514.873 6335.14 -0.000976562 5700.01 -0.000976562H1150C514.873 -0.000976562 -0.000976562 514.872 -0.000976562 1150V7050.01C-0.000976562 7685.14 514.871 8200.01 1150 8200.01H3700.01V7650.01H1150C818.629 7650.01 550 7381.38 550 7050.01V1150C550 818.629 818.63 550 1150 550H5700.01C6031.38 550 6300.01 818.63 6300.01 1150H6850.01Z" fill="#E0E0E0"/>
<path fill-rule="evenodd" clip-rule="evenodd" d="M6850.01 6550.01C6850.01 6246.25 6603.77 6000.01 6300.01 6000.01H1100C492.487 6000.01 -0.000976562 6492.5 -0.000976562 7100.01C-0.000976562 7707.53 492.486 8200.01 1100 8200.01H3700.01V7650.01H1100C796.243 7650.01 550 7403.77 550 7100.01C550 6796.25 796.244 6550.01 1100 6550.01H5750.01H6300.01V7100.01V7650.01V8200.01C6603.77 8200.01 6850.01 7953.77 6850.01 7650.01V6550.01Z" fill="#E0E0E0"/>
<line x1="1625" y1="550" x2="1625" y2="6550.01" stroke="#E0E0E0" stroke-width="550.001"/>
<path d="M5133.75 5117.5L5189.88 5290.25H5371.52L5224.57 5397.01L5280.7 5569.76L5133.75 5463L4986.81 5569.76L5042.93 5397.01L4895.99 5290.25H5077.62L5133.75 5117.5Z" stroke="#E0E0E0" stroke-width="250" stroke-linejoin="round"/>
<path d="M6917.5 3333.74L6973.63 3506.49H7155.26L7008.32 3613.25L7064.45 3785.99L6917.5 3679.23L6770.55 3785.99L6826.68 3613.25L6679.73 3506.49H6861.37L6917.5 3333.74Z" stroke="#E0E0E0" stroke-width="250" stroke-linejoin="round"/>
<path d="M3350.01 3333.75L3406.14 3506.5H3587.77L3440.83 3613.26L3496.95 3786.01L3350.01 3679.24L3203.06 3786.01L3259.19 3613.26L3112.24 3506.5H3293.88L3350.01 3333.75Z" stroke="#E0E0E0" stroke-width="250" stroke-linejoin="round"/>
<path d="M3585.59 4225.63L3641.72 4398.37H3823.36L3676.41 4505.14L3732.54 4677.88L3585.59 4571.12L3438.65 4677.88L3494.77 4505.14L3347.83 4398.37H3529.46L3585.59 4225.63Z" stroke="#E0E0E0" stroke-width="250" stroke-linejoin="round"/>
<path d="M4191.42 4831.42L4247.55 5004.17H4429.18L4282.24 5110.93L4338.37 5283.68L4191.42 5176.91L4044.47 5283.68L4100.6 5110.93L3953.65 5004.17H4135.29L4191.42 4831.42Z" stroke="#E0E0E0" stroke-width="250" stroke-linejoin="round"/>
<path d="M3585.59 2441.88L3641.72 2614.62H3823.36L3676.41 2721.38L3732.54 2894.13L3585.59 2787.37L3438.65 2894.13L3494.77 2721.38L3347.83 2614.62H3529.46L3585.59 2441.88Z" stroke="#E0E0E0" stroke-width="250" stroke-linejoin="round"/>
<path d="M6681.95 2441.87L6738.08 2614.62H6919.72L6772.77 2721.38L6828.9 2894.12L6681.95 2787.36L6535.01 2894.12L6591.13 2721.38L6444.19 2614.62H6625.82L6681.95 2441.87Z" stroke="#E0E0E0" stroke-width="250" stroke-linejoin="round"/>
<path d="M6681.95 4225.63L6738.08 4398.38H6919.72L6772.77 4505.14L6828.9 4677.89L6681.95 4571.13L6535.01 4677.89L6591.13 4505.14L6444.19 4398.38H6625.82L6681.95 4225.63Z" stroke="#E0E0E0" stroke-width="250" stroke-linejoin="round"/>
<path d="M4191.42 1819.24L4247.55 1991.98H4429.18L4282.24 2098.75L4338.37 2271.49L4191.42 2164.73L4044.47 2271.49L4100.6 2098.75L3953.65 1991.98H4135.29L4191.42 1819.24Z" stroke="#E0E0E0" stroke-width="250" stroke-linejoin="round"/>
<path d="M6059.29 1819.25L6115.42 1991.99H6297.05L6150.11 2098.75L6206.24 2271.5L6059.29 2164.74L5912.34 2271.5L5968.47 2098.75L5821.52 1991.99H6003.16L6059.29 1819.25Z" stroke="#E0E0E0" stroke-width="250" stroke-linejoin="round"/>
<path d="M6059.29 4831.43L6115.42 5004.17H6297.05L6150.11 5110.94L6206.24 5283.68L6059.29 5176.92L5912.34 5283.68L5968.47 5110.94L5821.52 5004.17H6003.16L6059.29 4831.43Z" stroke="#E0E0E0" stroke-width="250" stroke-linejoin="round"/>
<path d="M5133.75 1550L5189.88 1722.75H5371.52L5224.57 1829.51L5280.7 2002.25L5133.75 1895.49L4986.81 2002.25L5042.93 1829.51L4895.99 1722.75H5077.62L5133.75 1550Z" stroke="#E0E0E0" stroke-width="250" stroke-linejoin="round"/>
<g filter="url(#filter0_b_1_37)">
<path d="M4300.01 6550V8100L5000.01 7569.74L5650.02 8100V6550" stroke="#E0E0E0" stroke-width="550.001"/>
</g>
<defs>
<filter id="filter0_b_1_37" x="3825.01" y="6350" width="2300.01" height="2529.24" filterUnits="userSpaceOnUse" color-interpolation-filters="sRGB">
<feFlood flood-opacity="0" result="BackgroundImageFix"/>
<feGaussianBlur in="BackgroundImageFix" stdDeviation="100"/>
<feComposite in2="SourceAlpha" operator="in" result="effect1_backgroundBlur_1_37"/>
<feBlend mode="normal" in="SourceGraphic" in2="effect1_backgroundBlur_1_37" result="shape"/>
</filter>
</defs>
</svg>
