<svg width="9020" height="7118" viewBox="0 0 9020 7118" fill="none" xmlns="http://www.w3.org/2000/svg">
<path d="M983.5 2950.17L983.5 5572.35" stroke="#E0E0E0" stroke-width="655.544" stroke-linecap="round"/>
<path d="M5572.28 328L5572.28 983.544" stroke="#E0E0E0" stroke-width="655.544" stroke-linecap="round"/>
<path d="M983.5 328L983.5 1639.09" stroke="#E0E0E0" stroke-width="655.544" stroke-linecap="round"/>
<path d="M3277.89 4589.03L3277.89 5572.35" stroke="#E0E0E0" stroke-width="655.544" stroke-linecap="round"/>
<path d="M3277.89 328L3277.89 2950.18" stroke="#E0E0E0" stroke-width="655.544" stroke-linecap="round"/>
<circle cx="655.544" cy="655.544" r="655.544" transform="matrix(1 0 0 -1 328 2950.18)" stroke="#E0E0E0" stroke-width="655.544" stroke-linecap="round"/>
<circle cx="655.544" cy="655.544" r="655.544" transform="matrix(1 0 0 -1 4916.78 2622.4)" stroke="#E0E0E0" stroke-width="655.544" stroke-linecap="round"/>
<path d="M2428.21 3771.44C2514.51 3920.92 2638.64 4045.05 2788.12 4131.36C2937.61 4217.66 3107.17 4263.1 3279.78 4263.1C3452.39 4263.1 3621.96 4217.66 3771.44 4131.36C3920.92 4045.05 4045.05 3920.92 4131.36 3771.44" stroke="#E0E0E0" stroke-width="655.544" stroke-linecap="round"/>
<path fill-rule="evenodd" clip-rule="evenodd" d="M5244.51 2950.18C5244.51 2769.15 5391.26 2622.4 5572.28 2622.4C5753.3 2622.4 5900.05 2769.15 5900.05 2950.18L5900.05 3250.68C5638.4 3370.89 5412.94 3556.34 5244.51 3786.2L5244.51 2950.18Z" fill="#E0E0E0"/>
<path d="M5538.4 5643.93C5421.45 5433.69 5421.45 5177.93 5538.4 4967.69L5773.01 4545.94L6020.96 4131.88C6144.56 3925.47 6366.05 3797.59 6606.6 3793.76L7089.16 3786.06L7571.72 3793.76C7812.27 3797.59 8033.76 3925.47 8157.35 4131.88L8405.3 4545.94L8639.91 4967.69C8756.87 5177.93 8756.87 5433.69 8639.91 5643.93L8405.3 6065.69L8157.35 6479.75C8033.76 6686.15 7812.27 6814.03 7571.72 6817.86L7089.16 6825.56L6606.6 6817.86C6366.05 6814.03 6144.56 6686.15 6020.96 6479.74L5773.01 6065.69L5538.4 5643.93Z" stroke="#E0E0E0" stroke-width="583.846"/>
<path d="M6518.01 5673.89L6814.16 4912.35L7110.31 5673.89" stroke="#E0E0E0" stroke-width="380.769" stroke-linecap="round" stroke-linejoin="round"/>
<path d="M7561.62 4912.35V5673.89" stroke="#E0E0E0" stroke-width="380.769" stroke-linecap="round" stroke-linejoin="round"/>
</svg>
