<svg width="8422" height="8422" viewBox="0 0 8422 8422" fill="none" xmlns="http://www.w3.org/2000/svg">
<circle cx="4211.47" cy="4211.47" r="3789.47" stroke="#F1F0F4" stroke-width="842.105"/>
<path d="M6645.4 7085.75C6698.93 7056.36 6724.24 6992.73 6701.61 6936.02C6539.25 6529.15 6226.47 6170.82 5803.68 5909.67C5346.91 5627.55 4787.25 5474.63 4211.5 5474.63C3635.75 5474.63 3076.09 5627.55 2619.32 5909.67C2196.53 6170.82 1883.75 6529.15 1721.39 6936.02C1698.76 6992.73 1724.07 7056.36 1777.6 7085.74C3293.48 7917.99 5129.52 7917.99 6645.4 7085.75Z" fill="#F1F0F4"/>
<path d="M4240.8 1937.78C3012.77 1937.78 2330.52 2892.88 2087.92 3317.42C2038.14 3404.51 2013.26 3448.06 2016 3513.03C2018.74 3577.99 2048 3620.44 2106.51 3705.34C2395.28 4124.29 3179.27 5095.68 4240.8 5095.68C5302.32 5095.68 6086.31 4124.29 6375.08 3705.34C6433.59 3620.44 6462.85 3577.99 6465.59 3513.03C6468.33 3448.06 6443.45 3404.51 6393.67 3317.42C6151.07 2892.88 5468.82 1937.78 4240.8 1937.78Z" stroke="#F1F0F4" stroke-width="451.127"/>
<path d="M2819.63 1712.22L3030.45 2028.66" stroke="#F1F0F4" stroke-width="225.564" stroke-linecap="round"/>
<path d="M4173.06 1306.21L4173.06 1686.44" stroke="#F1F0F4" stroke-width="225.564" stroke-linecap="round"/>
<path d="M5590.56 1684.54L5406.57 2017.3" stroke="#F1F0F4" stroke-width="225.564" stroke-linecap="round"/>
<path d="M6560.15 2524.25L6270.82 2770.96" stroke="#F1F0F4" stroke-width="225.564" stroke-linecap="round"/>
<path d="M1874.62 2546.48L2175.15 2779.42" stroke="#F1F0F4" stroke-width="225.564" stroke-linecap="round"/>
<path fill-rule="evenodd" clip-rule="evenodd" d="M4243.1 4614.47C4824.45 4614.47 5295.73 4143.19 5295.73 3561.83C5295.73 2980.48 4824.45 2509.2 4243.1 2509.2C3661.74 2509.2 3190.46 2980.48 3190.46 3561.83C3190.46 4143.19 3661.74 4614.47 4243.1 4614.47ZM4952.6 3917.79C4978.76 3872.48 4963.23 3814.54 4917.92 3788.38C4872.61 3762.22 4814.67 3777.74 4788.51 3823.05C4734.62 3916.39 4657.12 3993.89 4563.78 4047.78C4470.45 4101.66 4364.58 4130.03 4256.8 4130.03C4149.03 4130.03 4043.16 4101.66 3949.82 4047.78C3856.49 3993.89 3778.99 3916.39 3725.1 3823.05C3698.94 3777.74 3641 3762.22 3595.69 3788.38C3550.37 3814.54 3534.85 3872.48 3561.01 3917.79C3631.53 4039.93 3732.95 4141.35 3855.09 4211.87C3977.22 4282.38 4115.77 4319.51 4256.8 4319.51C4397.84 4319.51 4536.38 4282.38 4658.52 4211.87C4780.66 4141.35 4882.08 4039.93 4952.6 3917.79Z" fill="#F1F0F4"/>
</svg>
