<?xml version="1.0" encoding="UTF-8"?>
<svg id="Ebene_2" data-name="Ebene 2" xmlns="http://www.w3.org/2000/svg" viewBox="0 0 6915.73 8691.57">
  <g id="Ebene_1-2" data-name="Ebene 1">
    <g>
      <path class="cls-1" d="M6910.51,2695.4c-7.19-94.52-24.65-172.6-54.95-245.72-30.3-73.14-73.18-140.69-134.95-212.6-44.91-52.28-98.62-105.98-166.63-173.97l-1702.05-1701.52c-68-67.98-121.72-121.68-174.01-166.57-71.92-61.73-139.47-104.59-212.61-134.88-73.13-30.28-151.21-47.73-245.72-54.92-68.73-5.22-144.69-5.22-240.86-5.22h-1854.61c-439.27,0-756.66,0-1021.72,35.63-154.86,20.81-285.23,53.59-398.56,100.2-64.75,26.63-125.83,58.64-181.54,95.15-57.6,37.75-111.62,81.69-160.55,130.61-48.94,48.92-92.9,102.93-130.66,160.52-36.53,55.71-68.56,116.78-95.2,181.52-46.63,113.32-79.43,243.67-100.25,398.5C0,1367.12,0,1684.42,0,2123.57v4444.44c0,439.15,0,756.44,35.64,1021.44,20.82,154.83,53.62,285.19,100.25,398.5,26.64,64.74,58.67,125.81,95.2,181.52,37.76,57.59,81.72,111.59,130.66,160.51,48.94,48.92,102.95,92.87,160.55,130.61,55.71,36.51,116.79,68.52,181.54,95.15,113.33,46.61,243.7,79.39,398.56,100.2,265.06,35.63,582.44,35.63,1021.72,35.63h2667.5c439.27,0,756.66,0,1021.72-35.63,154.86-20.81,285.23-53.59,398.56-100.2,64.75-26.63,125.83-58.64,181.54-95.15,57.6-37.75,111.62-81.69,160.56-130.61,48.94-48.92,92.9-102.93,130.66-160.52,36.53-55.71,68.56-116.78,95.2-181.52,46.63-113.32,79.43-243.67,100.25-398.5,35.64-265,35.64-582.29,35.64-1021.44v-3631.81c0-96.14,0-172.08-5.22-240.8ZM6065.05,2552.2c40.71,40.7,74.83,74.81,101.22,102.75h-1366.27c-167.46,0-299.72,0-396.19-8.41-75.44-6.58-105.17-16.64-114.13-20.46-3.82-8.96-13.88-38.69-20.46-114.13-8.41-96.47-8.41-228.74-8.41-396.2V750.05c27.84,26.31,61.77,60.22,102.19,100.63l1702.05,1701.52ZM6194.69,7497.27c-12.82,95.3-30.61,169.72-54.38,227.49-19.51,47.4-43.42,84.3-75.26,116.13-31.85,31.84-68.78,55.76-116.21,75.27-57.81,23.78-132.27,41.57-227.63,54.38-219.21,29.46-532.7,29.46-929.59,29.46h-2667.5c-396.9,0-710.39,0-929.59-29.46-95.36-12.82-169.81-30.6-227.62-54.38-47.43-19.51-84.36-43.42-116.21-75.27-31.84-31.83-55.76-68.73-75.27-116.13-23.77-57.77-41.56-132.18-54.38-227.49-29.47-219.12-29.47-532.5-29.47-929.26V2123.57c0-396.76,0-710.15,29.47-929.26,12.82-95.3,30.61-169.71,54.38-227.49,19.51-47.4,43.42-84.3,75.27-116.13,31.85-31.84,68.78-55.76,116.21-75.27,57.81-23.78,132.27-41.57,227.62-54.38,219.2-29.46,532.7-29.46,929.59-29.46h1445.11v1424.17c0,225.36,0,388.18,19.29,531.61,12.37,92.02,32.46,170.95,61.4,241.3,35.62,86.56,86.15,162.93,150.19,226.96,64.05,64.06,140.42,114.59,226.98,150.21,70.35,28.95,149.28,49.03,241.3,61.4,143.43,19.29,306.25,19.29,531.61,19.29h1424.16v3221.48c0,396.76,0,710.14-29.47,929.26Z"/>
      <path class="cls-1" d="M3988.47,5996.47l-39.46-9.73c-47.37-11.68-88.3-38.15-118.39-76.56-30.08-38.4-45.99-84.49-45.99-133.27v-737.06h-797.04v432.23h364.8v304.82c0,73.22,12.23,145.28,36.36,214.19,23.5,67.11,57.68,129.57,101.6,185.63,23.2,29.62,48.79,57.02,76.54,82.02-27.75,25-53.34,52.41-76.54,82.03-43.92,56.07-78.1,118.52-101.6,185.64-24.12,68.91-36.36,140.97-36.36,214.19v88.7c0,57.73-22.48,112-63.3,152.82-40.82,40.82-95.09,63.3-152.82,63.3h-148.69v432.23h148.69c87.43,0,172.36-17.17,252.44-51.04,77.23-32.67,146.55-79.38,206.02-138.86,59.47-59.47,106.19-128.79,138.86-206.02,33.87-80.07,51.04-165,51.04-252.43v-88.7c0-48.79,15.9-94.88,45.99-133.28,30.08-38.41,71.02-64.88,118.4-76.56l39.43-9.73c62.07-15.3,116.71-51.84,153.84-102.88,33.78-46.43,51.63-101.55,51.63-159.41s-17.86-112.98-51.63-159.41c-37.13-51.04-91.77-87.57-153.82-102.87Z"/>
      <path class="cls-1" d="M2005.55,5090.89c-77.23,32.67-146.54,79.39-206.02,138.86-59.47,59.47-106.19,128.79-138.86,206.02-33.87,80.07-51.04,165-51.04,252.44v88.7c0,48.78-15.9,94.87-45.99,133.27-30.08,38.4-71.02,64.88-118.4,76.56l-39.43,9.73c-62.07,15.3-116.7,51.84-153.84,102.88-33.78,46.43-51.63,101.55-51.63,159.41s17.85,112.98,51.63,159.41c37.13,51.04,91.77,87.57,153.82,102.87l39.46,9.73c47.36,11.68,88.3,38.15,118.39,76.56,30.09,38.41,45.99,84.49,45.99,133.28v737.05h797.04v-432.23h-364.8v-304.81c0-73.22-12.23-145.28-36.36-214.19-23.5-67.12-57.68-129.57-101.6-185.64-23.2-29.62-48.79-57.03-76.54-82.03,27.75-25,53.34-52.4,76.54-82.02,43.92-56.06,78.1-118.52,101.6-185.63,24.13-68.9,36.36-140.97,36.36-214.19v-88.7c0-57.73,22.48-112,63.3-152.82,40.82-40.82,95.09-63.3,152.81-63.3h148.69v-432.23h-148.69c-87.43,0-172.36,17.17-252.43,51.04Z"/>
    </g>
  </g>
</svg>