<?xml version="1.0" encoding="UTF-8"?>
<svg id="Ebene_2" data-name="Ebene 2" xmlns="http://www.w3.org/2000/svg" viewBox="0 0 7280.27 8679.24">
  <g id="Ebene_1-2" data-name="Ebene 1">
    <g>
      <path class="cls-1" d="M1900,6000.01V550h3800.01c331.37,0,600,268.63,600,600h550C6850.01,514.87,6335.14,0,5700.01,0H1150C514.87,0,0,514.87,0,1150v5900.01c0,8.43.11,16.83.29,25.22-.18,8.24-.29,16.5-.29,24.78,0,607.52,492.49,1100,1100,1100h2600.01v-550H1150c-322.81,0-586.07-254.93-599.46-574.45,12.79-292.41,253.89-525.55,549.46-525.55h2925.01v2103.3l968.71-733.81,931.31,759.73v-2129.23h374.99v1650c303.76,0,550-246.24,550-550v-1650H1900ZM1100,6000.01c-200.36,0-388.2,53.58-550,147.18V1150c0-331.37,268.63-600,600-600h200v5450.01h-250ZM5006.31,7219.98l-431.29,326.71v-996.68h800.01v970.75l-368.71-300.79Z"/>
      <path class="cls-1" d="M5490.4,5251.62c-16.73-51.5-64.73-86.37-118.88-86.37h-90.82l-28.07-86.38c-16.73-51.5-64.73-86.37-118.88-86.37s-102.15,34.87-118.88,86.37l-28.07,86.38h-90.81c-54.15,0-102.15,34.87-118.88,86.37-16.73,51.5,1.6,107.92,45.41,139.75l73.47,53.38-28.06,86.38c-16.73,51.5,1.6,107.92,45.41,139.75,43.81,31.83,103.13,31.83,146.94,0l73.47-53.38,73.48,53.38c21.91,15.92,47.69,23.87,73.47,23.87,25.78,0,51.57-7.96,73.47-23.87,43.81-31.83,62.14-88.25,45.41-139.75l-28.06-86.38,73.47-53.38c43.81-31.83,62.15-88.25,45.41-139.75Z"/>
      <path class="cls-1" d="M7274.14,3467.86c-16.73-51.5-64.73-86.37-118.88-86.37h-90.81l-28.07-86.38c-16.73-51.5-64.73-86.37-118.88-86.37s-102.15,34.87-118.88,86.37l-28.07,86.38h-90.82c-54.15,0-102.15,34.87-118.88,86.37-16.73,51.5,1.6,107.92,45.41,139.75l73.47,53.38-28.06,86.36c-16.73,51.5,1.6,107.92,45.41,139.75,21.91,15.92,47.69,23.88,73.48,23.87,25.78,0,51.57-7.96,73.47-23.87l73.48-53.38,73.48,53.38c21.91,15.91,47.69,23.87,73.47,23.87,25.78,0,51.57-7.96,73.48-23.87,43.81-31.83,62.14-88.25,45.41-139.75l-28.06-86.37,73.47-53.38c43.81-31.83,62.14-88.25,45.41-139.75Z"/>
      <path class="cls-1" d="M3129.59,3887.14c21.91,15.92,47.69,23.87,73.47,23.87,25.78,0,51.57-7.96,73.48-23.87l73.47-53.38,73.46,53.38c43.81,31.83,103.13,31.83,146.95,0,43.81-31.83,62.15-88.25,45.42-139.75l-28.06-86.38,73.47-53.38c43.81-31.83,62.14-88.25,45.41-139.75s-64.73-86.37-118.88-86.37h-90.81l-28.07-86.38c-16.73-51.5-64.73-86.37-118.88-86.37s-102.15,34.87-118.88,86.37l-28.07,86.38h-90.82c-54.15,0-102.15,34.87-118.88,86.37-16.73,51.5,1.6,107.93,45.41,139.75l73.47,53.38-28.06,86.38c-16.73,51.5,1.6,107.92,45.41,139.75Z"/>
      <path class="cls-1" d="M3365.18,4779.01c21.91,15.91,47.69,23.87,73.47,23.87s51.57-7.96,73.47-23.87l73.47-53.38,73.48,53.38c43.81,31.83,103.14,31.83,146.95,0,43.81-31.83,62.14-88.25,45.41-139.75l-28.06-86.37,73.48-53.39c43.81-31.83,62.14-88.25,45.41-139.75-16.74-51.5-64.73-86.37-118.88-86.37h-90.82l-28.06-86.37c-16.74-51.5-64.73-86.37-118.88-86.37s-102.15,34.87-118.88,86.37l-28.06,86.37h-90.81c-54.15,0-102.15,34.87-118.88,86.37-16.74,51.5,1.59,107.92,45.4,139.75l73.48,53.39-28.06,86.37c-16.73,51.5,1.6,107.92,45.41,139.75Z"/>
      <path class="cls-1" d="M4548.06,4965.54c-16.73-51.5-64.73-86.37-118.88-86.37h-90.81l-28.07-86.38c-16.73-51.5-64.73-86.37-118.88-86.37s-102.15,34.87-118.88,86.37l-28.07,86.38h-90.82c-54.15,0-102.15,34.87-118.88,86.37-16.73,51.5,1.6,107.92,45.41,139.75l73.47,53.38-28.06,86.38c-16.73,51.5,1.6,107.92,45.41,139.75,43.81,31.83,103.14,31.83,146.95,0l73.48-53.38,73.48,53.38c21.91,15.92,47.69,23.88,73.47,23.87,25.78,0,51.57-7.96,73.47-23.87,43.81-31.83,62.14-88.25,45.41-139.75l-28.07-86.38,73.47-53.38c43.81-31.83,62.14-88.25,45.41-139.75Z"/>
      <path class="cls-1" d="M3942.24,2576c-16.73-51.5-64.73-86.37-118.88-86.37h-90.82l-28.06-86.37c-16.74-51.5-64.73-86.37-118.88-86.37s-102.15,34.87-118.88,86.37l-28.06,86.37h-90.81c-54.15,0-102.15,34.87-118.88,86.37-16.73,51.5,1.6,107.92,45.41,139.75l73.47,53.38-28.06,86.38c-16.73,51.5,1.6,107.92,45.41,139.75,21.91,15.91,47.69,23.87,73.47,23.87,25.78,0,51.57-7.96,73.47-23.87l73.47-53.38,73.48,53.38c43.81,31.83,103.13,31.83,146.95,0,43.81-31.83,62.14-88.25,45.41-139.75l-28.06-86.38,73.47-53.38c43.81-31.83,62.15-88.25,45.41-139.75Z"/>
      <path class="cls-1" d="M6800.83,2403.24c-16.73-51.5-64.73-86.37-118.88-86.37s-102.15,34.87-118.88,86.37l-28.07,86.38h-90.81c-54.15,0-102.15,34.87-118.88,86.37s1.6,107.92,45.41,139.75l73.47,53.38-28.06,86.37c-16.73,51.5,1.6,107.92,45.41,139.75,21.91,15.92,47.69,23.87,73.47,23.87,25.78,0,51.57-7.96,73.47-23.87l73.47-53.38,73.48,53.38c43.81,31.83,103.14,31.83,146.95,0,43.81-31.83,62.14-88.25,45.41-139.76l-28.06-86.36,73.47-53.38c43.81-31.83,62.15-88.25,45.41-139.75-16.73-51.5-64.73-86.37-118.88-86.37h-90.82l-28.07-86.38Z"/>
      <path class="cls-1" d="M6919.72,4273.38h-90.82l-28.07-86.38c-16.73-51.5-64.73-86.37-118.88-86.37s-102.15,34.87-118.88,86.37l-28.07,86.38h-90.81c-54.15,0-102.15,34.87-118.88,86.37-16.73,51.5,1.6,107.92,45.41,139.75l73.47,53.38-28.06,86.38c-16.73,51.5,1.6,107.92,45.41,139.75,21.91,15.92,47.69,23.87,73.47,23.87s51.57-7.96,73.47-23.87l73.47-53.38,73.48,53.38c43.81,31.83,103.13,31.83,146.95,0,43.81-31.83,62.14-88.25,45.41-139.75l-28.07-86.37,73.47-53.38c43.81-31.83,62.15-88.25,45.41-139.75-16.73-51.5-64.73-86.37-118.88-86.37Z"/>
      <path class="cls-1" d="M4548.06,1953.35c-16.74-51.5-64.73-86.37-118.88-86.37h-90.81l-28.07-86.37c-16.73-51.5-64.73-86.37-118.88-86.37s-102.15,34.87-118.88,86.37l-28.06,86.37h-90.82c-54.15,0-102.15,34.87-118.88,86.37s1.6,107.92,45.41,139.75l73.48,53.39-28.06,86.37c-16.73,51.5,1.6,107.92,45.41,139.75,21.91,15.92,47.69,23.88,73.48,23.87,25.78,0,51.57-7.96,73.47-23.87l73.48-53.38,73.48,53.38c21.91,15.91,47.69,23.87,73.47,23.87,25.78,0,51.57-7.96,73.48-23.87,43.81-31.83,62.14-88.25,45.41-139.75l-28.07-86.37,73.47-53.39c43.81-31.83,62.14-88.25,45.4-139.75Z"/>
      <path class="cls-1" d="M6325.12,2232.87l-28.07-86.38,73.47-53.38c43.81-31.83,62.14-88.25,45.41-139.75-16.73-51.5-64.73-86.37-118.88-86.37h-90.81l-28.06-86.37c-16.74-51.5-64.73-86.37-118.88-86.37s-102.15,34.87-118.88,86.37l-28.06,86.37h-90.82c-54.15,0-102.15,34.87-118.88,86.37-16.73,51.5,1.6,107.93,45.41,139.75l73.47,53.38-28.07,86.37c-16.73,51.5,1.6,107.92,45.41,139.75,21.91,15.92,47.69,23.88,73.47,23.87,25.78,0,51.57-7.96,73.47-23.87l73.48-53.38,73.48,53.38c21.91,15.91,47.69,23.87,73.47,23.87,25.78,0,51.57-7.96,73.47-23.87,43.81-31.83,62.14-88.25,45.41-139.75Z"/>
      <path class="cls-1" d="M6415.93,4965.54c-16.74-51.5-64.73-86.37-118.88-86.37h-90.81l-28.06-86.37c-16.74-51.5-64.73-86.37-118.88-86.37s-102.15,34.87-118.88,86.37l-28.06,86.37h-90.82c-54.15,0-102.15,34.87-118.88,86.37s1.6,107.92,45.41,139.75l73.48,53.39-28.06,86.37c-16.74,51.5,1.6,107.92,45.41,139.75,43.81,31.83,103.13,31.83,146.95,0l73.48-53.38,73.48,53.38c21.91,15.92,47.69,23.87,73.47,23.87s51.57-7.96,73.48-23.88c43.81-31.83,62.14-88.25,45.41-139.75l-28.07-86.37,73.47-53.39c43.81-31.83,62.14-88.25,45.4-139.75Z"/>
      <path class="cls-1" d="M5490.4,1684.13c-16.73-51.5-64.73-86.37-118.88-86.37h-90.82l-28.07-86.38c-16.73-51.5-64.73-86.37-118.88-86.37s-102.15,34.87-118.88,86.37l-28.07,86.38h-90.81c-54.15,0-102.15,34.87-118.88,86.37-16.73,51.5,1.6,107.92,45.41,139.75l73.47,53.38-28.06,86.37c-16.73,51.5,1.6,107.92,45.41,139.75,21.91,15.91,47.69,23.87,73.47,23.87s51.57-7.96,73.47-23.87l73.47-53.38,73.48,53.38c43.81,31.83,103.14,31.83,146.95,0,43.81-31.83,62.14-88.25,45.41-139.75l-28.06-86.36,73.47-53.38c43.81-31.83,62.15-88.25,45.41-139.75Z"/>
    </g>
  </g>
</svg>