<svg width="8963" height="8508" viewBox="0 0 8963 8508" fill="none" xmlns="http://www.w3.org/2000/svg">
<rect x="2530.59" y="2595.47" width="3932.69" height="3284.94" rx="723.923" stroke="#E0E0E0" stroke-width="506.746"/>
<path d="M3548.47 4862.54L4034.27 3613.34L4520.07 4862.54" stroke="#E0E0E0" stroke-width="506.746" stroke-linecap="round" stroke-linejoin="round"/>
<path d="M5260.3 3613.34V4862.54" stroke="#E0E0E0" stroke-width="506.746" stroke-linecap="round" stroke-linejoin="round"/>
<path d="M4546.91 2400.34V254" stroke="#E0E0E0" stroke-width="506.746" stroke-linecap="round" stroke-linejoin="round"/>
<path d="M4546.91 6107.66L4546.91 8254" stroke="#E0E0E0" stroke-width="506.746" stroke-linecap="round" stroke-linejoin="round"/>
<path d="M6628.17 4156.42L8709.48 4156.42" stroke="#E0E0E0" stroke-width="506.746" stroke-linecap="round" stroke-linejoin="round"/>
<path d="M2335.51 4156.44L254.195 4156.44" stroke="#E0E0E0" stroke-width="506.746" stroke-linecap="round" stroke-linejoin="round"/>
<path d="M5652.59 2400.34V969.446H6303" stroke="#E0E0E0" stroke-width="506.746" stroke-linecap="round" stroke-linejoin="round"/>
<path d="M3441.23 6107.67L3441.23 7538.56L2790.82 7538.56" stroke="#E0E0E0" stroke-width="506.746" stroke-linecap="round" stroke-linejoin="round"/>
<path d="M6628.18 5197.1L7994.04 5197.1L7994.04 5847.5" stroke="#E0E0E0" stroke-width="506.746" stroke-linecap="round" stroke-linejoin="round"/>
<path d="M2335.51 3115.79L969.647 3115.79L969.648 2465.38" stroke="#E0E0E0" stroke-width="506.746" stroke-linecap="round" stroke-linejoin="round"/>
<path d="M3433.88 2400.33V969.438H2718.43" stroke="#E0E0E0" stroke-width="506.746" stroke-linecap="round" stroke-linejoin="round"/>
<path d="M5659.94 6107.67L5659.94 7538.56L6375.39 7538.56" stroke="#E0E0E0" stroke-width="506.746" stroke-linecap="round" stroke-linejoin="round"/>
<path d="M6628.18 3180.83L7994.04 3180.83L7994.04 2465.38" stroke="#E0E0E0" stroke-width="506.746" stroke-linecap="round" stroke-linejoin="round"/>
<path d="M2335.51 5132.05L969.647 5132.04L969.647 5847.49" stroke="#E0E0E0" stroke-width="506.746" stroke-linecap="round" stroke-linejoin="round"/>
</svg>
