<?xml version="1.0" encoding="UTF-8"?>
<svg id="Ebene_2" data-name="Ebene 2" xmlns="http://www.w3.org/2000/svg" viewBox="0 0 9019.32 7117.29">
  <g id="Ebene_1-2" data-name="Ebene 1">
    <path class="cls-1" d="M3277.66,3277.72c-86.93,0-170.3-34.53-231.77-96s-96-144.84-96-231.77V327.77c0-86.93,34.53-170.3,96-231.77S3190.73,0,3277.66,0s170.3,34.53,231.77,96,96,144.84,96,231.77v2622.18c0,86.93-34.53,170.3-96,231.77s-144.84,96-231.77,96Z"/>
    <path class="cls-1" d="M1889.22,1911.56c-49.54-117.13-120.4-222.26-210.6-312.46-90.2-90.2-195.33-161.06-312.46-210.6-18.21-7.7-36.59-14.82-55.12-21.39V327.77c0-86.93-34.53-170.3-96-231.77S1070.2,0,983.27,0s-170.3,34.53-231.77,96-96,144.84-96,231.77v1039.37c-18.5,6.55-36.85,13.66-55.04,21.35-117.13,49.54-222.26,120.4-312.46,210.6-90.2,90.2-161.06,195.33-210.6,312.46C26.04,2033,0,2161.81,0,2294.41s26.04,261.41,77.41,382.85c49.54,117.13,120.4,222.26,210.6,312.46,90.2,90.2,195.33,161.06,312.46,210.6,18.18,7.69,36.53,14.8,55.04,21.35v2350.45c0,86.93,34.53,170.3,96,231.77,61.47,61.47,144.84,96,231.77,96s170.3-34.53,231.77-96c61.47-61.47,96-144.84,96-231.77v-2350.42c18.53-6.56,36.91-13.68,55.12-21.39,117.13-49.54,222.26-120.4,312.46-210.6,90.2-90.2,161.06-195.33,210.6-312.46,51.36-121.44,77.41-250.25,77.41-382.85s-26.04-261.41-77.41-382.85ZM1215.09,2526.18c-61.82,61.82-143.98,95.9-231.39,96-.14,0-.28,0-.42,0-.13,0-.25,0-.38,0-87.39-.11-169.54-34.19-231.35-96-61.91-61.91-96-144.22-96-231.77s34.09-169.86,96-231.77c61.91-61.91,144.22-96,231.77-96s169.86,34.09,231.77,96c61.91,61.91,96,144.22,96,231.77s-34.09,169.86-96,231.77Z"/>
    <path class="cls-1" d="M4447.74,3686.39c-22.5-83.97-77.43-155.56-152.71-199.03-75.28-43.47-164.75-55.25-248.72-32.75-83.97,22.5-155.56,77.43-199.03,152.71-57.46,99.52-140.44,182.5-239.95,239.96-99.52,57.46-212.86,87.83-327.78,87.83s-228.25-30.37-327.76-87.82c-99.52-57.46-182.49-140.44-239.95-239.95-43.46-75.29-115.05-130.22-199.02-152.72-83.97-22.5-173.44-10.72-248.72,32.74-75.28,43.46-130.22,115.05-152.72,199.02-22.5,83.97-10.72,173.44,32.74,248.72,114.9,199.03,280.84,364.97,479.9,479.9,103.15,59.55,213.72,104.54,328.3,134.08-1.6,13.11-2.42,26.38-2.42,39.73v983.32c0,86.93,34.53,170.3,96,231.77,61.47,61.47,144.84,96,231.77,96s170.3-34.53,231.77-96c61.47-61.47,96-144.84,96-231.77v-983.32c0-13.03-.79-25.98-2.32-38.79,115.9-29.52,227.74-74.84,331.99-135.03,199.02-114.92,364.96-280.85,479.88-479.88,43.47-75.28,55.25-164.75,32.75-248.72Z"/>
    <path class="cls-2" d="M6478,1583.78c-49.54-117.13-120.4-222.26-210.6-312.46-90.2-90.2-195.33-161.06-312.46-210.6-19.71-8.33-39.61-15.99-59.69-22.99,3.01-17.87,4.57-36.06,4.57-54.41V327.77c0-86.93-34.53-170.3-96-231.77-61.47-61.47-144.84-96-231.77-96s-170.3,34.53-231.77,96c-61.47,61.47-96,144.84-96,231.77v655.54c0,18.37,1.56,36.57,4.57,54.44-20.05,6.99-39.93,14.64-59.6,22.96-117.13,49.54-222.26,120.4-312.46,210.6-90.2,90.2-161.06,195.33-210.6,312.46-51.37,121.44-77.41,250.25-77.41,382.85s26.04,261.41,77.41,382.85c49.54,117.13,120.4,222.26,210.6,312.46,90.2,90.2,195.33,161.06,312.46,210.6,19.67,8.32,39.53,15.96,59.57,22.95-2.96,17.72-4.53,35.91-4.53,54.47v836.02c168.43-229.86,393.89-415.31,655.54-535.52v-300.5c0-18.55-1.57-36.73-4.53-54.44,20.07-7,39.96-14.65,59.65-22.98,117.13-49.54,222.26-120.4,312.46-210.6,90.2-90.2,161.06-195.33,210.6-312.46,51.37-121.44,77.41-250.25,77.41-382.85s-26.04-261.41-77.41-382.85ZM5803.87,2198.4c-61.91,61.91-144.22,96-231.77,96s-169.86-34.09-231.77-96-96-144.22-96-231.77,34.09-169.86,96-231.77,144.22-96,231.77-96,169.86,34.09,231.77,96c61.91,61.91,96,144.22,96,231.77s-34.09,169.86-96,231.77Z"/>
    <path class="cls-1" d="M7088.93,7117.29l-487.22-7.78c-167.56-2.67-332.84-48.37-477.98-132.17-145.13-83.79-267.36-204.08-353.46-347.87l-250.34-418.04-2.26-4.07-234.61-421.76c-81.47-146.45-124.53-312.44-124.53-480.03s43.06-333.58,124.53-480.03l236.87-425.82,250.34-418.06c86.1-143.78,208.32-264.07,353.45-347.86,145.14-83.8,310.42-129.5,477.99-132.17l487.21-7.77,487.22,7.77c167.56,2.67,332.84,48.37,477.98,132.17,145.14,83.8,267.36,204.09,353.45,347.88l250.33,418.04,236.88,425.82c81.47,146.45,124.53,312.44,124.53,480.03s-43.06,333.59-124.54,480.04l-236.87,425.82-250.34,418.06c-86.09,143.77-208.31,264.06-353.45,347.85-145.14,83.79-310.42,129.5-477.99,132.16l-487.21,7.78ZM6025.62,5919.48l245.56,410.05c35.2,58.78,85.15,107.94,144.48,142.19,59.32,34.25,126.88,52.93,195.36,54.02l477.91,7.63,477.9-7.63c68.5-1.09,136.05-19.77,195.37-54.02,59.32-34.25,109.27-83.41,144.46-142.17l245.56-410.07,232.34-417.69c33.31-59.87,50.91-127.71,50.91-196.21s-17.6-136.34-50.9-196.2l-232.35-417.7-245.55-410.05c-35.19-58.78-85.15-107.94-144.47-142.19-59.32-34.25-126.87-52.93-195.36-54.02l-477.91-7.62-477.9,7.62c-68.5,1.09-136.05,19.77-195.37,54.02-59.32,34.25-109.28,83.42-144.47,142.19l-245.55,410.06-232.35,417.69c-33.3,59.86-50.9,127.71-50.9,196.21s17.6,136.35,50.9,196.21h0s232.34,417.69,232.34,417.69Z"/>
    <path class="cls-1" d="M7110.08,5864.05c-26.16,0-52.27-5.39-76.68-16.12-46.22-20.34-82.46-58.2-100.76-105.26l-118.71-305.26-118.71,305.26c-18.3,47.06-54.55,84.92-100.76,105.26-46.22,20.33-98.62,21.48-145.68,3.18-47.06-18.3-84.92-54.55-105.26-100.76-20.33-46.22-21.48-98.62-3.18-145.68l296.15-761.54c28.46-73.18,98.92-121.38,177.44-121.38s148.98,48.2,177.44,121.38l296.15,761.54c18.3,47.06,17.16,99.46-3.18,145.68-20.34,46.22-58.2,82.46-105.26,100.76-22.21,8.64-45.62,12.94-69,12.95Z"/>
    <path class="cls-1" d="M7561.39,5864.05c-50.49,0-98.92-20.06-134.62-55.76s-55.76-84.13-55.76-134.62v-761.54c0-50.49,20.06-98.92,55.76-134.62s84.13-55.76,134.62-55.76,98.92,20.06,134.62,55.76,55.76,84.13,55.76,134.62v761.54c0,50.49-20.06,98.92-55.76,134.62s-84.13,55.76-134.62,55.76Z"/>
  </g>
</svg>