<?xml version="1.0" encoding="UTF-8"?>
<svg id="Ebene_2" data-name="Ebene 2" xmlns="http://www.w3.org/2000/svg" viewBox="0 0 8962.03 8506.75">
  <g id="Ebene_1-2" data-name="Ebene 1">
    <g>
      <path class="cls-1" d="M4269.59,3520.88c-37.87-97.39-131.65-161.54-236.15-161.54s-198.27,64.15-236.15,161.54l-485.8,1249.2c-24.36,62.63-22.83,132.37,4.23,193.88s77.45,109.75,140.08,134.1c62.63,24.36,132.37,22.84,193.88-4.23,61.51-27.06,109.75-77.45,134.1-140.08l249.66-641.97,249.66,641.97c24.36,62.63,72.59,113.02,134.1,140.08,32.47,14.29,67.24,21.46,102.04,21.46,31.12,0,62.27-5.73,91.83-17.23,62.63-24.36,113.02-72.59,140.08-134.1s28.58-131.25,4.23-193.88l-485.8-1249.2Z"/>
      <path class="cls-1" d="M5259.48,3359.34c-67.2,0-131.64,26.69-179.16,74.21-47.52,47.52-74.21,111.96-74.21,179.16v1249.2c0,67.2,26.69,131.64,74.21,179.16s111.96,74.21,179.16,74.21,131.64-26.69,179.16-74.21,74.21-111.96,74.21-179.16v-1249.2c0-67.2-26.69-131.65-74.21-179.16-47.52-47.52-111.96-74.21-179.16-74.21Z"/>
      <path class="cls-1" d="M8887.82,3976.63c-47.52-47.52-111.96-74.21-179.16-74.21h-1992.83v-468.84h1277.39c67.2,0,131.65-26.69,179.16-74.21s74.21-111.96,74.21-179.16v-715.45c0-67.2-26.69-131.65-74.21-179.16s-111.96-74.21-179.16-74.21-131.65,26.69-179.16,74.21-74.21,111.96-74.21,179.16v462.08h-1105.85c-48.96-111.81-117.69-212.4-204.41-299.12-89.67-89.67-194.16-160.1-310.57-209.34-69.1-29.23-140.62-50.18-213.88-62.77v-1133.41h397.04c67.2,0,131.64-26.69,179.16-74.21,47.52-47.52,74.21-111.96,74.21-179.16s-26.69-131.65-74.21-179.16c-47.52-47.52-111.96-74.21-179.16-74.21h-650.41c-67.2,0-131.64,26.69-179.16,74.21-47.52,47.52-74.21,111.96-74.21,179.16v1372.65h-598.93V253.37c0-67.2-26.69-131.65-74.21-179.16-47.52-47.52-111.96-74.21-179.16-74.21s-131.65,26.69-179.16,74.21-74.21,111.96-74.21,179.16v2088.1h-606.28V968.81c0-67.2-26.69-131.65-74.21-179.16s-111.96-74.21-179.16-74.21h-715.45c-67.2,0-131.65,26.69-179.16,74.21s-74.21,111.96-74.21,179.16,26.69,131.65,74.21,179.16,111.96,74.21,179.16,74.21h462.08v1122.03c-105.74,7.89-208.54,32.73-306.48,74.16-116.41,49.24-220.9,119.67-310.57,209.34-71.02,71.02-129.95,151.34-175.87,239.51-17-3.57-34.45-5.43-52.08-5.43h-1112.49v-397.04c0-67.2-26.69-131.65-74.21-179.16-47.52-47.52-111.96-74.21-179.16-74.21,0,0,0,0,0,0-67.19,0-131.65,26.7-179.16,74.21s-74.21,111.96-74.21,179.16v650.41c0,67.2,26.69,131.65,74.21,179.16s111.96,74.21,179.16,74.21h1307.57v533.9H253.37c-67.2,0-131.65,26.69-179.16,74.21-47.52,47.52-74.21,111.96-74.21,179.16s26.69,131.65,74.21,179.16c47.52,47.52,111.96,74.21,179.16,74.21h2023.02v468.86H968.83s0,0,0,0c-67.19,0-131.65,26.7-179.16,74.21-47.52,47.52-74.21,111.96-74.21,179.16v715.45c0,67.2,26.69,131.64,74.21,179.16,47.52,47.52,111.96,74.21,179.16,74.21s131.65-26.69,179.16-74.21c47.52-47.52,74.21-111.96,74.21-179.16v-462.08h1081.15c12.41,51.59,29.07,102.19,49.95,151.56,49.24,116.41,119.67,220.9,209.34,310.57,89.67,89.67,194.16,160.1,310.57,209.34,100.21,42.38,205.5,67.4,313.83,74.66v1153.65h-397.04c-67.2,0-131.65,26.69-179.16,74.21-47.52,47.52-74.21,111.96-74.21,179.16s26.69,131.65,74.21,179.16,111.96,74.21,179.16,74.21h650.41c67.2,0,131.65-26.69,179.16-74.21s74.21-111.96,74.21-179.16v-1404.78h598.93v2120.22c0,67.2,26.69,131.65,74.21,179.16s111.96,74.21,179.16,74.21,131.65-26.69,179.16-74.21c47.52-47.52,74.21-111.96,74.21-179.16v-2120.22h606.28v1404.78c0,67.2,26.69,131.65,74.21,179.16s111.96,74.21,179.16,74.21h715.45c67.2,0,131.65-26.69,179.16-74.21s74.21-111.96,74.21-179.16-26.69-131.65-74.21-179.16c-47.52-47.52-111.96-74.21-179.16-74.21h-462.08v-1166.83c70.7-12.71,139.74-33.23,206.53-61.48,116.41-49.24,220.9-119.67,310.57-209.34,89.67-89.67,160.1-194.16,209.34-310.57,12.03-28.44,22.64-57.29,31.86-86.5h1069.05v397.03c0,67.2,26.69,131.65,74.21,179.16s111.96,74.21,179.16,74.21,131.65-26.69,179.16-74.21,74.21-111.96,74.21-179.16v-650.4c0-67.2-26.69-131.65-74.21-179.16s-111.96-74.21-179.16-74.21h-1277.39v-533.93h1992.83c67.2,0,131.65-26.69,179.16-74.21,47.52-47.52,74.21-111.96,74.21-179.16s-26.69-131.65-74.21-179.16ZM6209.09,5155.86c0,125.69-48.95,243.85-137.82,332.73-88.88,88.88-207.04,137.82-332.73,137.82h-2484.84c-125.69,0-243.85-48.95-332.73-137.82-88.88-88.88-137.82-207.04-137.82-332.73v-1837.09c0-125.69,48.95-243.85,137.82-332.73s207.04-137.82,332.73-137.82h2484.84c125.69,0,243.85,48.95,332.73,137.82,88.88,88.88,137.82,207.04,137.82,332.73v1837.09Z"/>
    </g>
  </g>
</svg>