<svg width="8943" height="7489" viewBox="0 0 8943 7489" fill="none" xmlns="http://www.w3.org/2000/svg">
<path d="M4497.38 1350.74C2269.62 1350.74 1031.94 3083.39 591.834 3853.55C501.544 4011.55 456.399 4090.56 461.37 4208.41C466.342 4326.26 519.419 4403.27 625.574 4557.28C1149.42 5317.31 2571.66 7079.5 4497.38 7079.5C6423.1 7079.5 7845.34 5317.31 8369.19 4557.28C8475.34 4403.27 8528.42 4326.26 8533.39 4208.41C8538.36 4090.56 8493.22 4011.55 8402.93 3853.55C7962.82 3083.39 6725.14 1350.74 4497.38 1350.74Z" stroke="#E0E0E0" stroke-width="818.392"/>
<path d="M1919.33 941.566L2301.79 1515.62" stroke="#E0E0E0" stroke-width="409.196" stroke-linecap="round"/>
<path d="M4374.62 205L4374.62 894.79" stroke="#E0E0E0" stroke-width="409.196" stroke-linecap="round"/>
<path d="M6946.02 891.351L6612.23 1495" stroke="#E0E0E0" stroke-width="409.196" stroke-linecap="round"/>
<path d="M8705 2414.65L8180.13 2862.21" stroke="#E0E0E0" stroke-width="409.196" stroke-linecap="round"/>
<path d="M204.999 2454.99L750.195 2877.56" stroke="#E0E0E0" stroke-width="409.196" stroke-linecap="round"/>
<path fill-rule="evenodd" clip-rule="evenodd" d="M6138.31 4296.96C6138.31 5200.94 5405.5 5933.75 4501.53 5933.75C3597.56 5933.75 2864.75 5200.94 2864.75 4296.96C2864.75 3392.99 3597.56 2660.17 4501.53 2660.17C5405.5 2660.17 6138.31 3392.99 6138.31 4296.96ZM4049.6 3417.88C4144.31 3417.88 4229.3 3476.02 4263.63 3564.28L4734.62 4775.43C4780.59 4893.63 4722.03 5026.71 4603.83 5072.68C4485.63 5118.65 4352.55 5060.09 4306.58 4941.89L4049.6 4281.09L3792.63 4941.89C3746.66 5060.09 3613.58 5118.65 3495.38 5072.68C3377.17 5026.71 3318.62 4893.63 3364.58 4775.43L3835.58 3564.28C3869.91 3476.02 3954.9 3417.88 4049.6 3417.88ZM5467.71 3647.52C5467.71 3520.69 5364.9 3417.88 5238.07 3417.88C5111.25 3417.88 5008.43 3520.69 5008.43 3647.52V4858.66C5008.43 4985.48 5111.25 5088.3 5238.07 5088.3C5364.9 5088.3 5467.71 4985.48 5467.71 4858.66V3647.52Z" fill="#E0E0E0"/>
</svg>
