<svg width="7279" height="8478" viewBox="0 0 7279 8478" fill="none" xmlns="http://www.w3.org/2000/svg">
<path d="M3762.82 7064.39L3159.64 7651.7L3762.82 8239" stroke="#E0E0E0" stroke-width="476.19" stroke-linecap="round" stroke-linejoin="round"/>
<path d="M3540.6 1413.61L4143.77 826.304L3540.6 239" stroke="#E0E0E0" stroke-width="476.19" stroke-linecap="round" stroke-linejoin="round"/>
<path d="M6584.74 2554.55C6883.21 3071.52 7040.34 3657.94 7040.34 4254.89C7040.34 4851.83 6883.21 5438.25 6584.74 5955.22C6286.27 6472.19 5856.97 6901.48 5340.01 7199.96C4823.04 7498.43 4236.61 7655.56 3639.67 7655.56" stroke="#E0E0E0" stroke-width="476.19" stroke-linecap="round"/>
<path d="M694.612 5955.21C396.14 5438.25 239.008 4851.82 239.008 4254.88C239.008 3657.93 396.14 3071.51 694.612 2554.54C993.083 2037.57 1422.38 1608.28 1939.34 1309.81C2456.31 1011.33 3042.74 854.203 3639.68 854.203" stroke="#E0E0E0" stroke-width="476.19" stroke-linecap="round"/>
<path d="M4307.03 2756.99L4280.01 2993.55L4307.03 2756.99ZM4208.89 2716.34L4357.05 2529.96L4208.89 2716.34ZM5107.54 2568.3L5275.9 2399.94L5107.54 2568.3ZM4925.52 2425.84L4868.9 2657.1L4925.52 2425.84ZM4852.65 2422.2L4819.32 2186.45L4852.65 2422.2ZM5452.32 3021.8L5216.56 2988.55L5452.32 3021.8ZM5306.15 2766.92L5137.8 2935.27L5306.15 2766.92ZM5448.69 2949.06L5217.41 3005.6L5448.69 2949.06ZM5157.95 3665.75L4971.49 3813.82L5157.95 3665.75ZM5117.37 3567.79L4880.83 3594.94L5117.37 3567.79ZM5830 3868.94L6033.47 3745.29L5830 3868.94ZM5781.25 3815.06L5637.96 4005.22L5781.25 3815.06ZM5781.16 4662.99L5924.34 4853.23L5781.16 4662.99ZM5830.06 4608.97L6033.59 4732.51L5830.06 4608.97ZM5117.76 4910.2L4881.21 4883.1L5117.76 4910.2ZM5158.37 4812.17L5344.79 4960.28L5158.37 4812.17ZM5306.51 5710.94L5138.15 5542.58L5306.51 5710.94ZM5449.02 5528.84L5217.74 5472.27L5449.02 5528.84ZM5452.65 5456.06L5216.89 5489.33L5452.65 5456.06ZM4853.08 6055.69L4819.88 6291.46L4853.08 6055.69ZM5107.96 5909.49L5276.32 6077.85L5107.96 5909.49ZM4925.75 6052.07L4869.25 5820.77L4925.75 6052.07ZM4209.04 5761.2L4357.06 5947.69L4209.04 5761.2ZM4306.92 5720.66L4279.71 5484.13L4306.92 5720.66ZM4005.8 6433.19L3882.18 6229.7L4005.8 6433.19ZM4059.72 6384.39L3869.54 6241.14L4059.72 6384.39ZM3211.82 6384.4L3021.65 6527.66L3211.82 6384.4ZM3265.73 6433.18L3142.11 6636.67L3265.73 6433.18ZM2964.66 5720.64L2937.41 5957.17L2964.66 5720.64ZM3062.47 5761.15L3210.45 5574.63L3062.47 5761.15ZM2163.39 5909.54L1995.03 6077.9L2163.39 5909.54ZM2345.69 6052.17L2402.13 5820.86L2345.69 6052.17ZM2418.26 6055.79L2451.4 6291.57L2418.26 6055.79ZM1818.73 5456.19L1582.97 5422.96L1818.73 5456.19ZM1964.91 5711.07L2133.27 5542.71L1964.91 5711.07ZM1822.36 5528.9L1591.07 5585.42L1822.36 5528.9ZM2113.07 4812.1L2299.45 4663.94L2113.07 4812.1ZM2153.73 4910.25L1917.17 4937.26L2153.73 4910.25ZM1413.61 4379.48H1651.7H1413.61ZM1441.58 4608.92L1645.15 4485.43L1441.58 4608.92ZM1490.54 4663.02L1633.67 4472.75L1490.54 4663.02ZM1490.45 3815.03L1347.22 3624.84H1347.22L1490.45 3815.03ZM1413.61 4098.64H1175.51H1413.61ZM1441.64 3868.98L1238.14 3745.38L1441.64 3868.98ZM2154.11 3567.86L1917.57 3540.65L2154.11 3567.86ZM2113.57 3665.73L1927.07 3517.71L2113.57 3665.73ZM1965.27 2766.79L2133.63 2935.15L1965.27 2766.79ZM1822.69 2949.01L1591.39 2892.51L1822.69 2949.01ZM1819.07 3021.67L2054.84 2988.47L1819.07 3021.67ZM2418.7 2422.1L2385.43 2657.86L2418.7 2422.1ZM2163.81 2568.25L1995.45 2399.89L2163.81 2568.25ZM2345.92 2425.73L2402.48 2657.01L2345.92 2425.73ZM3062.62 2716.39L2914.49 2529.98L3062.62 2716.39ZM2964.55 2757.01L2937.48 2520.46L2964.55 2757.01ZM4005.72 2044.76L4129.23 1841.21L4005.72 2044.76ZM4059.78 2093.69L3869.53 2236.85L4059.78 2093.69ZM3265.81 2044.77L3142.29 1841.22L3265.81 2044.77ZM3211.76 2093.68L3021.52 1950.52L3211.76 2093.68ZM3495.32 2254.87H3776.23V1778.68H3495.32V2254.87ZM2133.63 2935.15L2332.17 2736.61L1995.45 2399.89L1796.91 2598.43L2133.63 2935.15ZM1651.7 4379.48L1651.7 4098.64H1175.51L1175.51 4379.48H1651.7ZM2331.74 5741.18L2133.27 5542.71L1796.55 5879.43L1995.03 6077.9L2331.74 5741.18ZM3776.11 6223.13H3495.44V6699.32H3776.11V6223.13ZM5138.15 5542.58L4939.6 5741.13L5276.32 6077.85L5474.87 5879.3L5138.15 5542.58ZM5619.96 4098.7V4379.43H6096.15V4098.7H5619.96ZM4939.18 2736.66L5137.8 2935.27L5474.51 2598.56L5275.9 2399.94L4939.18 2736.66ZM4506.59 2361.57C4412.24 2438.76 4357.04 2483.46 4315.92 2510.05C4273.05 2537.77 4289.72 2515.37 4334.05 2520.43L4280.01 2993.55C4405.3 3007.86 4507.34 2953.34 4574.5 2909.92C4643.41 2865.36 4722.9 2799.85 4808.13 2730.12L4506.59 2361.57ZM3873.55 2342.97C3884.51 2452.56 3894.4 2555.09 3911.62 2635.33C3928.39 2713.52 3962 2824.24 4060.72 2902.71L4357.05 2529.96C4391.98 2557.73 4387.92 2585.36 4377.21 2535.43C4366.94 2487.54 4359.51 2416.9 4347.38 2295.58L3873.55 2342.97ZM4334.05 2520.43C4342.46 2521.39 4350.43 2524.69 4357.05 2529.96L4060.72 2902.71C4123.87 2952.92 4199.85 2984.39 4280.01 2993.55L4334.05 2520.43ZM5275.9 2399.94C5235.96 2360.01 5194.26 2317.94 5155.21 2285.75C5113.05 2251 5056.95 2212.89 4982.14 2194.57L4868.9 2657.1C4846.48 2651.61 4838.16 2641.52 4852.31 2653.19C4859.54 2659.15 4869.67 2668.25 4884.79 2682.83C4899.9 2697.39 4917.12 2714.6 4939.18 2736.66L5275.9 2399.94ZM4808.13 2730.12C4832.27 2710.37 4851.12 2694.96 4867.61 2681.97C4884.1 2668.97 4895.08 2660.92 4902.87 2655.71C4918.11 2645.51 4908.83 2654.72 4885.98 2657.95L4819.32 2186.45C4743.06 2197.23 4683.44 2229.57 4638.03 2259.96C4595.98 2288.1 4550.29 2325.81 4506.59 2361.57L4808.13 2730.12ZM4982.14 2194.57C4928.88 2181.53 4873.61 2178.78 4819.32 2186.45L4885.98 2657.95C4880.28 2658.76 4874.48 2658.47 4868.9 2657.1L4982.14 2194.57ZM5512.89 3368C5548.68 3324.26 5586.41 3278.54 5614.57 3236.46C5644.97 3191.02 5677.32 3131.35 5688.08 3055.04L5216.56 2988.55C5219.78 2965.68 5229 2956.4 5218.8 2971.65C5213.58 2979.44 5205.53 2990.43 5192.52 3006.93C5179.53 3023.43 5164.11 3042.29 5144.34 3066.45L5512.89 3368ZM5137.8 2935.27C5159.87 2957.35 5177.09 2974.58 5191.66 2989.7C5206.24 3004.83 5215.36 3014.96 5221.32 3022.2C5232.99 3036.36 5222.89 3028.04 5217.41 3005.6L5679.98 2892.52C5661.68 2817.66 5623.55 2761.51 5588.78 2719.32C5556.57 2680.25 5514.47 2638.52 5474.51 2598.56L5137.8 2935.27ZM5688.08 3055.04C5695.73 3000.85 5692.97 2945.69 5679.98 2892.52L5217.41 3005.6C5216.04 3000.02 5215.76 2994.24 5216.56 2988.55L5688.08 3055.04ZM5579.04 3527.37C5457.61 3515.23 5386.89 3507.79 5338.95 3497.5C5288.96 3486.77 5316.63 3482.71 5344.4 3517.68L4971.49 3813.82C5049.98 3912.66 5160.78 3946.3 5239.03 3963.09C5319.33 3980.33 5421.96 3990.23 5531.66 4001.2L5579.04 3527.37ZM5144.34 3066.45C5074.56 3151.74 5009.01 3231.28 4964.43 3300.24C4920.97 3367.44 4866.44 3469.57 4880.83 3594.94L5353.91 3540.65C5359 3585 5336.58 3601.69 5364.31 3558.79C5390.92 3517.64 5435.64 3462.41 5512.89 3368L5144.34 3066.45ZM5344.4 3517.68C5349.65 3524.3 5352.95 3532.25 5353.91 3540.65L4880.83 3594.94C4890.01 3674.93 4921.41 3750.76 4971.49 3813.82L5344.4 3517.68ZM6096.15 4098.7C6096.15 4042.14 6096.41 3982.82 6091.54 3932.38C6086.29 3877.91 6073.53 3811.2 6033.47 3745.29L5626.53 3992.59C5614.53 3972.84 5615.79 3959.8 5617.55 3978.08C5618.45 3987.42 5619.17 4001.03 5619.56 4022.06C5619.95 4043.08 5619.96 4067.46 5619.96 4098.7H6096.15ZM5531.66 4001.2C5562.75 4004.31 5587.02 4006.74 5607.91 4009.22C5628.8 4011.7 5642.29 4013.77 5651.5 4015.6C5669.53 4019.18 5656.43 4019.14 5637.96 4005.22L5924.53 3624.91C5862.92 3578.49 5797.8 3559.15 5744.12 3548.5C5694.41 3538.65 5635.34 3533 5579.04 3527.37L5531.66 4001.2ZM6033.47 3745.29C6005.11 3698.62 5968.14 3657.77 5924.53 3624.91L5637.96 4005.22C5633.39 4001.77 5629.51 3997.49 5626.53 3992.59L6033.47 3745.29ZM5579.24 4950.61C5635.46 4944.98 5694.45 4939.34 5744.11 4929.5C5797.73 4918.87 5862.78 4899.56 5924.34 4853.23L5637.98 4472.76C5656.43 4458.87 5669.51 4458.83 5651.52 4462.4C5642.32 4464.22 5628.86 4466.29 5608 4468.77C5587.14 4471.24 5562.91 4473.67 5531.85 4476.78L5579.24 4950.61ZM5619.96 4379.43C5619.96 4410.64 5619.95 4434.99 5619.56 4455.99C5619.17 4476.99 5618.45 4490.59 5617.56 4499.93C5615.8 4518.18 5614.54 4505.17 5626.52 4485.43L6033.59 4732.51C6073.57 4666.64 6086.31 4599.99 6091.55 4545.58C6096.41 4495.19 6096.15 4435.93 6096.15 4379.43H5619.96ZM5924.34 4853.23C5968.1 4820.29 6005.18 4779.32 6033.59 4732.51L5626.52 4485.43C5629.5 4480.51 5633.39 4476.22 5637.98 4472.76L5924.34 4853.23ZM5513.25 5109.91C5436.02 5015.52 5391.3 4960.3 5364.7 4919.16C5336.97 4876.27 5359.39 4892.96 5354.31 4937.3L4881.21 4883.1C4866.86 5008.44 4921.38 5110.54 4964.83 5177.72C5009.4 5246.66 5074.93 5326.18 5144.69 5411.45L5513.25 5109.91ZM5531.85 4476.78C5422.23 4487.74 5319.66 4497.64 5239.39 4514.86C5161.16 4531.65 5050.42 4565.29 4971.94 4664.07L5344.79 4960.28C5317.03 4995.22 5289.38 4991.17 5339.32 4980.45C5387.22 4970.17 5457.88 4962.74 5579.24 4950.61L5531.85 4476.78ZM5354.31 4937.3C5353.35 4945.7 5350.05 4953.66 5344.79 4960.28L4971.94 4664.07C4921.82 4727.16 4890.38 4803.05 4881.21 4883.1L5354.31 4937.3ZM5474.87 5879.3C5514.82 5839.35 5556.91 5797.63 5589.11 5758.56C5623.87 5716.39 5661.99 5660.25 5680.3 5585.41L5217.74 5472.27C5223.23 5449.84 5233.33 5441.53 5221.66 5455.68C5215.7 5462.91 5206.59 5473.04 5192.01 5488.17C5177.44 5503.29 5160.22 5520.51 5138.15 5542.58L5474.87 5879.3ZM5144.69 5411.45C5164.46 5435.6 5179.87 5454.46 5192.87 5470.95C5205.87 5487.46 5213.92 5498.44 5219.14 5506.23C5229.34 5521.48 5220.12 5512.2 5216.89 5489.33L5688.41 5422.78C5677.64 5346.49 5645.3 5286.84 5614.9 5241.41C5586.75 5199.34 5549.02 5153.64 5513.25 5109.91L5144.69 5411.45ZM5680.3 5585.41C5693.31 5532.21 5696.07 5477.01 5688.41 5422.78L5216.89 5489.33C5216.09 5483.64 5216.38 5477.85 5217.74 5472.27L5680.3 5585.41ZM4506.82 6116.23C4550.58 6152.03 4596.3 6189.77 4638.4 6217.94C4683.86 6248.35 4743.54 6280.71 4819.88 6291.46L4886.29 5819.92C4909.17 5823.14 4918.45 5832.37 4903.2 5822.16C4895.4 5816.95 4884.42 5808.88 4867.9 5795.88C4851.4 5782.88 4832.53 5767.45 4808.36 5747.68L4506.82 6116.23ZM4939.6 5741.13C4917.52 5763.21 4900.29 5780.44 4885.16 5795.02C4870.02 5809.6 4859.89 5818.72 4852.65 5824.68C4838.49 5836.35 4846.81 5826.25 4869.25 5820.77L4982.25 6283.36C5057.14 6265.07 5113.31 6226.93 5155.52 6192.15C5194.6 6159.93 5236.35 6117.82 5276.32 6077.85L4939.6 5741.13ZM4819.88 6291.46C4874.03 6299.08 4929.13 6296.34 4982.25 6283.36L4869.25 5820.77C4874.83 5819.41 4880.61 5819.12 4886.29 5819.92L4819.88 6291.46ZM4347.39 6182.3C4359.53 6060.87 4366.97 5990.16 4377.26 5942.23C4387.98 5892.26 4392.04 5919.93 4357.06 5947.69L4061.02 5574.71C3962.14 5653.19 3928.48 5764 3911.67 5842.28C3894.43 5922.59 3884.53 6025.22 3873.56 6134.92L4347.39 6182.3ZM4808.36 5747.68C4723.05 5677.88 4643.48 5612.31 4574.51 5567.71C4507.28 5524.25 4405.12 5469.7 4279.71 5484.13L4334.12 5957.2C4289.76 5962.3 4273.06 5939.86 4315.97 5967.61C4357.13 5994.22 4412.38 6038.96 4506.82 6116.23L4808.36 5747.68ZM4357.06 5947.69C4350.45 5952.94 4342.5 5956.23 4334.12 5957.2L4279.71 5484.13C4199.79 5493.32 4124.03 5524.7 4061.02 5574.71L4357.06 5947.69ZM3776.11 6699.32C3832.65 6699.32 3891.95 6699.57 3942.38 6694.71C3996.83 6689.47 4063.52 6676.71 4129.42 6636.68L3882.18 6229.7C3901.93 6217.7 3914.96 6218.96 3896.69 6220.72C3887.35 6221.62 3873.74 6222.34 3852.72 6222.73C3831.71 6223.12 3807.34 6223.13 3776.11 6223.13V6699.32ZM3873.56 6134.92C3870.45 6166 3868.02 6190.25 3865.54 6211.12C3863.06 6232 3860.99 6245.47 3859.17 6254.68C3855.6 6272.69 3855.64 6259.6 3869.54 6241.14L4249.9 6527.64C4296.29 6466.05 4315.62 6400.96 4326.26 6347.3C4336.12 6297.61 4341.76 6238.57 4347.39 6182.3L3873.56 6134.92ZM4129.42 6636.68C4176.13 6608.3 4217.02 6571.3 4249.9 6527.64L3869.54 6241.14C3872.99 6236.56 3877.28 6232.68 3882.18 6229.7L4129.42 6636.68ZM2924.15 6182.31C2929.78 6238.57 2935.42 6297.61 2945.28 6347.31C2955.92 6400.97 2975.25 6466.07 3021.65 6527.66L3401.99 6241.14C3415.9 6259.59 3415.94 6272.68 3412.37 6254.68C3410.55 6245.48 3408.48 6232 3406 6211.13C3403.52 6190.26 3401.09 6166 3397.98 6134.92L2924.15 6182.31ZM3495.44 6223.13C3464.21 6223.13 3439.83 6223.12 3418.82 6222.73C3397.8 6222.34 3384.19 6221.62 3374.85 6220.72C3356.58 6218.96 3369.61 6217.7 3389.36 6229.7L3142.11 6636.67C3208.01 6676.71 3274.7 6689.47 3329.16 6694.71C3379.59 6699.57 3438.9 6699.32 3495.44 6699.32V6223.13ZM3021.65 6527.66C3054.53 6571.3 3095.4 6608.3 3142.11 6636.67L3389.36 6229.7C3394.26 6232.68 3398.54 6236.56 3401.99 6241.14L3021.65 6527.66ZM2764.63 6116.27C2859.11 6038.97 2914.38 5994.21 2955.56 5967.59C2998.49 5939.84 2981.79 5962.28 2937.41 5957.17L2991.91 5484.11C2866.47 5469.66 2764.27 5524.22 2697.03 5567.69C2628.03 5612.3 2548.44 5677.89 2463.09 5747.72L2764.63 6116.27ZM3397.98 6134.92C3387.01 6025.21 3377.1 5922.56 3359.86 5842.23C3343.05 5763.94 3309.36 5653.11 3210.45 5574.63L2914.48 5947.67C2879.49 5919.91 2883.55 5892.23 2894.28 5942.2C2904.57 5990.13 2912.01 6060.85 2924.15 6182.31L3397.98 6134.92ZM2937.41 5957.17C2929.03 5956.21 2921.09 5952.92 2914.48 5947.67L3210.45 5574.63C3147.47 5524.67 3071.77 5493.31 2991.91 5484.11L2937.41 5957.17ZM1995.03 6077.9C2035.02 6117.89 2076.79 6160.02 2115.89 6192.25C2158.12 6227.05 2214.32 6265.2 2289.25 6283.48L2402.13 5820.86C2424.58 5826.34 2432.91 5836.45 2418.74 5824.77C2411.5 5818.8 2401.36 5809.68 2386.22 5795.09C2371.08 5780.51 2353.84 5763.27 2331.74 5741.18L1995.03 6077.9ZM2463.09 5747.72C2438.91 5767.5 2420.03 5782.94 2403.52 5795.95C2386.99 5808.96 2376 5817.03 2368.19 5822.25C2352.93 5832.46 2362.22 5823.23 2385.11 5820.01L2451.4 6291.57C2527.78 6280.83 2587.5 6248.46 2632.98 6218.03C2675.1 6189.86 2720.85 6152.09 2764.63 6116.27L2463.09 5747.72ZM2289.25 6283.48C2342.3 6296.42 2397.33 6299.17 2451.4 6291.57L2385.11 5820.01C2390.79 5819.21 2396.56 5819.5 2402.13 5820.86L2289.25 6283.48ZM1758.22 5109.91C1722.41 5153.67 1684.67 5199.4 1656.5 5241.5C1626.09 5286.94 1593.73 5346.62 1582.97 5422.96L2054.5 5489.42C2051.27 5512.3 2042.05 5521.58 2052.26 5506.32C2057.48 5498.51 2065.55 5487.52 2078.56 5471C2091.56 5454.5 2106.99 5435.62 2126.77 5411.45L1758.22 5109.91ZM2133.27 5542.71C2111.2 5520.63 2093.97 5503.4 2079.4 5488.27C2064.81 5473.14 2055.7 5463.01 2049.74 5455.77C2038.07 5441.61 2048.17 5449.93 2053.65 5472.37L1591.07 5585.42C1609.37 5660.29 1647.5 5716.45 1682.28 5758.65C1714.49 5797.72 1756.59 5839.46 1796.55 5879.43L2133.27 5542.71ZM1582.97 5422.96C1575.33 5477.13 1578.08 5532.27 1591.07 5585.42L2053.65 5472.37C2055.01 5477.95 2055.3 5483.73 2054.5 5489.42L1582.97 5422.96ZM1692.37 4950.6C1813.66 4962.73 1884.29 4970.15 1932.17 4980.43C1982.09 4991.14 1954.46 4995.19 1926.7 4960.27L2299.45 4663.94C2220.98 4565.23 2110.27 4531.61 2032.08 4514.84C1951.85 4497.62 1849.32 4487.73 1739.75 4476.77L1692.37 4950.6ZM2126.77 5411.45C2196.53 5326.19 2262.05 5246.68 2306.63 5177.75C2350.06 5110.6 2404.6 5008.54 2390.29 4883.23L1917.17 4937.26C1912.11 4892.92 1934.52 4876.25 1906.77 4919.16C1880.16 4960.3 1835.44 5015.53 1758.22 5109.91L2126.77 5411.45ZM1926.7 4960.27C1921.43 4953.64 1918.13 4945.67 1917.17 4937.26L2390.29 4883.23C2381.13 4803.07 2349.66 4727.09 2299.45 4663.94L1926.7 4960.27ZM1175.51 4379.48C1175.51 4435.96 1175.26 4495.19 1180.11 4545.56C1185.34 4599.95 1198.07 4666.57 1238.01 4732.41L1645.15 4485.43C1657.12 4505.17 1655.86 4518.18 1654.11 4499.93C1653.21 4490.6 1652.49 4477 1652.1 4456.01C1651.71 4435.02 1651.7 4410.68 1651.7 4379.48H1175.51ZM1739.75 4476.77C1708.71 4473.67 1684.49 4471.24 1663.64 4468.76C1642.79 4466.29 1629.33 4464.22 1620.14 4462.4C1602.15 4458.83 1615.23 4458.88 1633.67 4472.75L1347.41 4853.29C1408.95 4899.59 1473.97 4918.88 1527.57 4929.51C1577.2 4939.34 1636.17 4944.98 1692.37 4950.6L1739.75 4476.77ZM1238.01 4732.41C1266.46 4779.3 1303.58 4820.33 1347.41 4853.29L1633.67 4472.75C1638.27 4476.21 1642.16 4480.52 1645.15 4485.43L1238.01 4732.41ZM1692.5 3527.38C1636.24 3533.01 1577.22 3538.65 1527.53 3548.5C1473.88 3559.14 1408.8 3578.47 1347.22 3624.84L1633.69 4005.22C1615.24 4019.12 1602.15 4019.17 1620.15 4015.6C1629.35 4013.77 1642.82 4011.7 1663.69 4009.23C1684.56 4006.75 1708.81 4004.32 1739.88 4001.21L1692.5 3527.38ZM1651.7 4098.64C1651.7 4067.41 1651.71 4043.04 1652.1 4022.04C1652.49 4001.02 1653.21 3987.41 1654.11 3978.07C1655.87 3959.81 1657.13 3972.83 1645.14 3992.58L1238.14 3745.38C1198.12 3811.27 1185.36 3877.95 1180.12 3932.39C1175.26 3982.81 1175.51 4042.11 1175.51 4098.64H1651.7ZM1347.22 3624.84C1303.54 3657.74 1266.52 3698.64 1238.14 3745.38L1645.14 3992.58C1642.16 3997.48 1638.27 4001.77 1633.69 4005.22L1347.22 3624.84ZM1758.53 3367.94C1835.81 3462.39 1880.55 3517.64 1907.16 3558.8C1934.91 3601.72 1912.47 3585.02 1917.57 3540.65L2390.64 3595.07C2405.07 3469.66 2350.52 3367.5 2307.06 3300.27C2262.46 3231.29 2196.89 3151.72 2127.08 3066.4L1758.53 3367.94ZM1739.88 4001.21C1849.57 3990.24 1952.19 3980.34 2032.5 3963.1C2110.78 3946.29 2221.59 3912.62 2300.06 3813.75L1927.07 3517.71C1954.84 3482.73 1982.51 3486.79 1932.55 3497.52C1884.62 3507.81 1813.92 3515.24 1692.5 3527.38L1739.88 4001.21ZM1917.57 3540.65C1918.54 3532.27 1921.83 3524.32 1927.07 3517.71L2300.06 3813.75C2350.07 3750.74 2381.45 3674.99 2390.64 3595.07L1917.57 3540.65ZM1796.91 2598.43C1756.94 2638.41 1714.82 2680.15 1682.61 2719.24C1647.82 2761.45 1609.69 2817.62 1591.39 2892.51L2053.99 3005.5C2048.5 3027.95 2038.4 3036.27 2050.07 3022.11C2056.04 3014.87 2065.16 3004.73 2079.74 2989.6C2094.32 2974.47 2111.55 2957.23 2133.63 2935.15L1796.91 2598.43ZM2127.08 3066.4C2107.31 3042.23 2091.88 3023.36 2078.88 3006.86C2065.87 2990.34 2057.81 2979.35 2052.59 2971.56C2042.39 2956.3 2051.61 2965.59 2054.84 2988.47L1583.3 3054.86C1594.05 3131.21 1626.4 3190.9 1656.82 3236.36C1684.98 3278.45 1722.73 3324.18 1758.53 3367.94L2127.08 3066.4ZM1591.39 2892.51C1578.42 2945.63 1575.67 3000.72 1583.3 3054.86L2054.84 2988.47C2055.64 2994.15 2055.35 2999.93 2053.99 3005.5L1591.39 2892.51ZM2764.87 2361.53C2721.13 2325.74 2675.42 2288.01 2633.35 2259.86C2587.92 2229.46 2528.26 2197.11 2451.96 2186.34L2385.43 2657.86C2362.56 2654.64 2353.28 2645.42 2368.53 2655.62C2376.32 2660.84 2387.31 2668.89 2403.81 2681.9C2420.31 2694.89 2439.17 2710.31 2463.32 2730.08L2764.87 2361.53ZM2332.17 2736.61C2354.24 2714.54 2371.47 2697.32 2386.59 2682.75C2401.72 2668.17 2411.84 2659.06 2419.08 2653.1C2433.23 2641.43 2424.92 2651.53 2402.48 2657.01L2289.36 2194.45C2214.51 2212.76 2158.38 2250.88 2116.19 2285.65C2077.13 2317.85 2035.41 2359.94 1995.45 2399.89L2332.17 2736.61ZM2451.96 2186.34C2397.74 2178.69 2342.55 2181.44 2289.36 2194.45L2402.48 2657.01C2396.9 2658.38 2391.11 2658.67 2385.43 2657.86L2451.96 2186.34ZM2924.16 2295.57C2912.03 2416.91 2904.6 2487.56 2894.32 2535.45C2883.61 2585.39 2879.55 2557.74 2914.49 2529.98L3210.74 2902.8C3309.5 2824.33 3343.13 2713.59 3359.91 2635.37C3377.14 2555.12 3387.03 2452.56 3397.99 2342.96L2924.16 2295.57ZM2463.32 2730.08C2548.59 2799.84 2628.11 2865.36 2697.04 2909.94C2764.22 2953.38 2866.3 3007.9 2991.63 2993.56L2937.48 2520.46C2981.82 2515.38 2998.5 2537.8 2955.61 2510.06C2914.47 2483.46 2859.25 2438.75 2764.87 2361.53L2463.32 2730.08ZM2914.49 2529.98C2921.11 2524.72 2929.08 2521.42 2937.48 2520.46L2991.63 2993.56C3071.71 2984.39 3147.63 2952.95 3210.74 2902.8L2914.49 2529.98ZM3776.23 2254.87C3807.43 2254.87 3831.78 2254.88 3852.77 2255.27C3873.77 2255.66 3887.37 2256.38 3896.7 2257.27C3914.96 2259.03 3901.94 2260.29 3882.2 2248.31L4129.23 1841.21C4063.38 1801.25 3996.74 1788.52 3942.34 1783.28C3891.96 1778.43 3832.72 1778.68 3776.23 1778.68V2254.87ZM4347.38 2295.58C4341.76 2239.37 4336.12 2180.39 4326.28 2130.74C4315.65 2077.13 4296.35 2012.09 4250.03 1950.53L3869.53 2236.85C3855.65 2218.39 3855.6 2205.32 3859.17 2223.31C3860.99 2232.51 3863.06 2245.97 3865.54 2266.83C3868.01 2287.68 3870.45 2311.92 3873.55 2342.97L4347.38 2295.58ZM3882.2 2248.31C3877.29 2245.33 3872.99 2241.44 3869.53 2236.85L4250.03 1950.53C4217.08 1906.74 4176.08 1869.64 4129.23 1841.21L3882.2 2248.31ZM3495.32 1778.68C3438.83 1778.68 3379.58 1778.43 3329.19 1783.28C3274.79 1788.52 3208.15 1801.25 3142.29 1841.22L3389.34 2248.31C3369.6 2260.29 3356.58 2259.03 3374.84 2257.28C3384.17 2256.38 3397.77 2255.66 3418.77 2255.27C3439.76 2254.88 3464.12 2254.87 3495.32 2254.87V1778.68ZM3397.99 2342.96C3401.09 2311.91 3403.53 2287.68 3406 2266.83C3408.48 2245.97 3410.55 2232.51 3412.37 2223.31C3415.93 2205.32 3415.89 2218.4 3402.01 2236.85L3021.52 1950.52C2975.19 2012.07 2955.89 2077.12 2945.27 2130.73C2935.42 2180.38 2929.78 2239.36 2924.16 2295.57L3397.99 2342.96ZM3142.29 1841.22C3095.45 1869.64 3054.46 1906.74 3021.52 1950.52L3402.01 2236.85C3398.55 2241.44 3394.25 2245.33 3389.34 2248.31L3142.29 1841.22Z" fill="#E0E0E0"/>
<path d="M2842.18 4740.9L3234.89 3731.06L3627.61 4740.9" stroke="#E0E0E0" stroke-width="444.444" stroke-linecap="round" stroke-linejoin="round"/>
<path d="M4226.11 3731.06V4740.9" stroke="#E0E0E0" stroke-width="444.444" stroke-linecap="round" stroke-linejoin="round"/>
</svg>
